<?xml version="1.0" standalone="no"?>
<!DOCTYPE svg PUBLIC "-//W3C//DTD SVG 20010904//EN"
 "http://www.w3.org/TR/2001/REC-SVG-20010904/DTD/svg10.dtd">
<svg version="1.0" xmlns="http://www.w3.org/2000/svg"
 width="192.000000pt" height="192.000000pt" viewBox="0 0 192.000000 192.000000"
 preserveAspectRatio="xMidYMid meet">
<metadata>
Created by potrace 1.11, written by Peter Selinger 2001-2013
</metadata>
<g transform="translate(0.000000,192.000000) scale(0.100000,-0.100000)"
fill="#000000" stroke="none">
<path d="M900 1894 c-93 -72 -191 -182 -278 -309 -96 -142 -200 -396 -227
-554 -3 -19 -8 -37 -10 -41 -7 -11 -18 -133 -19 -202 -1 -38 -5 -68 -9 -68 -4
0 -3 -8 2 -18 7 -12 6 -25 -2 -39 -23 -41 -79 -130 -217 -347 -79 -124 -140
-230 -140 -243 0 -13 11 -35 25 -48 l24 -25 911 0 911 0 24 25 c14 13 25 35
25 48 0 12 -35 78 -77 145 -43 67 -89 140 -103 162 -14 21 -45 71 -70 110 -25
39 -53 83 -62 98 -41 64 -46 81 -52 192 -9 140 -27 253 -61 370 -9 30 -18 62
-20 70 -27 106 -174 379 -255 474 -112 132 -206 215 -252 222 -25 4 -41 -1
-68 -22z m116 -201 c49 -50 156 -187 187 -238 39 -67 97 -185 90 -185 -5 0 -3
-4 2 -8 23 -15 81 -227 104 -377 9 -64 7 -320 -4 -395 -10 -74 -43 -232 -60
-288 l-16 -52 -359 0 -359 0 -15 52 c-56 195 -75 339 -71 533 4 161 8 197 32
290 8 33 17 70 19 82 7 38 73 204 107 267 34 66 111 182 152 231 64 75 121
133 132 134 7 1 33 -20 59 -46z m-619 -1345 c14 -75 18 -93 32 -144 6 -22 11
-42 11 -46 0 -5 -50 -8 -111 -8 -129 0 -125 -9 -46 113 29 45 62 97 72 115 11
17 22 32 25 32 3 0 11 -28 17 -62z m1173 21 c0 -3 29 -50 65 -104 36 -55 65
-103 65 -107 0 -5 -50 -8 -111 -8 -110 0 -111 0 -106 23 3 12 15 65 27 117 29
130 28 127 45 104 8 -10 15 -21 15 -25z"/>
<path d="M880 984 c-189 -57 -243 -312 -93 -444 55 -48 111 -68 186 -64 196 9
311 221 212 390 -62 105 -188 154 -305 118z m144 -160 c76 -49 55 -170 -34
-194 -115 -31 -188 107 -101 191 34 32 89 34 135 3z"/>
</g>
</svg>
