<svg height="496pt" viewBox="0 0 496 496" width="496pt" xmlns="http://www.w3.org/2000/svg"><path d="m456 152v288c0 26.511719-21.488281 48-48 48h-320c-26.511719 0-48-21.488281-48-48v-288c26.511719 0 48-21.488281 48-48v-96h64v32c0 53.015625 42.984375 96 96 96s96-42.984375 96-96v-32h64v96c0 26.511719 21.488281 48 48 48zm0 0" fill="#695b52"/><path d="m344 40c0 53.015625-42.984375 96-96 96s-96-42.984375-96-96v-32h-64v96c0 26.511719-21.488281 48-48 48v245.503906c11.808594 1.585938 23.808594 2.496094 36 2.496094 165.6875 0 300-150.433594 300-336 0-19.089844-1.496094-37.777344-4.222656-56h-27.777344zm0 0" fill="#857970"/><path d="m184 360h96v96h-176v-96h32" fill="#f0d365"/><path d="m184 312h-48v56c0 13.257812 10.742188 24 24 24s24-10.742188 24-24zm0 0" fill="#d1a339"/><path d="m248 360h32v96h-32zm0 0" fill="#d1a339"/><path d="m8 312h64v64h-64zm0 0" fill="#695b52"/><path d="m8 200h64v64h-64zm0 0" fill="#695b52"/><path d="m424 312h64v64h-64zm0 0" fill="#857970"/><path d="m424 200h64v64h-64zm0 0" fill="#857970"/><path d="m270.128906 313.246094-22.128906 14.753906-22.128906-14.753906c-31.160156-20.765625-49.871094-55.742188-49.871094-93.191406v-52.054688h144v52.054688c0 37.449218-18.710938 72.425781-49.871094 93.191406zm0 0" fill="#d1a339"/><path d="m176 220.054688c0 27.609374 10.230469 53.832031 28.070312 74.050781 52.265626-9.472657 91.929688-55.113281 91.929688-110.105469 0-5.449219-.519531-10.761719-1.273438-16h-118.726562zm0 0" fill="#f0d365"/><path d="m72 384h-64c-4.425781 0-8-3.585938-8-8v-64c0-4.414062 3.574219-8 8-8h64c4.425781 0 8 3.585938 8 8v64c0 4.414062-3.574219 8-8 8zm-56-16h48v-48h-48zm0 0"/><path d="m72 272h-64c-4.425781 0-8-3.585938-8-8v-64c0-4.414062 3.574219-8 8-8h64c4.425781 0 8 3.585938 8 8v64c0 4.414062-3.574219 8-8 8zm-56-16h48v-48h-48zm0 0"/><path d="m488 384h-64c-4.425781 0-8-3.585938-8-8v-64c0-4.414062 3.574219-8 8-8h64c4.425781 0 8 3.585938 8 8v64c0 4.414062-3.574219 8-8 8zm-56-16h48v-48h-48zm0 0"/><path d="m488 272h-64c-4.425781 0-8-3.585938-8-8v-64c0-4.414062 3.574219-8 8-8h64c4.425781 0 8 3.585938 8 8v64c0 4.414062-3.574219 8-8 8zm-56-16h48v-48h-48zm0 0"/><path d="m32 264h16v48h-16zm0 0"/><path d="m408 496h-320c-30.871094 0-56-25.121094-56-56v-64h16v64c0 22.054688 17.945312 40 40 40h320c22.054688 0 40-17.945312 40-40v-64h16v64c0 30.878906-25.128906 56-56 56zm0 0"/><path d="m464 200h-16v-40.566406c-27.105469-3.898438-48-27.265625-48-55.433594v-88h-48v24c0 57.34375-46.65625 104-104 104s-104-46.65625-104-104v-24h-48v88c0 28.167969-20.894531 51.535156-48 55.433594v40.566406h-16v-48c0-4.414062 3.574219-8 8-8 22.054688 0 40-17.945312 40-40v-96c0-4.414062 3.574219-8 8-8h64c4.425781 0 8 3.585938 8 8v32c0 48.519531 39.480469 88 88 88s88-39.480469 88-88v-32c0-4.414062 3.574219-8 8-8h64c4.425781 0 8 3.585938 8 8v96c0 22.054688 17.945312 40 40 40 4.425781 0 8 3.585938 8 8zm0 0"/><path d="m448 264h16v48h-16zm0 0"/><path d="m248 336c-1.542969 0-3.097656-.449219-4.441406-1.34375l-22.125-14.753906c-33.457032-22.300782-53.433594-59.628906-53.433594-99.847656v-52.054688c0-4.414062 3.574219-8 8-8h144c4.425781 0 8 3.585938 8 8v52.054688c0 40.210937-19.976562 77.539062-53.441406 99.847656l-22.125 14.753906c-1.335938.894531-2.890625 1.34375-4.433594 1.34375zm-64-160v44.054688c0 34.847656 17.3125 67.203124 46.3125 86.539062l17.6875 11.789062 17.6875-11.789062c29-19.335938 46.3125-51.683594 46.3125-86.539062v-44.054688zm0 0"/><path d="m240 192h16v96h-16zm0 0"/><path d="m200 232h96v16h-96zm0 0"/><path d="m210.339844 213.65625 11.3125-11.3125 64 64-11.3125 11.3125zm0 0"/><path d="m210.339844 266.34375 64-64 11.3125 11.3125-64 64zm0 0"/><path d="m280 464h-176c-4.425781 0-8-3.585938-8-8v-96c0-4.414062 3.574219-8 8-8h32v16h-24v80h160v-80h-88v-16h96c4.425781 0 8 3.585938 8 8v96c0 4.414062-3.574219 8-8 8zm0 0"/><path d="m160 400c-17.648438 0-32-14.351562-32-32v-56c0-4.414062 3.574219-8 8-8h48c4.425781 0 8 3.585938 8 8v56c0 17.648438-14.351562 32-32 32zm-16-80v48c0 8.824219 7.175781 16 16 16s16-7.175781 16-16v-48zm0 0"/><path d="m240 360h16v96h-16zm0 0"/></svg>