<?xml version="1.0" encoding="iso-8859-1"?>
<!-- Generator: Adobe Illustrator 19.0.0, SVG Export Plug-In . SVG Version: 6.00 Build 0)  -->
<svg version="1.1" id="Capa_1" xmlns="http://www.w3.org/2000/svg" xmlns:xlink="http://www.w3.org/1999/xlink" x="0px" y="0px"
	 viewBox="0 0 511.996 511.996" style="enable-background:new 0 0 511.996 511.996;" xml:space="preserve">
<path style="fill:#87CED9;" d="M46.933,8.533h341.333c18.85,0,34.133,15.283,34.133,34.133v273.067
	c0,18.85-15.283,34.133-34.133,34.133H46.933c-18.85,0-34.133-15.283-34.133-34.133V42.667C12.8,23.817,28.083,8.533,46.933,8.533z"
	/>
<g>
	<rect x="38.4" y="34.133" style="fill:#4398D1;" width="17.067" height="17.067"/>
	<rect x="72.533" y="34.133" style="fill:#4398D1;" width="17.067" height="17.067"/>
	<rect x="106.667" y="34.133" style="fill:#4398D1;" width="17.067" height="17.067"/>
	<path style="fill:#4398D1;" d="M98.133,76.8h341.333c18.85,0,34.133,15.283,34.133,34.133V384c0,18.85-15.283,34.133-34.133,34.133
		H98.133C79.283,418.133,64,402.85,64,384V110.933C64,92.083,79.283,76.8,98.133,76.8z"/>
</g>
<path style="fill:#3F8FC4;" d="M439.467,76.8h-40.542c-61.158,194.722-178.27,293.137-259.345,341.333h299.887
	c18.85,0,34.133-15.283,34.133-34.133V110.933C473.6,92.083,458.317,76.8,439.467,76.8z"/>
<g>
	<rect x="89.6" y="102.4" style="fill:#87CED9;" width="17.067" height="17.067"/>
	<rect x="123.733" y="102.4" style="fill:#87CED9;" width="17.067" height="17.067"/>
	<rect x="157.867" y="102.4" style="fill:#87CED9;" width="17.067" height="17.067"/>
</g>
<g>
	<rect x="89.6" y="349.867" style="fill:#3685BA;" width="358.4" height="17.067"/>
	<rect x="106.667" y="281.6" style="fill:#3685BA;" width="17.067" height="51.2"/>
	<rect x="140.8" y="230.4" style="fill:#3685BA;" width="17.067" height="102.4"/>
	<rect x="174.933" y="256" style="fill:#3685BA;" width="17.067" height="76.8"/>
	<rect x="209.067" y="196.267" style="fill:#3685BA;" width="17.067" height="136.533"/>
	<rect x="243.2" y="179.2" style="fill:#3685BA;" width="17.067" height="153.6"/>
	<rect x="277.333" y="187.733" style="fill:#3685BA;" width="17.067" height="59.733"/>
	<rect x="311.467" y="153.6" style="fill:#3685BA;" width="17.067" height="93.867"/>
	<rect x="345.6" y="136.533" style="fill:#3685BA;" width="17.067" height="110.933"/>
	<rect x="379.733" y="170.667" style="fill:#3685BA;" width="17.067" height="162.133"/>
	<rect x="413.867" y="204.8" style="fill:#3685BA;" width="17.067" height="128"/>
</g>
<rect x="417.137" y="367.112" transform="matrix(-0.7071 0.7071 -0.7071 -0.7071 1053.7897 442.5483)" style="fill:#FDB62F;" width="36.207" height="144.818"/>
<rect x="382.975" y="381.221" transform="matrix(-0.7071 0.7071 -0.7071 -0.7071 971.3146 408.3836)" style="fill:#FA962A;" width="36.207" height="48.273"/>
<circle style="fill:#FDB62F;" cx="320" cy="332.8" r="110.933"/>
<circle style="fill:#87CED9;" cx="320" cy="332.8" r="76.8"/>
<g>
	<path style="fill:#4398D1;" d="M245.171,349.867c1.348,5.914,3.396,11.639,6.11,17.067h137.438
		c2.714-5.427,4.762-11.153,6.11-17.067H245.171z"/>
	<path style="fill:#4398D1;" d="M328.533,332.8v-76.297c-5.666-0.674-11.401-0.674-17.067,0V332.8H328.533z"/>
	<path style="fill:#4398D1;" d="M294.4,332.8v-72.337c-6.025,2.108-11.75,4.958-17.067,8.491V332.8H294.4z"/>
	<path style="fill:#4398D1;" d="M362.667,332.8v-63.846c-5.316-3.533-11.042-6.383-17.067-8.491V332.8H362.667z"/>
	<path style="fill:#4398D1;" d="M260.267,284.578c-11.059,13.636-17.084,30.669-17.067,48.222h17.067V284.578z"/>
	<path style="fill:#4398D1;" d="M379.733,332.8H396.8c0.017-17.553-6.007-34.586-17.067-48.222V332.8z"/>
</g>
<path d="M36.275,357.052l4.267-16.521c-11.307-2.918-19.209-13.116-19.209-24.798V42.667c0-14.14,11.46-25.6,25.6-25.6h341.333
	c14.14,0,25.6,11.46,25.6,25.6V51.2h17.067v-8.533C430.908,19.115,411.819,0.026,388.267,0H46.933
	C23.381,0.026,4.292,19.115,4.267,42.667v273.067C4.267,335.198,17.434,352.188,36.275,357.052z"/>
<rect x="38.4" y="34.133" width="17.067" height="17.067"/>
<rect x="72.533" y="34.133" width="17.067" height="17.067"/>
<rect x="106.667" y="34.133" width="17.067" height="17.067"/>
<path d="M434.432,366.933H448v-17.067h-9.899c3.217-20.659,0.734-41.796-7.168-61.15V204.8h-17.067v54.34
	c-5.069-6.477-10.786-12.407-17.067-17.715v-70.758h-17.067v58.829c-5.461-3.166-11.17-5.888-17.067-8.149v-84.813H345.6v79.633
	c-5.623-1.212-11.324-2.014-17.067-2.398V153.6h-17.067v60.169c-5.743,0.384-11.443,1.186-17.067,2.398v-28.433h-17.067v33.613
	c-5.897,2.261-11.605,4.983-17.067,8.149V179.2H243.2v62.225c-6.281,5.308-11.998,11.238-17.067,17.715v-62.874h-17.067v92.45
	c-7.902,19.354-10.385,40.491-7.168,61.15H89.6v17.067h115.968c18.714,63.13,85.06,99.132,148.19,80.418
	c12.442-3.686,24.192-9.378,34.799-16.862l79.01,79.01c3.328,3.328,8.738,3.328,12.066,0l25.6-25.6
	c3.328-3.328,3.328-8.738,0-12.066l-80.939-80.939C428.544,383.309,431.949,375.27,434.432,366.933z M217.6,332.8
	c0-56.55,45.85-102.4,102.4-102.4s102.4,45.85,102.4,102.4S376.55,435.2,320,435.2C263.475,435.14,217.66,389.325,217.6,332.8z
	 M487.134,477.867L473.6,491.401l-71.782-71.782c4.651-4.395,8.943-9.148,12.843-14.225L487.134,477.867z"/>
<path d="M320,247.467c-47.13,0-85.333,38.204-85.333,85.333S272.87,418.133,320,418.133s85.333-38.204,85.333-85.333
	C405.282,285.696,367.104,247.518,320,247.467z M277.333,279.595V332.8H294.4v-63.241c5.47-2.219,11.213-3.703,17.067-4.429V332.8
	h17.067v-67.669c5.854,0.725,11.597,2.21,17.067,4.429V332.8h17.067v-53.205c21.052,16.708,30.225,44.288,23.356,70.272H253.978
	C247.108,323.883,256.282,296.303,277.333,279.595z M320,401.067c-24.354-0.034-46.857-13.039-59.034-34.133h118.067
	C366.857,388.028,344.354,401.033,320,401.067z"/>
<path d="M55.467,110.933V384c0.026,23.552,19.115,42.641,42.667,42.667h110.933V409.6H98.133c-14.14,0-25.6-11.46-25.6-25.6V110.933
	c0-14.14,11.46-25.6,25.6-25.6h341.333c14.14,0,25.6,11.46,25.6,25.6V384c0,6.238-2.278,12.254-6.4,16.93l12.8,11.29
	c6.878-7.791,10.675-17.826,10.667-28.22V110.933c-0.026-23.552-19.115-42.641-42.667-42.667H98.133
	C74.581,68.292,55.492,87.381,55.467,110.933z"/>
<rect x="89.6" y="102.4" width="17.067" height="17.067"/>
<rect x="123.733" y="102.4" width="17.067" height="17.067"/>
<rect x="157.867" y="102.4" width="17.067" height="17.067"/>
<rect x="106.667" y="281.6" width="17.067" height="51.2"/>
<rect x="140.8" y="230.4" width="17.067" height="102.4"/>
<rect x="174.933" y="256" width="17.067" height="76.8"/>
<g>
</g>
<g>
</g>
<g>
</g>
<g>
</g>
<g>
</g>
<g>
</g>
<g>
</g>
<g>
</g>
<g>
</g>
<g>
</g>
<g>
</g>
<g>
</g>
<g>
</g>
<g>
</g>
<g>
</g>
</svg>
