<svg id="Capa_1" enable-background="new 0 0 512 512" height="512" viewBox="0 0 512 512" width="512" xmlns="http://www.w3.org/2000/svg"><g><g><path d="m168 415c0 45-33 70-33 97h-135v-99z" fill="#e19d83"/><path d="m0 196 39 52s35-29 82-29c35 0 81 49 81 49s66-4 90-4c42 0 94 68 94 68s-21-16-21-59c0-30 15-51 15-143l39-7s93 185 93 273c0 9.434-20 34-31 34s-149 28-208 28c-34 0-106-43-142-43s-43 97-99 97h-32z" fill="#f0c7ad"/><g fill="#e19d83"><path d="m27.437 232.582-27.437 33.903v16.396l39-34.881z"/><path d="m190.844 257.166c-27.679 5.407-57.844 27.834-57.844 27.834l6 6c10-10 63-23 63-23s-4.256-4.531-11.156-10.834z"/><path d="m35 495c0 2.761-3.582 5-8 5s-8-2.239-8-5 2.582-7 7-7 9 4.239 9 7z"/><path d="m180 339s72 43 93 43 83-17 83-17l5 5s-55 25-91 25-95-49-95-49z"/><path d="m386 334s7.5 11.5 15 19 24 7 24 7l1-4s-17-3-22-8-16-16-16-16z"/><path d="m449 351s13.5-2.5 23-12-1-48-1-48h6s12 44 3 53-31 11-31 11z"/></g></g><g><path d="m512 110c0 58.542-56 102-106 102-58.542 0-106-47.458-106-106s65-106 106-106c58.542 0 106 51.458 106 110z" fill="#7a7a93"/><path d="m490 106c0 45.287-31 82-84 82-45.287 0-82-36.713-82-82s32-82 82-82c45.287 0 84 36.713 84 82z" fill="#564544"/><g><g fill="#b1d5f1"><path d="m436 109c0 16.569-18 28-30 28-16.569 0-30-13.431-30-30s19-30 30-30c16.569 0 30 15.431 30 32z"/><path d="m395 85 6-20 19 1 2 19h19l5 14-17 10 15 14-10 14-15-6-6 14-17-1-4-16-17 4-8-14 15-14-15-12 9-13z"/></g><circle cx="406" cy="107" fill="#7a7a93" r="18"/><path d="m416 108c0 5.523-6 9-10 9-5.523 0-10-6-10-10 0-5.523 7-10 10-10 5.523 0 10 5.477 10 11z" fill="#b1d5f1"/></g><g fill="#7a7a93"><path d="m347 116s15 51 57 51c41 0 64-45 64-45l4 3s-15 53-67 53-63-59-63-59z"/><path d="m347 82-13 11 10 13 12-8z"/><path d="m472 112-11-13 12-11 9 15z"/><path d="m351 73s25-27 58-27c35 0 57 32 57 32l3-3s-23-41-59-41-63 35-63 35z"/></g></g></g></svg>