<svg height="512" viewBox="0 0 512 512" width="512" xmlns="http://www.w3.org/2000/svg"><circle cx="328" cy="80" fill="#faa51e" r="32"/><path d="m448 96c-.27 0-.537.012-.805.021a40.007 40.007 0 1 0 -78.395-16.021h-24.8a32 32 0 0 0 0 64h104a24 24 0 0 0 0-48z" fill="#aac3d7"/><path d="m408 224h-96a64 64 0 0 0 -128 0h-96a160 160 0 0 1 320 0z" fill="#f05555"/><path d="m376 224h-64a64 64 0 0 0 -128 0h-64a128 128 0 0 1 256 0z" fill="#faa51e"/><path d="m344 224h-32a64 64 0 0 0 -128 0h-32a96 96 0 0 1 192 0z" fill="#91be41"/><path d="m104 224v224h256a64 64 0 0 0 64-64v-144a16 16 0 0 0 -16-16z" fill="#fab991"/><path d="m104 448h160v48h-160z" fill="#fab991"/><path d="m72 240v144a32 32 0 0 0 32 32h80a32 32 0 0 0 32-32v-160h-128a16 16 0 0 0 -16 16z" fill="#3c3c3c"/><path d="m216 224v80a48 48 0 0 0 48-48v-32z" fill="#3c3c3c"/><path d="m216 253.333a48 48 0 1 0 0 96z" fill="#f0915a"/><path d="m152 448h112a0 0 0 0 1 0 0v48a0 0 0 0 1 0 0h-160a0 0 0 0 1 0 0 48 48 0 0 1 48-48z" fill="#f0915a"/><path d="m392 276a20.023 20.023 0 0 1 -20-20 4 4 0 0 1 8 0 12 12 0 0 0 24 0 4 4 0 0 1 8 0 20.023 20.023 0 0 1 -20 20z" fill="#3c3c3c"/><path d="m312 276a20.023 20.023 0 0 1 -20-20 4 4 0 0 1 8 0 12 12 0 0 0 24 0 4 4 0 0 1 8 0 20.023 20.023 0 0 1 -20 20z" fill="#3c3c3c"/><path d="m352 272a48 48 0 0 1 48 48v8a24 24 0 0 1 -24 24 24 24 0 0 1 -24-24v-56a0 0 0 0 1 0 0z" fill="#f0915a"/><path d="m312 368h85.333a0 0 0 0 1 0 0 32 32 0 0 1 -32 32h-21.333a32 32 0 0 1 -32-32 0 0 0 0 1 0 0z" fill="#fff"/><path d="m176 144c-.27 0-.537.012-.805.021a40.007 40.007 0 1 0 -78.395-16.021h-24.8a32 32 0 0 0 0 64h104a24 24 0 0 0 0-48z" fill="#d7e6e6"/><g fill="#faa51e"><path d="m328 40a8 8 0 0 1 -8-8v-8a8 8 0 0 1 16 0v8a8 8 0 0 1 -8 8z"/><path d="m361.941 54.059a8 8 0 0 1 -5.657-13.659l5.656-5.657a8 8 0 0 1 11.315 11.312l-5.655 5.66a7.973 7.973 0 0 1 -5.659 2.344z"/><path d="m294.059 54.059a7.975 7.975 0 0 1 -5.658-2.344l-5.656-5.657a8 8 0 0 1 11.315-11.312l5.656 5.657a8 8 0 0 1 -5.657 13.656z"/></g></svg>