<?xml version="1.0" encoding="iso-8859-1"?>
<!-- Generator: Adobe Illustrator 19.0.0, SVG Export Plug-In . SVG Version: 6.00 Build 0)  -->
<svg version="1.1" id="Capa_1" xmlns="http://www.w3.org/2000/svg" xmlns:xlink="http://www.w3.org/1999/xlink" x="0px" y="0px"
	 viewBox="0 0 512 512" style="enable-background:new 0 0 512 512;" xml:space="preserve">
<path style="fill:#FCD2BE;" d="M381.756,279.917c-3.839,0-7.887-0.553-12.086-1.687c-4.115-1.11-6.551-5.347-5.44-9.462
	c1.111-4.116,5.349-6.551,9.462-5.441c9.035,2.439,20.872,2.218,25.949-12.686c3.303-9.71,13.325-32.36,34.983-32.918
	c2.598-0.065,5.269,0.271,5.564,0.31c4.226,0.554,7.204,4.428,6.651,8.655c-0.555,4.226-4.45,7.204-8.654,6.65
	c-0.472-0.061-1.987-0.218-3.161-0.184c-11.955,0.308-18.507,15.81-20.77,22.461C408.929,271.244,396.966,279.917,381.756,279.917z"
	/>
<path style="fill:#B37854;" d="M181.401,201.459c0,4.26-3.458,7.718-7.718,7.718c-13.408,0-18.636,11.175-26.055,29.41
	c-0.123,0.288-0.237,0.587-0.36,0.885c-7.028,17.236-15.96,38.187-40.071,38.187c-7.553,0-17.668-3.2-22.896-18.43
	c-3.015-8.788-3.869-19.675-4.703-30.202c-0.813-10.29-2.171-27.516-6.617-27.516c-4.26,0-7.718-3.458-7.718-7.718
	c0-4.27,3.458-7.718,7.718-7.718c3.067,0,6.648,0.7,9.961,3.056c3.313,2.367,6.359,6.39,8.387,13.048
	c2.202,7.224,2.912,16.166,3.653,25.633c1.842,23.308,4.137,34.411,12.215,34.411c13.46,0,18.698-11.196,26.127-29.461
	c0.463-1.122,0.926-2.274,1.399-3.427c6.884-16.67,16.073-35.594,38.959-35.594C177.943,193.741,181.401,197.199,181.401,201.459z"
	/>
<g>
	<path style="fill:#E2E2E2;" d="M56.52,225.174c-4.263,0-7.718-3.455-7.718-7.718s3.454-7.718,7.718-7.718
		c8.795,0,15.95-7.155,15.95-15.95s-7.155-15.95-15.95-15.95c-4.263,0-7.718-3.455-7.718-7.718c0-4.262,3.454-7.718,7.718-7.718
		c17.305,0,31.385,14.079,31.385,31.385S73.826,225.174,56.52,225.174z"/>
	<path style="fill:#E2E2E2;" d="M455.485,256.047c-17.305,0-31.385-14.079-31.385-31.385s14.08-31.385,31.385-31.385
		c4.263,0,7.718,3.455,7.718,7.718c0,4.262-3.454,7.718-7.718,7.718c-8.795,0-15.95,7.155-15.95,15.95s7.155,15.95,15.95,15.95
		c4.263,0,7.718,3.455,7.718,7.718S459.748,256.047,455.485,256.047z"/>
</g>
<g>
	<path style="fill:#50515B;" d="M394.441,504.282c0,4.26-3.458,7.718-7.718,7.718h-26.755c-2.686,0-5.186-1.41-6.586-3.705
		c-1.399-2.305-1.502-5.166-0.268-7.563c2.912-5.639,5.474-11.237,7.707-16.784c15.785-38.887,16.218-75.006,13.367-99.713
		c-3.55-30.83-12.811-51.205-12.904-51.4c-1.78-3.869-0.093-8.459,3.766-10.239c3.869-1.79,8.448-0.113,10.239,3.746
		c0.422,0.906,10.259,22.381,14.159,55.496c3.005,25.499,2.799,62.236-12.06,102.111c-1.544,4.178-3.262,8.387-5.145,12.616h14.478
		C390.984,496.565,394.441,500.012,394.441,504.282z"/>
	<path style="fill:#50515B;" d="M323.572,504.282c0,4.26-3.447,7.718-7.718,7.718H289.11c-2.696,0-5.186-1.41-6.596-3.705
		c-1.399-2.305-1.492-5.166-0.257-7.563c2.912-5.629,5.474-11.237,7.707-16.784c15.775-38.887,16.207-75.006,13.367-99.713
		c-3.55-30.83-12.811-51.205-12.904-51.4c-1.78-3.869-0.093-8.459,3.766-10.239c3.869-1.79,8.448-0.113,10.239,3.746
		c0.422,0.906,10.249,22.381,14.159,55.496c2.994,25.499,2.799,62.226-12.06,102.111c-1.554,4.168-3.262,8.376-5.155,12.616h14.478
		C320.125,496.565,323.572,500.012,323.572,504.282z"/>
	<path style="fill:#50515B;" d="M268.58,504.282c0,4.26-3.458,7.718-7.718,7.718h-26.755c-2.686,0-5.186-1.41-6.586-3.705
		c-1.399-2.305-1.502-5.166-0.268-7.553c2.912-5.639,5.474-11.247,7.718-16.794c15.775-38.887,16.207-75.006,13.357-99.713
		c-3.55-30.83-12.811-51.194-12.904-51.4c-1.78-3.869-0.093-8.448,3.777-10.239c3.859-1.79,8.438-0.113,10.229,3.746
		c0.422,0.906,10.259,22.381,14.16,55.506c3.005,25.489,2.799,62.226-12.06,102.101c-1.544,4.178-3.262,8.387-5.145,12.616h14.479
		C265.123,496.565,268.58,500.012,268.58,504.282z"/>
	<path style="fill:#50515B;" d="M192.566,504.282c0,4.26-3.447,7.718-7.718,7.718h-26.745c-2.696,0-5.186-1.41-6.586-3.705
		c-1.41-2.305-1.502-5.166-0.268-7.553c2.912-5.639,5.474-11.247,7.718-16.794c15.775-38.887,16.207-75.006,13.357-99.713
		c-3.55-30.83-12.811-51.194-12.904-51.4c-1.78-3.869-0.093-8.448,3.766-10.239c3.869-1.79,8.448-0.113,10.239,3.746
		c0.422,0.906,10.259,22.381,14.159,55.506c2.994,25.489,2.799,62.226-12.06,102.101c-1.544,4.168-3.262,8.376-5.145,12.616h14.468
		C189.119,496.565,192.566,500.012,192.566,504.282z"/>
</g>
<path style="fill:#B37854;" d="M381.733,228.965c-0.741,0.226-1.482,0.329-2.212,0.329c-3.324,0-6.39-2.171-7.388-5.516
	l-1.369-4.569c-1.255-4.219-5.207-7.162-9.611-7.162h-4.054l-66.002,4.178l-24.8,1.76l-33.732,2.398
	c-4.25,0.309-7.934-2.902-8.243-7.152c-0.298-4.25,2.902-7.944,7.152-8.243l34.822-2.48l23.76-1.688l66.311-4.198
	c0.165-0.01,0.329-0.01,0.484-0.01h4.301c11.175,0,21.208,7.471,24.409,18.183l1.358,4.569
	C388.133,223.449,385.818,227.751,381.733,228.965z"/>
<path style="fill:#3D8299;" d="M391.001,329.877c0,0-39.659,19.829-79.812,12.071c-15.024-2.892-30.12-9.652-43.23-22.762
	c0,0,12.564-84.165,36.109-133.352c3.128-6.534,6.452-12.451,9.971-17.473l14.643,1.132l29.595,2.295
	c0,4.116,0.525,12.173,1.605,22.68C363.547,230.4,373.611,295.106,391.001,329.877z"/>
<path style="fill:#D8254F;" d="M266.296,202.508v15.477l-33.732,2.398c-4.25,0.309-7.934-2.902-8.243-7.152
	c-0.298-4.25,2.902-7.944,7.152-8.243L266.296,202.508z"/>
<path style="fill:#025970;" d="M311.19,341.947c-15.024-2.892-30.12-9.652-43.23-22.762c0,0,16.125-108.028,46.08-150.825
	l14.643,1.132l4.24,4.188C321.964,196.185,296.299,283.272,311.19,341.947z"/>
<path style="fill:#EF4A6E;" d="M265.138,329.878c0,0-39.659,19.829-79.812,12.071c-15.024-2.892-30.12-9.652-43.23-22.762
	c0,0,16.125-108.028,46.08-150.825l14.643,1.132l29.595,2.295C232.415,189.981,242.664,284.94,265.138,329.878z"/>
<path style="fill:#D8254F;" d="M185.327,341.948c-15.024-2.892-30.12-9.652-43.23-22.762c0,0,16.125-108.028,46.08-150.825
	l14.643,1.132l4.24,4.188C196.101,196.186,170.437,283.273,185.327,341.948z"/>
<g>
	<path style="fill:#FCD2BE;" d="M322.913,209.701c-0.051,0.072-2.82,3.787-6.555,10.506c-3.735,6.709-8.428,16.423-12.359,28.504
		c-0.247,0.761-0.484,1.513-0.72,2.274c-9.724,31.396-9.766,63.368-0.154,95.083c4.126,13.573-1.544,28.257-13.779,35.687
		c-0.607,0.37-1.255,0.648-1.914,0.833c-3.252,0.916-6.843-0.391-8.685-3.416c-2.212-3.643-1.06-8.397,2.583-10.609
		c6.215-3.777,9.097-11.186,7.028-18.018c-13.377-44.073-6.977-82.065,0.906-106.422c0.093-0.278,0.175-0.545,0.268-0.813
		c8.685-26.415,20.581-42.262,21.085-42.921c2.573-3.396,7.409-4.065,10.805-1.492C324.817,201.479,325.486,206.305,322.913,209.701
		z"/>
	<path style="fill:#FCD2BE;" d="M405.552,31.54v77.939c0,35.718-28.967,64.685-64.695,64.685c-9.57,0-18.646-2.079-26.817-5.804
		v-0.01c-19.768-9.014-34.205-27.691-37.261-50.001c-2.871-1.008-5.567-2.655-7.872-4.96c-8.15-8.14-8.15-21.352,0-29.492
		c8.14-8.16,21.363-8.16,29.513,0l5.433-31.149l3.705-21.208L405.552,31.54L405.552,31.54z"/>
</g>
<path style="fill:#FAB998;" d="M314.04,168.35c-19.768-9.014-34.205-27.691-37.261-50.001c-2.871-1.008-5.567-2.655-7.872-4.96
	c-8.15-8.14-8.15-21.352,0-29.492c8.14-8.16,21.363-8.16,29.513,0l5.433-31.149l17.03,3.458
	C313.721,68.585,283.478,113.77,314.04,168.35z"/>
<path style="fill:#F9CE55;" d="M435.795,0c0,31.046-25.17,56.206-56.206,56.206h-58.706v5.217c0,12.41-10.064,22.464-22.474,22.464
	c-6.01-6.01-14.787-7.584-22.237-4.723V56.206C276.172,25.17,301.342,0,332.377,0H435.795z"/>
<path style="fill:#E2A11E;" d="M378.251,0h-45.873c-31.036,0-56.206,25.17-56.206,56.206v22.958
	c7.45-2.861,16.228-1.286,22.237,4.723c12.41,0,22.474-10.054,22.474-22.464v-5.217h1.162C322.045,25.17,347.215,0,378.251,0z"/>
<g>
	<path style="fill:#50515B;" d="M350.341,102.08c-4.262,0-7.718-3.455-7.718-7.718v-10.7c0-4.262,3.455-7.718,7.718-7.718
		c4.262,0,7.718,3.455,7.718,7.718v10.7C358.059,98.624,354.603,102.08,350.341,102.08z"/>
	<path style="fill:#50515B;" d="M378.159,102.08c-4.262,0-7.718-3.455-7.718-7.718v-10.7c0-4.262,3.456-7.718,7.718-7.718
		s7.718,3.455,7.718,7.718v10.7C385.877,98.624,382.421,102.08,378.159,102.08z"/>
</g>
<path style="fill:#FFFFFF;" d="M353.288,150.409c-0.139,0-0.278-0.003-0.418-0.011c-14.822-0.791-26.155-7.329-32.77-18.906
	c-2.115-3.7-0.829-8.415,2.872-10.53c3.7-2.115,8.414-0.829,10.53,2.872c3.995,6.991,10.599,10.638,20.191,11.151
	c4.256,0.227,7.522,3.862,7.295,8.118C360.769,147.219,357.362,150.409,353.288,150.409z"/>
<path style="fill:#B37854;" d="M279.673,52.784l0.024,56.696c0,35.718-28.967,64.685-64.695,64.685
	c-9.57,0-18.646-2.079-26.817-5.804v-0.01c-19.768-9.014-34.205-27.691-37.261-50.001c-2.871-1.008-5.567-2.655-7.872-4.96
	c-8.15-8.14-8.15-21.352,0-29.492c8.14-8.16,21.363-8.16,29.513,0l5.433-31.149l3.705-21.208L279.673,52.784z"/>
<path style="fill:#946032;" d="M188.185,168.351c-19.768-9.014-34.205-27.691-37.261-50.001c-2.871-1.008-5.567-2.655-7.872-4.96
	c-8.15-8.14-8.15-21.352,0-29.492c8.14-8.16,21.363-8.16,29.513,0l-7.114-31.114l29.577,3.423
	C187.866,68.586,157.623,113.771,188.185,168.351z"/>
<path style="fill:#50515B;" d="M150.661,52.811v26.23c7.378-2.696,15.971-1.07,21.898,4.857V68.246
	c4.291,0,7.985-0.607,11.186-1.667c19.047-6.236,20.128-27.959,20.128-27.959c20.632,20.622,75.819,14.19,75.819,14.19
	c0-14.571-5.907-27.763-15.456-37.313c-9.539-9.539-22.731-15.446-37.302-15.446h-23.513
	C174.287,0.052,150.661,23.669,150.661,52.811z"/>
<path style="fill:#393A42;" d="M150.661,52.811v26.23c7.378-2.696,15.971-1.07,21.898,4.857V68.246
	c4.291,0,7.985-0.607,11.186-1.667c-5.619-30.398,8.078-66.527,33.804-66.527h-14.129C174.287,0.052,150.661,23.669,150.661,52.811z
	"/>
<g>
	<path style="fill:#50515B;" d="M224.481,102.081c-4.262,0-7.718-3.455-7.718-7.718v-10.7c0-4.262,3.455-7.718,7.718-7.718
		c4.262,0,7.718,3.455,7.718,7.718v10.7C232.199,98.626,228.743,102.081,224.481,102.081z"/>
	<path style="fill:#50515B;" d="M252.299,102.081c-4.262,0-7.718-3.455-7.718-7.718v-10.7c0-4.262,3.455-7.718,7.718-7.718
		s7.718,3.455,7.718,7.718v10.7C260.017,98.626,256.561,102.081,252.299,102.081z"/>
</g>
<path style="fill:#FFFFFF;" d="M227.428,150.411c-0.139,0-0.278-0.003-0.418-0.011c-14.822-0.791-26.154-7.329-32.77-18.905
	c-2.115-3.7-0.829-8.415,2.872-10.53c3.699-2.115,8.414-0.829,10.53,2.872c3.995,6.991,10.599,10.638,20.191,11.151
	c4.256,0.227,7.522,3.862,7.295,8.118C234.909,147.221,231.502,150.411,227.428,150.411z"/>
<g>
	<path style="fill:#00C7A9;" d="M192.566,504.282c0,4.26-3.447,7.718-7.718,7.718h-26.745c-2.696,0-5.186-1.41-6.586-3.705
		c-1.41-2.305-1.502-5.166-0.268-7.553c2.912-5.639,5.474-11.247,7.718-16.794h16.557c-1.544,4.168-3.262,8.376-5.145,12.616h14.468
		C189.119,496.565,192.566,500.012,192.566,504.282z"/>
	<path style="fill:#00C7A9;" d="M268.58,504.282c0,4.26-3.458,7.718-7.718,7.718h-26.755c-2.686,0-5.186-1.41-6.586-3.705
		c-1.399-2.305-1.502-5.166-0.268-7.553c2.912-5.639,5.474-11.247,7.718-16.794h16.557c-1.544,4.178-3.262,8.387-5.145,12.616
		h14.478C265.123,496.565,268.58,500.012,268.58,504.282z"/>
</g>
<g>
	<path style="fill:#F9CE55;" d="M323.572,504.282c0,4.26-3.447,7.718-7.718,7.718H289.11c-2.696,0-5.186-1.41-6.596-3.705
		c-1.399-2.305-1.492-5.166-0.257-7.563c2.912-5.629,5.474-11.237,7.707-16.784h16.567c-1.554,4.168-3.262,8.376-5.155,12.616
		h14.478C320.125,496.565,323.572,500.012,323.572,504.282z"/>
	<path style="fill:#F9CE55;" d="M394.441,504.282c0,4.26-3.458,7.718-7.718,7.718h-26.755c-2.686,0-5.186-1.41-6.586-3.705
		c-1.399-2.305-1.502-5.166-0.268-7.563c2.912-5.639,5.474-11.237,7.707-16.784h16.567c-1.544,4.178-3.262,8.387-5.145,12.616
		h14.478C390.984,496.565,394.441,500.012,394.441,504.282z"/>
</g>
<path style="fill:#025970;" d="M322.913,209.701c-0.051,0.072-2.82,3.787-6.555,10.506c-3.735,6.709-8.428,16.423-12.359,28.504
	c-0.247,0.761-0.484,1.513-0.72,2.274l-14.015-6.864c0.093-0.278,0.175-0.545,0.268-0.813c8.685-26.415,20.581-42.262,21.085-42.921
	c2.573-3.396,7.409-4.065,10.805-1.492C324.817,201.479,325.486,206.305,322.913,209.701z"/>
<rect x="455.482" y="188.642" style="fill:#F9CE55;" width="52.481" height="76.148"/>
<path style="fill:#CECCCA;" d="M507.964,188.647h-52.481c0-14.499,11.752-26.24,26.24-26.24c2.686,0,5.289,0.401,7.728,1.163
	C500.174,166.852,507.964,176.834,507.964,188.647z"/>
<path style="fill:#E2E2E2;" d="M507.964,188.647h-37.045c0-11.813,7.8-21.795,18.533-25.078
	C500.174,166.852,507.964,176.834,507.964,188.647z"/>
<rect x="455.482" y="188.642" style="fill:#E2A11E;" width="18.523" height="76.148"/>
<path style="fill:#D8254F;" d="M181.401,201.459c0,4.26-3.458,7.718-7.718,7.718c-13.408,0-18.636,11.175-26.055,29.41
	c-0.123,0.288-0.237,0.587-0.36,0.885l-12.544-10.136c6.884-16.67,16.073-35.594,38.959-35.594
	C177.943,193.741,181.401,197.199,181.401,201.459z"/>
<rect x="4.036" y="157.771" style="fill:#F9CE55;" width="52.481" height="76.148"/>
<path style="fill:#CECCCA;" d="M56.518,157.776H4.037c0-14.499,11.752-26.251,26.24-26.251c2.881,0,5.649,0.463,8.232,1.327
	C48.964,136.3,56.518,146.159,56.518,157.776z"/>
<path style="fill:#E2E2E2;" d="M56.518,157.776H20.501c0-11.618,7.553-21.476,18.008-24.923
	C48.964,136.3,56.518,146.159,56.518,157.776z"/>
<rect x="4.036" y="157.771" style="fill:#E2A11E;" width="18.523" height="76.148"/>
<g>
</g>
<g>
</g>
<g>
</g>
<g>
</g>
<g>
</g>
<g>
</g>
<g>
</g>
<g>
</g>
<g>
</g>
<g>
</g>
<g>
</g>
<g>
</g>
<g>
</g>
<g>
</g>
<g>
</g>
</svg>
