<svg id="Layer_1" enable-background="new 0 0 512.002 512.002" height="512" viewBox="0 0 512.002 512.002" width="512" xmlns="http://www.w3.org/2000/svg"><g><g clip-rule="evenodd" fill-rule="evenodd"><path d="m216.001 262.002h80 120.19c-3.286-10.613-10.147-21.465-24.116-29.496l-16.876-9.708c-4.345-4.345-15.581-43.684-55.993-43.684l-19.407.032-16.787-9.728c-35.314-20.623-64.817 8.122-70.812 9.728-6.457 1.73-45.234-8.81-65.692 26.777l-9.707 16.876c-3.671 3.671-32.315 12.26-41.118 39.202h120.318z" fill="#ffc144"/><path d="m212.201 179.146c5.994-1.606 35.497-30.351 70.812-9.728l16.787 9.728 19.407-.032c40.412 0 51.648 39.339 55.993 43.684l16.876 9.708c13.969 8.03 20.829 18.883 24.116 29.496h5.808v-212.002h-331.998v212.002h5.681c8.804-26.942 37.447-35.532 41.118-39.202l9.707-16.876c20.459-35.588 59.236-25.048 65.693-26.778z" fill="#c68a86"/><path d="m90.002 50h331.997v212.002h40v-232.002c0-11-9.004-20-20-20h-371.997c-10.996 0-20 9.003-20 20v232.002h40z" fill="#d1a19e"/><path d="m50.002 322.004v-60.002h-30.002c-5.5 0-10 4.5-10 10v150c14.572 0 28.234 3.896 40.001 10.703v-110.701z" fill="#c68a86"/><path d="m50.002 432.705c-11.767-6.807-25.429-10.703-40.001-10.703v60c0 11 9 19.999 20 19.999h60c0-29.61-16.088-55.463-39.999-69.296z" fill="#ffc144"/><path d="m461.999 432.705c-23.911 13.832-39.999 39.686-39.999 69.297h60c11 0 20-8.999 20-19.999v-60c-14.571-.001-28.233 3.895-40.001 10.702z" fill="#ffc144"/><path d="m461.999 322.004v110.701c11.767-6.807 25.429-10.703 40.001-10.703v-150c0-5.5-4.5-10-10-10h-30.002v60.002z" fill="#c68a86"/><path d="m296.001 322.004h165.998v-60.002h-40-5.808-120.19z" fill="#c68a86"/><path d="m296.001 322.004v-60.002h-80v60.002 19.998c0 22 18 40 40 40s40-18 40-40z" fill="#ffc144"/><path d="m216.001 322.004v-60.002h-120.318-5.681-40v60.002z" fill="#c68a86"/><path d="m216.001 322.004h-165.999v110.701c23.911 13.832 39.999 39.686 39.999 69.297h332c0-29.611 16.087-55.464 39.999-69.297v-110.701h-165.999v19.998c0 22-18 40-40 40s-40-18-40-40z" fill="#d1a19e"/></g><g><path d="m492.001 252.002h-20.002v-222.002c0-16.542-13.458-30-30-30h-371.997c-16.542 0-30 13.458-30 30v222.002h-20.002c-11.028 0-20 8.972-20 20v210.001c0 16.542 13.458 30 30 30h452c16.542 0 30-13.458 30-30v-210.002c.001-11.027-8.97-19.999-19.999-19.999zm0 19.999v140.558c-6.874.759-13.573 2.31-20.002 4.578v-145.136zm-431.999 60.003h27.996c5.523 0 10-4.477 10-10s-4.477-10-10-10h-27.996v-40.002h145.999v40.002h-28.002c-5.523 0-10 4.477-10 10s4.477 10 10 10h28.002v9.998c0 27.57 22.43 50 50 50 27.571 0 50-22.43 50-50v-9.998h145.998v95.149c-4.854 3.253-9.424 6.995-13.639 11.209-14.577 14.577-23.564 33.377-25.802 53.64h-313.115c-2.239-20.262-11.226-39.063-25.803-53.64-4.214-4.214-8.785-7.956-13.638-11.209zm391.997-20h-145.998v-40.002h145.998zm-225.998-40.002h60v70c0 16.542-13.458 30-30 30s-30-13.458-30-30zm-113.458-20c7.281-8.726 17.174-13.869 23.321-17.061 3.68-1.911 6.111-3.173 8.009-5.071.621-.622 1.158-1.323 1.597-2.084l9.708-16.878c12.456-21.667 32.157-22.572 49.641-21.718 4.351.212 7.224.353 9.97-.384 2.611-.699 4.933-2.188 8.448-4.44 10.919-7 31.246-20.028 54.763-6.294l16.786 9.728c1.523.883 3.253 1.348 5.014 1.348h.017l19.391-.032c26.851 0 37.911 21.303 43.853 32.748 1.91 3.679 3.172 6.11 5.069 8.007.621.622 1.322 1.159 2.085 1.597l16.879 9.71c5.252 3.019 9.501 6.609 12.82 10.826h-287.371zm299.456-16.546c-4.22-4.432-9.197-8.318-14.938-11.618l-14.86-8.549c-.418-.766-.938-1.77-1.393-2.644-6.763-13.026-22.601-43.532-61.619-43.532l-16.71.028-14.424-8.359c-34.06-19.891-63.178-1.226-75.612 6.744-.979.627-2.128 1.364-2.911 1.832-.971-.011-2.47-.084-3.74-.146-14.472-.705-48.359-2.358-67.953 31.725l-8.548 14.861c-.767.418-1.771.939-2.645 1.393-6.494 3.372-17.375 9.022-26.645 18.78v-175.971h311.997v175.456zm-351.997-205.456c0-5.514 4.486-10 10-10h371.998c5.514 0 10 4.486 10 10v222.002h-20v-202.002c0-5.523-4.478-10-10-10h-331.998c-5.523 0-10 4.477-10 10v202.001h-20zm-20 242.002v145.135c-6.429-2.268-13.129-3.819-20.002-4.578l-.002-140.557zm-20.001 210-.001-49.276c30.808 4.359 54.918 28.468 59.276 59.276h-49.275c-5.514 0-10-4.486-10-10zm462 10h-49.277c4.359-30.807 28.469-54.917 59.277-59.276v49.276c0 5.514-4.486 10-10 10z"/><path d="m256.001 133.766c5.523 0 10-4.477 10-10v-33.763c0-5.523-4.478-10-10-10s-10 4.477-10 10v33.763c0 5.523 4.477 10 10 10z"/><path d="m163.222 151.305c1.852 3.208 5.213 5.002 8.669 5.002 1.696 0 3.416-.433 4.991-1.342 4.783-2.761 6.422-8.877 3.66-13.66l-16.881-29.239c-2.762-4.784-8.877-6.422-13.66-3.66-4.783 2.761-6.422 8.877-3.66 13.66z"/><path d="m335.119 154.965c1.575.91 3.294 1.342 4.99 1.342 3.456 0 6.818-1.794 8.67-5.002l16.881-29.239c2.762-4.783 1.123-10.899-3.66-13.66-4.785-2.763-10.9-1.122-13.66 3.66l-16.881 29.239c-2.761 4.783-1.123 10.899 3.66 13.66z"/><path d="m256.005 352.002c5.523 0 10-4.477 10-10s-4.478-10-10-10h-.007c-5.523 0-9.997 4.477-9.997 10s4.481 10 10.004 10z"/><path d="m133.002 332.004c5.523 0 10-4.477 10-10s-4.477-10-10-10h-.007c-5.523 0-9.996 4.477-9.996 10s4.48 10 10.003 10z"/></g></g></svg>