<svg enable-background="new 0 0 100 100" height="512" viewBox="0 0 100 100" width="512" xmlns="http://www.w3.org/2000/svg"><path d="m94.9981995 84.6336746v3.2605743c0 2.3500977-3.8157349 4.3379745-9.1097641 5.0329056-1.3140259.1768799-2.716507.2695541-4.1779556.2695541-4.1105347 0-7.7830887-.7412567-10.2173996-1.9121017-1.9205017-.918129-3.0702972-2.0973816-3.0702972-3.390358v-3.3145523l.1137238-.0715942 2.8133698-.02948h.2021484c.2063675-.0968857.4253769-.1937485.6486053-.2821732.4000854-.1684723.8296814-.3200912 1.2803268-.463295.3158722-.1010742.6443939-.1937485.9813156-.2779541 2.0805511-.5475388 4.5738297-.8634109 7.2482071-.8634109.214798 0 .4295959 0 .6443939.0042191 2.4301147.0463486 4.6959763.3580017 6.6122665.8549728.3369217.0884247.6570129.1810989.9686661.2779541.0547562.0168686.1052933.0337067.1558304.0505371.3958969.1305618.7749557.2695541 1.1329346.4169769.0758057.0294571.1516113.0631561.2231979.0926437l.6022873-.0042191 2.9017944-.02948z" fill="#f7be56"/><path d="m94.9981995 84.5796967c0 2.7080765-5.0750351 4.9360199-11.6367416 5.2603226-.5391006.0294876-1.0908279.0421295-1.6509781.0421295-4.1105347 0-7.7830887-.7412491-10.2173996-1.9120941-1.9205017-.918129-3.0702972-2.1016006-3.0702972-3.390358 0-.0252686 0-.0505371.0042191-.0715942 0-.1095047.0126419-.214798.033699-.3243027.1052856-.5769882.446434-1.1329269.9855042-1.6467361.1642609-.1558533.3495712-.3116837.5517273-.463295.4253769-.3116531.9265594-.6106873 1.4951477-.8844299.5938263-.2863922 1.2634888-.5433197 1.9963074-.7749557.4548416-.1431808.9349747-.273735 1.4403763-.3958893.4085159-.0968628.8296738-.185318 1.2677002-.2653351 1.6804428-.3032303 3.5461884-.4759216 5.5130157-.4759216.6738739 0 1.3351059.02108 1.9794693.0589752 1.2424393.0758057 2.4259033.2147903 3.5293503.4211578.433815.0758057.8549728.1642609 1.2634888.2611237.5054016.1179352.9897537.2527084 1.4488068.3958893.0547485.0168686.1095047.033699.1600418.0505371.6696625.219017 1.2845459.463295 1.8404846.7286301.5685577.2695312 1.0697403.5643463 1.4909058.8802185.202179.1516113.3874893.3074417.5559387.463295.5391006.5222397.8802414 1.0781784.9855347 1.6635742.0042114.016861.0042114.033699.0084305.0547562.0168378.1052854.0252683.2147978.0252683.3243025z" fill="#fcd462"/><ellipse cx="81.712" cy="84.58" fill="#efb250" rx="10.367" ry="4.137"/><path d="m94.9981995 80.4944077v3.3187714c0 .1305542-.0126495.256897-.033699.3874588-.0042191.016861-.0084305.033699-.0126495.0547562-.5264511 2.5522461-5.5846024 4.5906906-11.9610214 4.8349686-.4211578.0168381-.8507538.0252686-1.2803497.0252686-4.1105347 0-7.7830887-.7454681-10.2173996-1.9120941-1.5709534-.7538757-2.6238632-1.6804428-2.9565735-2.6954346-.033699-.1052856-.0631866-.214798-.0758057-.3243027-.0252686-.1221237-.0379181-.244278-.0379181-.3706207v-3.2791061l.1726913-.1112595 2.7544022-.02948h.2021484c.2695465-.1263428.5517197-.248497.8465424-.3621979.3537903-.1432037.7285995-.2737656 1.1203079-.3958893.3790283-.1179428.7791443-.231636 1.1918716-.3327408 2.0342255-.5053711 4.4306488-.7959747 6.999733-.7959747.8465424 0 1.6762466.0336761 2.4764404.0926437 1.6341171.1221542 3.162941.3664093 4.5232925.703331.4085388.1052933.8044357.214798 1.1792755.3327408.0673752.0210495.1347733.0421066.2021484.0631561.3243027.1052933.6359634.219017.9307785.3369522.1473999.0547562.2863922.1136932.425354.1726685l.6022873-.0042191 2.8596878-.0294876z" fill="#f7be56"/><path d="m94.9981995 80.4944077c0 .724411-.3622208 1.4109116-1.0192337 2.0426559-.5138092.4885406-1.2045212.9434052-2.0468445 1.3519211-.2274246.1052856-.4632721.2105789-.70755.3074646-2.3163986.9518051-5.5172348 1.5540695-9.0760651 1.6004181-.1432114.0042114-.2906036.0042114-.4380264.0042114-3.7314987 0-7.1008072-.6149063-9.5098495-1.6046295-.244278-.0968857-.4801331-.202179-.70755-.3116837-.8423233-.4042969-1.5330429-.85495-2.046875-1.347702-.6612244-.6275558-1.0234222-1.3182449-1.0234222-2.0426559 0-.0252686 0-.0505371.0042191-.0715942 0-.1347733.0168381-.2653351.0463181-.4001083.1305618-.5812073.4969711-1.137146 1.0613403-1.6509476.1473999-.1347809.3074417-.2695541.4843521-.3958969.4337845-.3200912.9476166-.6233139 1.5330124-.9012985.5896378-.2779541 1.2508698-.5306702 1.9710388-.7538681.7370377-.231636 1.5414734-.433815 2.3964233-.6022644.1095047-.016861.2190094-.0379181.3327332-.0589676 1.6635971-.2990341 3.5124893-.4674835 5.4582596-.4674835 1.9415817 0 3.7904663.1684494 5.454071.4674835.1052856.0210495.2105789.0378876.3116531.0589676.0084305 0 .0126495 0 .016861.0041885.85495.1642609 1.6551743.3622208 2.3922043.5980759.0715942.0168381.1389923.0421066.2063675.0631561.6443939.2105789 1.2382202.4422455 1.777298.694931.5854187.2779541 1.1034698.5812073 1.5372543.9012909.1768799.1263504.3369293.2569046.4843521.3958969.5643387.5138092.930748 1.0697479 1.0571213 1.6551666.012619.0463257.0210495.0968628.0252686.1431808.0168378.1052933.0252683.2105866.0252683.3200913z" fill="#fcd462"/><ellipse cx="81.712" cy="80.497" fill="#efb250" rx="10.367" ry="4.137"/><path d="m94.9981995 76.2490768v3.3145752c0 .1558304-.016861.3116608-.0505371.4674835-.0126495.0463257-.02108.0926437-.0379181.1431808-.1937408.678093-.70755 1.3182449-1.4867172 1.8994522-.5348587.3958969-1.1960907.7665176-1.9626083 1.0950394-.4674835.2021484-.9771042.3916779-1.5246124.5601273-2.1647797.6865005-4.8770752 1.103447-7.8294296 1.137146-.1305618.0042191-.2611237.0042191-.3958969.0042191-3.1081848 0-5.9678802-.4253769-8.2295227-1.137146-.5432892-.1726685-1.0486908-.3621979-1.5161743-.5643463-.1642609-.0716171-.3200912-.1432037-.4717026-.214798-.5685883-.2737656-1.0739899-.5685806-1.4951477-.8802414-.6822815-.5095901-1.1623917-1.0655289-1.4024582-1.6509552-.0547562-.1305542-.0968857-.2653351-.1221542-.4001083-.0336761-.1516113-.0505371-.3032227-.0505371-.459053v-3.2834244l.1221542-.1027451 2.8049393-.02948h.2021484c.214798-.1010742.4380264-.2021561.6738739-.2948227.5348587-.2189865 1.116066-.4169464 1.7394104-.5938263.1726608-.0547562.3537598-.1010742.5348587-.1473999 2.0763321-.5391006 4.548584-.8507538 7.2103119-.8507538 2.6112137 0 5.0539551.3032227 7.1092377.8254852.0379181.0084076.0716171.0168381.1052933.0252686.1769028.0505371.3537827.0968628.5222321.1431808.219017.0631866.433815.1305618.6443939.1979599.3832474.1263428.7496872.2569046 1.0992279.4043045.0884552.033699.1726913.0673981.2569046.1052856l.6022873-.0042114 2.8976059-.0294647z" fill="#f7be56"/><path d="m94.9981995 76.2490768c0 .7538986-.3958969 1.4740677-1.1076584 2.1268921-.5138321.4674835-1.1961212.9054871-2.017395 1.2929764-.2695236.1263428-.5517197.2484741-.8507309.3664093-.3453522.1347504-.70755.261116-1.0908203.3790283-.8296814.2611237-1.7394104.4843521-2.716507.661232-1.4066696.2569046-2.9439316.4169464-4.5653992.4590759-.3074646.0126266-.6233368.0168381-.939209.0168381-1.9626083 0-3.8241425-.1684723-5.5003891-.475914-.9771042-.1726685-1.8868027-.3958969-2.7207031-.661232-.3790588-.1179123-.7454681-.244278-1.0908203-.3832474-.2948227-.1137161-.5769958-.2358475-.8423309-.3621902-.0210495-.0084305-.0421066-.02108-.0631561-.0294876-.7960052-.3790588-1.4572372-.8044357-1.9584198-1.2677002-.7159805-.648613-1.1118774-1.368782-1.1118774-2.1226807 0-.0252686 0-.0505371.0042191-.0715942 0-.1137238.0126419-.2231979.033699-.3369217.1095047-.5769958.454834-1.1329346.9981537-1.6467361.214798-.206398.4674835-.4043274.7454681-.5938568.3790283-.2653351.8128433-.5138092 1.2971649-.7454681.7201996-.3453293 1.5498734-.6527939 2.4680099-.9139175.9055099-.261116 1.8994522-.475914 2.9607849-.6401749 1.4825058-.227417 3.0955429-.3537598 4.7801971-.3537598s3.2934952.1263428 4.776001.3537598c1.0613403.1642609 2.059494.3790588 2.9691925.6401749.219017.0631866.4295959.1263428.6359634.1937485.6654434.2189865 1.2803268.459053 1.8320541.7243881.4843445.2316284.9181519.475914 1.2971878.7412491.2779846.1895294.5264511.3916779.7454681.5938568.1095047.1094742.2105789.2147675.3074417.3242722.3664093.4253845.6022568.8718109.6864929 1.3393021v.0084305c.0084305.0210495.0126495.0421066.0126495.063179.0168383.1052931.0252688.2105863.0252688.3200681z" fill="#fcd462"/><ellipse cx="81.712" cy="76.251" fill="#efb250" rx="10.367" ry="4.137"/><path d="m94.9981995 72.0350952v3.4222183c0 .1347504-.0126495.2695236-.0379181.4000854v.0084305c-.0042114.0210495-.0084305.0421066-.012619.063179-.1642609.7370377-.7033615 1.4277267-1.5414734 2.0510635-.5348816.3958969-1.1960907.7623062-1.9626083 1.086586-.475914.2063904-.9981537.3958969-1.5540924.5685883-.446434.1431808-.9139404.2695465-1.4067001.3832474-1.1539841.2737656-2.4216843.4801331-3.7694168.6022568-.5727692.0547562-1.1581955.0926666-1.7562408.1137238-.4127274.0168381-.8254852.0252686-1.2466507.0252686-1.0360489 0-2.0468445-.0463257-3.0155182-.1389923-1.3435135-.1221237-2.6112213-.3284912-3.7651978-.6022568-.4927597-.1179123-.9602661-.2442627-1.4108887-.3832474-.5475311-.1726913-1.0655594-.3621979-1.5372543-.5643692-.1684799-.0758133-.3327103-.1473999-.4885406-.2232056-.5601578-.2695541-1.0529099-.5601578-1.4740677-.8718109-.7454681-.5433197-1.2550888-1.1539841-1.4740753-1.798378-.0379181-.1095047-.0673981-.2231979-.0842361-.3369217-.0252686-.1263428-.0379181-.2526932-.0379181-.3832474v-3.3861694h.0042191l.2948151-.0042191 2.6280594-.0252686h.2021484c.3706207-.1768799.7749481-.3411407 1.2003326-.4969711.73703-.2695465 1.5540924-.5095901 2.4300919-.703331 1.2887573-.2948227 2.7122879-.5011902 4.2284927-.6064758.1052933-.0084305.214798-.0168381.3242798-.0210571.3706284-.0210495.7496796-.0379105 1.1329269-.0463486.1095123-.0041885.219017-.0084.3285217-.0084.1347733-.0042191.2737656-.0042191.412735-.0042191h.3243027c.3832474.0042191.7623062.012619 1.137146.0294876.1095047.0042114.2189865.0084305.3284912.012619 1.7436218.0884552 3.377739.3116837 4.8433762.6443939.6528015.1473923 1.2719269.3158722 1.8489151.5011826.197937.0673752.3916779.1347733.5769958.2063675.2695465.0926437.5306702.197937.7791367.3032227l.6022873-.0041885 2.7712326-.02948z" fill="#f7be56"/><path d="m95 72.1423645c0 2.9300232-5.950325 5.3032074-13.2894058 5.3032074-4.1097488 0-7.7842712-.7437744-10.2195587-1.9131317-1.9170074-.9187775-3.0698547-2.1000671-3.0698547-3.3900757 0-2.9286957 5.950325-5.3032074 13.2894135-5.3032074 3.1761627 0 6.0932007.4454727 8.3789597 1.1892471 2.996765.9704819 4.910446 2.4527283 4.910446 4.1139603z" fill="#fcd462"/><ellipse cx="81.712" cy="72.143" fill="#efb250" rx="10.367" ry="4.137"/><path d="m91.4479675 67.3421173c-.4234619-.1817322-.8751144-.3528748-1.3584213-.5093842-2.285759-.7437744-5.2027969-1.1892395-8.3789597-1.1892395-4.074913 0-7.7196655.7327423-10.1574936 1.8852005l-3.1319199.0293884v3.3886185c0 1.2900085 1.1528473 2.4713058 3.0698547 3.3900833 2.4352875 1.1693497 6.1098099 1.9131241 10.2195587 1.9131241 7.3390808 0 13.2894058-2.3731918 13.2894058-5.3032074v-3.2289886z" fill="#f7be56"/><path d="m95 67.6310196c0 2.9300156-5.950325 5.3031998-13.2894058 5.3031998-4.1097488 0-7.7842712-.7437668-10.2195587-1.9131241-1.9170074-.9187851-3.0698547-2.1000748-3.0698547-3.3900757 0-2.9287033 5.950325-5.3032112 13.2894135-5.3032112 3.1761627 0 6.0932007.4454689 8.3789597 1.1892395 2.996765.9704933 4.910446 2.4527321 4.910446 4.1139717z" fill="#fcd462"/><ellipse cx="81.712" cy="67.632" fill="#efb250" rx="10.367" ry="4.137"/><path d="m86.4949112 67.8889923c-.2063904-.1052856-.463295-.1979294-.7749481-.2695465-.231636-.0547562-.4927521-.0968628-.7791443-.1305618.4717026-.0968552.8338928-.214798 1.0907974-.3579788.0294876-.016861.0547562-.033699.0800247-.0505371.2569046-.1642609.3874588-.3453598.3874588-.5348816 0-.2021561-.1473923-.400116-.4379959-.5854263-.0168381-.0084076-.033699-.0210571-.0505371-.0294876-.2863922-.1726608-.673851-.2990036-1.1582031-.3874588-.3874588-.0673752-.8718109-.1095047-1.4530182-.1263428v-.5517273h-1.4656372v.5432968h-.7370377v-.5432968h-1.4614487v.5432968h-2.253212v.5222321h1.149765v3.394577h-1.149765v.5264511h2.253212v.5475388h1.4614487v-.5475388h.7370377v.5475388h1.4656372v-.5517273c.4843521-.0084305.909729-.033699 1.2761383-.0716171.4843216-.0463181.892868-.1221237 1.2171707-.2189865.3200607-.0968857.5938263-.2358475.8128433-.4127579.2147675-.1684494.3242722-.3537598.3327026-.5517197v-.0294876c.0000001-.2569047-.1810912-.4801026-.5432891-.6738511zm-6.389061-1.9542007h2.2237549c.8001938 0 1.364563.0210495 1.6930847.0631866.3284912.0378876.5811768.1137161.7580872.227417.1768799.1137238.2695465.244278.2695465.3916779 0 .1474228-.0884476.2695541-.2569275.3706284-.0084076.0042114-.0210495.0126419-.02948.016861-.1895065.1010742-.4717026.1768799-.8465195.2189865-.2316589.0294876-.5938568.0463486-1.0739899.0463486-.193718.0041885-.4127274.0041885-.6570129.0041885h-2.0805435zm0 3.3903579v-1.5246048h2.5733261c.70755 0 1.2508392.0252686 1.6298981.0716095.227417.0336761.4211655.0758057.5896149.1305618.1137238.0378876.2105789.0800247.2948151.1305618.0758057.0463181.1389923.0926437.1895294.1431808.0884552.0884552.1305618.1810989.1305618.2863846 0 .1432114-.0758057.2653351-.2232285.3748474-.1431808.1095047-.3327103.1895218-.5601273.248497-.2316589.0547485-.5096207.0968552-.8507614.1221237-.1347733.0084305-.3327103.0126495-.6022568.0126495-.185318.0041885-.4253845.0041885-.7244186.0041885h-2.4469528z" fill="#cc903a"/><path d="m86.7096863 68.5207367c-.0168381-.2400665-.2021484-.4464264-.5390778-.6317444-.2063675-.1052856-.4674835-.1979294-.7749481-.2695465-.231636-.0547562-.4927597-.0968628-.7791443-.1305618.509613-.1010742.888649-.231636 1.149765-.3958969.0084305-.0042114.0126495-.0084.02108-.012619.2569046-.1642609.3832474-.3453598.3832474-.5348816 0-.2021561-.1432037-.400116-.4338074-.5854263-.0463257-.0294876-.0968628-.0589447-.1473999-.0842133-.2779541-.1432037-.6275253-.2527161-1.0613403-.3327332-.3874588-.0673752-.8718109-.1095047-1.4572067-.1263428v-.5517273h-1.4614487v.5432968h-.7412567v-.5432968h-1.4572067v.5432968h-2.2574234v.5222321h1.1539764v3.394577h-1.1539764v.5264511h2.2574234v.5475388h1.4572067v-.5475388h.7412567v.5475388h1.4614487v-.5517273c.4885406-.0084305.9139175-.033699 1.2761078-.0716171.4885635-.0463181.8970795-.1221237 1.2171707-.2189865.3243027-.0968857.5980453-.2358475.8170547-.4127579.219017-.1768799.3327103-.3706207.3327103-.5812073 0-.012619 0-.0294571-.0042114-.0421066zm-6.9281159-2.5859451h2.2237244c.8002243 0 1.3645706.0210495 1.6888733.0631866.3327103.0378876.5854187.1137161.7623062.227417.1768799.1137238.2653351.244278.2653351.3916779 0 .1347733-.0673752.248497-.2105865.3411407-.0210495.016861-.0463181.033699-.0715866.0463486-.1937485.1010742-.4717026.1768799-.8465424.2189865-.1768799.0252686-.4295959.0379181-.7496872.0463486-.193718.0041885-.4127274.0041885-.6570129.0041885h-2.4048233v-1.3392944zm2.7712326 3.3903579h-2.7712326v-1.5246048h2.5733032c.70755 0 1.2508392.0252686 1.6298981.0716095.2232285.0336761.4169464.0758057.5896378.1305618.1094818.0378876.2063675.0800247.2947922.1305618.0463486.02948.0884552.0547485.1263733.0884247.1263428.1011047.193718.214798.193718.3411407 0 .1432114-.0800247.2653351-.2232056.3748474-.1474228.1095047-.3327332.1895218-.5643692.248497-.227417.0547485-.5095901.0968552-.8465424.1221237-.0715942.0042191-.1642303.0084305-.2779541.0126495-.185318.0041887-.4253845.0041887-.7244187.0041887z" fill="#fcd462"/><path d="m94.9981995 63.3412857v3.3145523c0 2.3500977-3.8157349 4.3379745-9.1097641 5.0329056-1.3140259.1768799-2.716507.2695465-4.1779556.2695465-4.1105347 0-7.7830887-.7412491-10.2173996-1.9120941-1.9205017-.918129-3.0702972-2.0973816-3.0702972-3.390358v-3.3145523l.1137238-.0715904 2.8133698-.0294876h.2021484c.2063675-.0968819.4253769-.1937408.6486053-.2821693.4000854-.1684761.8296814-.3200874 1.2803268-.463295.3158722-.1010742.6443939-.1937447.9813156-.2779579 2.0805511-.5475311 4.5738297-.8634033 7.2482071-.8634033.214798 0 .4295959 0 .6443939.0042152 2.4301147.0463448 4.6959763.3580017 6.6122665.8549728.3369217.0884285.6570129.1810989.9686661.2779579.0547562.016861.1052933.033699.1558304.0505371.3958969.130558.7749557.2695503 1.1329346.4169731.0758057.0294571.1516113.0631599.2231979.0926437l.6022873-.0042152 2.9017944-.0294876z" fill="#f7be56"/><path d="m94.9981995 63.3412857c0 2.7080765-5.0750351 4.9360199-11.6367416 5.2603226-.5391006.0294876-1.0908279.0421295-1.6509781.0421295-4.1105347 0-7.7830887-.7412491-10.2173996-1.9120941-1.9205017-.9181366-3.0702972-2.1016006-3.0702972-3.390358 0-.0252686 0-.0505371.0042191-.0715904 0-.1095085.0126419-.214798.033699-.3243065.1052856-.576992.446434-1.1329269.9855042-1.6467361.1642609-.1558533.3495712-.3116837.5517273-.463295.4253769-.311657.9265594-.6106911 1.4951477-.8844337.5938263-.2863846 1.2634888-.5433159 1.9963074-.7749481.4548416-.1431847.9349747-.2737427 1.4403763-.3958969.4085159-.096859.8296738-.1853104 1.2677002-.2653351 1.6804428-.3032227 3.5461884-.475914 5.5130157-.475914.6738739 0 1.3351059.0210762 1.9794693.0589676 1.2424393.0758057 2.4259033.214798 3.5293503.4211617.433815.0758095.8549728.1642609 1.2634888.2611198.5054016.117939.9897537.2527122 1.4488068.3958969.0547485.016861.1095047.033699.1600418.0505371.6696625.2190132 1.2845459.463295 1.8404846.7286301.5685577.2695236 1.0697403.5643425 1.4909058.8802147.202179.1516113.3874893.3074417.5559387.463295.5391006.5222397.8802414 1.0781784.9855347 1.6635742.0042114.0168648.0042114.033699.0084305.0547523.0168378.1052932.0252683.2147979.0252683.3243064z" fill="#fcd462"/><ellipse cx="81.712" cy="63.342" fill="#efb250" rx="10.367" ry="4.137"/><path d="m94.9981995 59.2365456v3.3382187c0 .130558-.0126495.2569046-.033699.3874626-.0042191.0168648-.0084305.033699-.0126495.0547523-.5264511 2.5522499-5.5846024 4.5906944-11.9610214 4.8349724-.4211578.0168381-.8507538.0252686-1.2803497.0252686-4.1105347 0-7.7830887-.7454681-10.2173996-1.9120941-1.5709534-.7538757-2.6238632-1.6804428-2.9565735-2.6954308-.033699-.1052933-.0631866-.214798-.0758057-.3243065-.0252686-.1221275-.0379181-.2442818-.0379181-.3706245v-3.2590561l.1726913-.1313019 2.7544022-.0294838h.2021484c.2695465-.1263466.5517197-.2485008.8465424-.3621941.3537903-.1432076.7285995-.2737694 1.1203079-.3958969.3790283-.117939.7791443-.2316322 1.1918716-.3327332 2.0342255-.5053787 4.4306488-.7959824 6.999733-.7959824.8465424 0 1.6762466.0336761 2.4764404.0926437 1.6341171.1221542 3.162941.3664131 4.5232925.7033386.4085388.1052895.8044357.2147942 1.1792755.3327332.0673752.0210533.1347733.0421066.2021484.0631599.3243027.1052895.6359634.2190132.9307785.3369522.1473999.0547523.2863922.1136971.425354.1726646l.6022873-.0042152 2.8596878-.0294838z" fill="#f7be56"/><path d="m94.9981995 59.2559967c0 .7244148-.3622208 1.4109116-1.0192337 2.0426559-.5138092.4885368-1.2045212.9434013-2.0468445 1.3519173-.2274246.1052933-.4632721.2105827-.70755.3074684-2.3163986.9518051-5.5172348 1.5540695-9.0760651 1.6004105-.1432114.0042191-.2906036.0042191-.4380264.0042191-3.7314987 0-7.1008072-.6149063-9.5098495-1.6046295-.244278-.0968857-.4801331-.2021751-.70755-.3116837-.8423233-.4043007-1.5330429-.8549461-2.046875-1.347702-.6612244-.6275558-1.0234222-1.3182411-1.0234222-2.0426559 0-.0252686 0-.0505371.0042191-.0715904 0-.1347771.0168381-.2653351.0463181-.4001122.1305618-.5812073.4969711-1.137146 1.0613403-1.6509514.1473999-.1347771.3074417-.2695503.4843521-.3958931.4337845-.3200912.9476166-.6233139 1.5330124-.9012985.5896378-.2779541 1.2508698-.5306702 1.9710388-.7538719.7370377-.231636 1.5414734-.4338112 2.3964233-.6022606.1095047-.016861.2190094-.0379143.3327332-.0589676 1.6635971-.2990341 3.5124893-.4674873 5.4582596-.4674873 1.9415817 0 3.7904663.1684532 5.454071.4674873.1052856.0210533.2105789.0378876.3116531.0589676.0084305 0 .0126495 0 .016861.0041924.85495.164257 1.6551743.3622169 2.3922043.5980682.0715942.0168381.1389923.0421066.2063675.0631599.6443939.2105827 1.2382202.4422417 1.777298.694931.5854187.2779541 1.1034698.5812073 1.5372543.9012947.1768799.1263428.3369293.2569008.4843521.3958931.5643387.5138054.930748 1.0697441 1.0571213 1.6551704.012619.0463219.0210495.096859.0252686.1431808.0168378.1052895.0252683.210579.0252683.3200875z" fill="#fcd462"/><ellipse cx="81.712" cy="59.258" fill="#efb250" rx="10.367" ry="4.137"/><path d="m94.9981995 55.0417328v3.2835083c0 .1558304-.016861.311657-.0505371.4674873-.0126495.0463219-.02108.0926437-.0379181.1431808-.1937408.6780891-.70755 1.3182411-1.4867172 1.8994484-.5348587.3958931-1.1960907.7665215-1.9626083 1.0950394-.4674835.2021523-.9771042.3916779-1.5246124.5601311-2.1647797.6864967-4.8770752 1.1034431-7.8294296 1.137146-.1305618.0042152-.2611237.0042152-.3958969.0042152-3.1081848 0-5.9678802-.4253807-8.2295227-1.137146-.5432892-.1726685-1.0486908-.3621941-1.5161743-.5643463-.1642609-.0716171-.3200912-.1432076-.4717026-.214798-.5685883-.2737656-1.0739899-.5685844-1.4951477-.8802414-.6822815-.5095901-1.1623917-1.0655289-1.4024582-1.6509514-.0547562-.1305618-.0968857-.2653351-.1221542-.4001122-.0336761-.1516113-.0505371-.3032227-.0505371-.459053v-3.314579l.1221542-.0715904 2.8049393-.0294838h.2021484c.214798-.1010742.4380264-.2021484.6738739-.2948189.5348587-.2189865 1.116066-.4169464 1.7394104-.5938301.1726608-.0547523.3537598-.1010742.5348587-.1473961 2.0763321-.5391006 4.548584-.8507576 7.2103119-.8507576 2.6112137 0 5.0539551.3032265 7.1092377.825489.0379181.0084076.0716171.0168381.1052933.0252686.1769028.0505371.3537827.096859.5222321.1431808.219017.0631866.433815.1305618.6443939.1979599.3832474.1263428.7496872.2569046 1.0992279.4043007.0884552.033699.1726913.0674019.2569046.1052895l.6022873-.0042152 2.8976059-.0294571z" fill="#f7be56"/><path d="m94.9981995 55.0106621c0 .7538986-.3958969 1.4740715-1.1076584 2.1268959-.5138321.4674835-1.1961212.9054871-2.017395 1.2929764-.2695236.1263428-.5517197.2484703-.8507309.3664093-.3453522.1347466-.70755.2611198-1.0908203.3790321-.8296814.261116-1.7394104.4843445-2.716507.6612282-1.4066696.2569046-2.9439316.4169464-4.5653992.4590797-.3074646.012619-.6233368.0168343-.939209.0168343-1.9626083 0-3.8241425-.1684723-5.5003891-.475914-.9771042-.1726646-1.8868027-.3958969-2.7207031-.6612282-.3790588-.1179123-.7454681-.2442856-1.0908203-.3832474-.2948227-.1137238-.5769958-.2358513-.8423309-.3621941-.0210495-.0084343-.0421066-.02108-.0631561-.0294876-.7960052-.379055-1.4572372-.8044357-1.9584198-1.267704-.7159805-.6486092-1.1118774-1.368782-1.1118774-2.1226807 0-.0252686 0-.0505371.0042191-.0715904 0-.1137199.0126419-.2232018.033699-.3369255.1095047-.576992.454834-1.1329308.9981537-1.6467361.214798-.2063904.4674835-.4043274.7454681-.593853.3790283-.2653351.8128433-.5138092 1.2971649-.7454681.7201996-.3453331 1.5498734-.6527977 2.4680099-.9139175.9055099-.2611198 1.8994522-.4759178 2.9607849-.6401749 1.4825058-.2274208 3.0955429-.3537636 4.7801971-.3537636s3.2934952.1263428 4.776001.3537636c1.0613403.164257 2.059494.379055 2.9691925.6401749.219017.0631866.4295959.1263428.6359634.1937447.6654434.2189865 1.2803268.459053 1.8320541.7243881.4843445.231636.9181519.4759178 1.2971878.7412529.2779846.1895256.5264511.3916779.7454681.593853.1095047.1094818.2105789.2147713.3074417.3242798.3664093.4253769.6022568.8718109.6864929 1.3392944v.0084305c.0084305.0210533.0126495.0421066.0126495.0631866.0168383.1052894.0252688.2105827.0252688.3200607z" fill="#fcd462"/><ellipse cx="81.712" cy="55.012" fill="#efb250" rx="10.367" ry="4.137"/><path d="m94.9981995 50.9039574v3.3149414c0 .1347504-.0126495.2695274-.0379181.4000854v.0084305c-.0042114.0210533-.0084305.0421066-.012619.0631866-.1642609.7370338-.7033615 1.4277229-1.5414734 2.0510635-.5348816.3958931-1.1960907.7623024-1.9626083 1.0865822-.475914.2063904-.9981537.3958931-1.5540924.5685844-.446434.1431808-.9139404.2695503-1.4067001.3832474-1.1539841.2737656-2.4216843.4801331-3.7694168.6022606-.5727692.0547523-1.1581955.0926704-1.7562408.1137238-.4127274.0168381-.8254852.0252686-1.2466507.0252686-1.0360489 0-2.0468445-.0463219-3.0155182-.1389923-1.3435135-.1221275-2.6112213-.328495-3.7651978-.6022606-.4927597-.1179123-.9602661-.2442551-1.4108887-.3832474-.5475311-.1726913-1.0655594-.3621941-1.5372543-.5643692-.1684799-.0758057-.3327103-.1473961-.4885406-.2232018-.5601578-.2695503-1.0529099-.560154-1.4740677-.8718109-.7454681-.5433197-1.2550888-1.1539841-1.4740753-1.798378-.0379181-.1095047-.0673981-.2232018-.0842361-.3369255-.0252686-.1263428-.0379181-.2526855-.0379181-.3832474v-3.3233719l.0042191-.0627975.2948151-.0042152 2.6280594-.0252686h.2021484c.3706207-.1768799.7749481-.3411407 1.2003326-.4969673.73703-.2695503 1.5540924-.509594 2.4300919-.7033348 1.2887573-.2948227 2.7122879-.5011864 4.2284927-.6064796.1052933-.0084305.214798-.0168343.3242798-.0210495.3706284-.0210533.7496796-.0379181 1.1329269-.0463486.1095123-.0041924.219017-.0084076.3285217-.0084076.1347733-.0042152.2737656-.0042152.412735-.0042152h.3243027c.3832474.0042152.7623062.0126228 1.137146.0294838.1095047.0042152.2189865.0084343.3284912.0126228 1.7436218.0884552 3.377739.3116837 4.8433762.6443939.6528015.1473961 1.2719269.3158722 1.8489151.5011826.197937.0673752.3916779.1347771.5769958.2063675.2695465.0926437.5306702.1979332.7791367.3032265l.6022873-.0041924 2.7712326-.0294838z" fill="#f7be56"/><path d="m95 50.9039574c0 2.9300156-5.950325 5.3032036-13.2894058 5.3032036-4.1097488 0-7.7842712-.7437706-10.2195587-1.9131279-1.9170074-.9187813-3.0698547-2.1000748-3.0698547-3.3900757 0-2.9286995 5.950325-5.3032074 13.2894135-5.3032074 3.1761627 0 6.0932007.4454651 8.3789597 1.1892395 2.996765.9704895 4.910446 2.4527321 4.910446 4.1139679z" fill="#fcd462"/><ellipse cx="81.712" cy="50.905" fill="#efb250" rx="10.367" ry="4.137"/><path d="m91.4479675 46.1037064c-.4234619-.1817284-.8751144-.3528748-1.3584213-.5093803-2.285759-.7437782-5.2027969-1.1892471-8.3789597-1.1892471-4.074913 0-7.7196655.7327461-10.1574936 1.8852081l-3.1319199.0293808v3.3886223c0 1.2900047 1.1528473 2.471302 3.0698547 3.3900795 2.4352875 1.1693535 6.1098099 1.9131317 10.2195587 1.9131317 7.3390808 0 13.2894058-2.3731995 13.2894058-5.3032112v-3.3156853z" fill="#f7be56"/><path d="m95 46.3926048c0 2.9300194-5.950325 5.3032074-13.2894058 5.3032074-4.1097488 0-7.7842712-.7437744-10.2195587-1.9131317-1.9170074-.9187775-3.0698547-2.1000748-3.0698547-3.3900757 0-2.9286995 5.950325-5.3032074 13.2894135-5.3032074 3.1761627 0 6.0932007.4454689 8.3789597 1.1892395 2.996765.9704895 4.910446 2.4527359 4.910446 4.1139679z" fill="#fcd462"/><ellipse cx="81.712" cy="46.393" fill="#efb250" rx="10.367" ry="4.137"/><path d="m86.4949112 46.6505814c-.2063904-.1052895-.463295-.1979332-.7749481-.2695503-.231636-.0547523-.4927521-.096859-.7791443-.130558.4717026-.096859.8338928-.214798 1.0907974-.3579788.0294876-.016861.0547562-.033699.0800247-.0505371.2569046-.1642609.3874588-.345356.3874588-.5348854 0-.2021523-.1473923-.4001122-.4379959-.5854225-.0168381-.0084076-.033699-.0210533-.0505371-.0294838-.2863922-.1726685-.673851-.2990112-1.1582031-.3874626-.3874588-.0673752-.8718109-.1095085-1.4530182-.1263466v-.5517235h-1.4656372v.543293h-.7370377v-.543293h-1.4614487v.543293h-2.253212v.5222397h1.149765v3.3945732h-1.149765v.5264549h2.253212v.5475311h1.4614487v-.5475311h.7370377v.5475311h1.4656372v-.5517235c.4843521-.0084305.909729-.033699 1.2761383-.0716133.4843216-.0463219.892868-.1221313 1.2171707-.2189903.3200607-.0968819.5938263-.2358475.8128433-.4127579.2147675-.1684494.3242722-.3537598.3327026-.5517197v-.0294876c.0000001-.2569008-.1810912-.4801064-.5432891-.673851zm-6.389061-1.9542008h2.2237549c.8001938 0 1.364563.0210533 1.6930847.0631828.3284912.0378914.5811768.1137238.7580872.2274208.1768799.1137199.2695465.2442818.2695465.3916779 0 .1474228-.0884476.2695503-.2569275.3706245-.0084076.0042152-.0210495.0126495-.02948.0168648-.1895065.1010742-.4717026.1768799-.8465195.2189865-.2316589.0294838-.5938568.0463486-1.0739899.0463486-.193718.0041885-.4127274.0041885-.6570129.0041885h-2.0805435zm0 3.390358v-1.5246086h2.5733261c.70755 0 1.2508392.0252686 1.6298981.0716171.227417.0336723.4211655.0758057.5896149.130558.1137238.0378914.2105789.0800209.2948151.1305618.0758057.0463181.1389923.0926399.1895294.1431808.0884552.0884514.1305618.1810951.1305618.2863846 0 .1432076-.0758057.2653351-.2232285.3748436-.1431808.1095047-.3327103.1895294-.5601273.248497-.2316589.0547523-.5096207.096859-.8507614.1221275-.1347733.0084305-.3327103.0126495-.6022568.0126495-.185318.0041885-.4253845.0041885-.7244186.0041885h-2.4469528z" fill="#cc903a"/><path d="m86.7096863 47.2823296c-.0168381-.2400665-.2021484-.446434-.5390778-.6317482-.2063675-.1052895-.4674835-.1979332-.7749481-.2695503-.231636-.0547523-.4927597-.096859-.7791443-.130558.509613-.1010742.888649-.231636 1.149765-.3958931.0084305-.0042152.0126495-.0084076.02108-.0126228.2569046-.1642609.3832474-.345356.3832474-.5348854 0-.2021523-.1432037-.4001122-.4338074-.5854225-.0463257-.0294838-.0968628-.0589447-.1473999-.0842133-.2779541-.1432076-.6275253-.2527122-1.0613403-.3327332-.3874588-.0673752-.8718109-.1095085-1.4572067-.1263466v-.5517235h-1.4614487v.543293h-.7412567v-.543293h-1.4572067v.543293h-2.2574234v.5222397h1.1539764v3.3945732h-1.1539764v.5264549h2.2574234v.5475311h1.4572067v-.5475311h.7412567v.5475311h1.4614487v-.5517235c.4885406-.0084305.9139175-.033699 1.2761078-.0716133.4885635-.0463219.8970795-.1221313 1.2171707-.2189903.3243027-.0968819.5980453-.2358475.8170547-.4127579.219017-.1768799.3327103-.3706245.3327103-.5812073 0-.0126189 0-.029457-.0042114-.0421027zm-6.9281159-2.585949h2.2237244c.8002243 0 1.3645706.0210533 1.6888733.0631828.3327103.0378914.5854187.1137238.7623062.2274208.1768799.1137199.2653351.2442818.2653351.3916779 0 .1347771-.0673752.248497-.2105865.3411407-.0210495.0168648-.0463181.033699-.0715866.0463486-.1937485.1010742-.4717026.1768799-.8465424.2189865-.1768799.0252686-.4295959.0379143-.7496872.0463486-.193718.0041885-.4127274.0041885-.6570129.0041885h-2.4048233v-1.3392944zm2.7712326 3.390358h-2.7712326v-1.5246086h2.5733032c.70755 0 1.2508392.0252686 1.6298981.0716171.2232285.0336723.4169464.0758057.5896378.130558.1094818.0378914.2063675.0800209.2947922.1305618.0463486.0294838.0884552.0547523.1263733.0884247.1263428.1011009.193718.214798.193718.3411407 0 .1432076-.0800247.2653351-.2232056.3748436-.1474228.1095047-.3327332.1895294-.5643692.248497-.227417.0547523-.5095901.096859-.8465424.1221275-.0715942.0042152-.1642303.0084305-.2779541.0126495-.185318.0041887-.4253845.0041887-.7244187.0041887z" fill="#fcd462"/><path d="m77.236084 6.8032947-17.3222961 9.0941334 7.6030884 3.4269953c-20.3112908 36.613294-56.6179362 33.3112806-58.9038726 33.0664076v7.8333359c.7269964.0467491 1.8214664.0960426 3.2469168.0960426 11.5671444 0 43.9923401-3.2813416 62.8072624-37.7729607l7.3594894 3.3172779z" fill="#4d5c7d"/><path d="m63.2876129 84.6336746v3.2605743c0 2.3500977-3.8157387 4.3379745-9.1097641 5.0329056-1.3140259.1768799-2.716507.2695541-4.1779594.2695541-4.1105309 0-7.7830849-.7412567-10.2173958-1.9121017-1.9205055-.918129-3.0702972-2.0973816-3.0702972-3.390358v-3.3145523l.1137238-.0715942 2.8133659-.02948h.2021484c.2063675-.0968857.4253807-.1937485.6486092-.2821732.4000854-.1684723.8296776-.3200912 1.2803268-.463295.3158722-.1010742.6443939-.1937485.9813194-.2779541 2.0805473-.5475388 4.5738258-.8634109 7.2481995-.8634109.214798 0 .4295959 0 .6443939.0042191 2.4301186.0463486 4.6959801.3580017 6.6122665.8549728.3369255.0884247.6570168.1810989.9686737.2779541.0547523.0168686.1052895.0337067.1558266.0505371.3958931.1305618.7749519.2695541 1.1329308.4169769.0758057.0294571.1516113.0631561.2232018.0926437l.6022873-.0042191 2.9017944-.02948z" fill="#f7be56"/><path d="m63.2876129 84.5796967c0 2.7080765-5.0750389 4.9360199-11.6367416 5.2603226-.5391045.0294876-1.0908241.0421295-1.6509819.0421295-4.1105309 0-7.7830849-.7412491-10.2173958-1.9120941-1.9205055-.918129-3.0702972-2.1016006-3.0702972-3.390358 0-.0252686 0-.0505371.0042152-.0715942 0-.1095047.0126457-.214798.033699-.3243027.1052933-.5769882.446434-1.1329269.985508-1.6467361.1642609-.1558533.349575-.3116837.5517235-.463295.4253807-.3116531.9265633-.6106873 1.4951515-.8844299.5938263-.2863922 1.2634888-.5433197 1.9963074-.7749557.4548378-.1431808.9349709-.273735 1.4403725-.3958893.4085159-.0968628.8296776-.185318 1.267704-.2653351 1.680439-.3032303 3.5461884-.4759216 5.5130119-.4759216.6738777 0 1.3351097.02108 1.9794731.0589752 1.2424393.0758057 2.4259071.2147903 3.5293503.4211578.4338112.0758057.8549728.1642609 1.2634888.2611237.5054016.1179352.9897499.2527084 1.4488029.3958893.0547562.0168686.1095085.033699.1600456.0505371.6696625.219017 1.2845421.463295 1.8404808.7286301.5685616.2695312 1.0697441.5643463 1.4909096.8802185.2021751.1516113.3874893.3074417.5559387.463295.5391006.5222397.8802414 1.0781784.9855309 1.6635742.0042191.016861.0042191.033699.0084343.0547562.016838.1052854.0252685.2147978.0252685.3243025z" fill="#fcd462"/><ellipse cx="50.001" cy="84.58" fill="#efb250" rx="10.367" ry="4.137"/><path d="m63.2876129 80.4944077v3.3187714c0 .1305542-.0126495.256897-.0337029.3874588-.0042152.016861-.0084305.033699-.0126457.0547562-.5264549 2.5522461-5.5846024 4.5906906-11.9610214 4.8349686-.4211617.0168381-.8507576.0252686-1.2803535.0252686-4.1105309 0-7.7830849-.7454681-10.2173958-1.9120941-1.5709572-.7538757-2.623867-1.6804428-2.9565735-2.6954346-.0337029-.1052856-.0631866-.214798-.0758095-.3243027-.0252686-.1221237-.0379143-.244278-.0379143-.3706207v-3.2791061l.1726913-.1112595 2.7543983-.02948h.2021484c.2695503-.1263428.5517235-.248497.8465424-.3621979.3537903-.1432037.7286072-.2737656 1.1203117-.3958893.3790283-.1179428.7791405-.231636 1.1918716-.3327408 2.0342255-.5053711 4.430645-.7959747 6.9997292-.7959747.8465424 0 1.6762505.0336761 2.4764442.0926437 1.6341133.1221542 3.162941.3664093 4.5232887.703331.4085426.1052933.8044357.214798 1.1792793.3327408.0673714.0210495.1347733.0421066.2021484.0631561.3243027.1052933.6359596.219017.9307785.3369522.1473999.0547562.2863884.1136932.425354.1726685l.6022873-.0042191 2.8596878-.0294876z" fill="#f7be56"/><path d="m63.2876129 80.4944077c0 .724411-.3622208 1.4109116-1.0192337 2.0426559-.5138092.4885406-1.2045212.9434052-2.0468483 1.3519211-.227417.1052856-.4632683.2105789-.70755.3074646-2.3163986.9518051-5.5172272 1.5540695-9.0760651 1.6004181-.1432037.0042114-.2906036.0042114-.4380264.0042114-3.7314987 0-7.1008034-.6149063-9.5098457-1.6046295-.2442818-.0968857-.4801331-.202179-.70755-.3116837-.8423271-.4042969-1.5330429-.85495-2.046875-1.347702-.6612282-.6275558-1.0234222-1.3182449-1.0234222-2.0426559 0-.0252686 0-.0505371.0042152-.0715942 0-.1347733.0168381-.2653351.0463219-.4001083.130558-.5812073.4969711-1.137146 1.0613403-1.6509476.1473961-.1347809.3074417-.2695541.4843483-.3958969.4337845-.3200912.9476166-.6233139 1.5330124-.9012985.5896416-.2779541 1.2508698-.5306702 1.9710426-.7538681.7370338-.231636 1.5414734-.433815 2.3964195-.6022644.1095047-.016861.2190132-.0379181.332737-.0589676 1.6635971-.2990341 3.5124855-.4674835 5.4582558-.4674835 1.9415855 0 3.7904701.1684494 5.454071.4674835.1052895.0210495.2105827.0378876.311657.0589676.0084305 0 .0126457 0 .016861.0041885.85495.1642609 1.6551704.3622208 2.3922043.5980759.0715904.0168381.1389923.0421066.2063675.0631561.6443939.2105789 1.2382202.4422455 1.777298.694931.5854225.2779541 1.1034698.5812073 1.5372543.9012909.1768799.1263504.3369255.2569046.4843483.3958969.5643425.5138092.9307556 1.0697479 1.0571251 1.6551666.012619.0463257.0210533.0968628.0252686.1431808.0168378.1052933.0252683.2105866.0252683.3200913z" fill="#fcd462"/><ellipse cx="50.001" cy="80.497" fill="#efb250" rx="10.367" ry="4.137"/><path d="m63.2876129 76.2490768v3.3145752c0 .1558304-.0168648.3116608-.0505371.4674835-.0126495.0463257-.02108.0926437-.0379181.1431808-.1937447.678093-.70755 1.3182449-1.4867172 1.8994522-.5348587.3958969-1.1960907.7665176-1.9626083 1.0950394-.4674873.2021484-.9771042.3916779-1.5246086.5601273-2.1647873.6865005-4.877079 1.103447-7.8294373 1.137146-.1305618.0042191-.2611198.0042191-.3958969.0042191-3.1081848 0-5.9678726-.4253769-8.2295189-1.137146-.5432892-.1726685-1.0486908-.3621979-1.5161781-.5643463-.164257-.0716171-.3200874-.1432037-.4716988-.214798-.5685883-.2737656-1.0739861-.5685806-1.4951515-.8802414-.6822815-.5095901-1.1623878-1.0655289-1.4024544-1.6509552-.0547523-.1305542-.0968857-.2653351-.1221542-.4001083-.0336761-.1516113-.0505371-.3032227-.0505371-.459053v-3.2834244l.1221542-.1027451 2.8049355-.02948h.2021484c.214798-.1010742.4380264-.2021561.6738777-.2948227.5348587-.2189865 1.116066-.4169464 1.7394066-.5938263.1726646-.0547562.3537636-.1010742.5348587-.1473999 2.0763321-.5391006 4.548584-.8507538 7.2103119-.8507538 2.6112175 0 5.0539627.3032227 7.1092377.8254852.0379181.0084076.0716171.0168381.1052933.0252686.1769066.0505371.3537865.0968628.5222359.1431808.2190132.0631866.4338112.1305618.6443939.1979599.3832474.1263428.7496834.2569046 1.0992317.4043045.0884514.033699.1726913.0673981.2569008.1052856l.6022873-.0042114 2.8976059-.0294647z" fill="#f7be56"/><path d="m63.2876129 76.2490768c0 .7538986-.3958969 1.4740677-1.1076622 2.1268921-.5138321.4674835-1.1961136.9054871-2.0173874 1.2929764-.2695274.1263428-.5517235.2484741-.8507347.3664093-.345356.1347504-.70755.261116-1.0908241.3790283-.8296776.2611237-1.7394066.4843521-2.716507.661232-1.4066696.2569046-2.9439278.4169464-4.5653954.4590759-.3074646.0126266-.6233368.0168381-.9392128.0168381-1.9626083 0-3.8241425-.1684723-5.5003891-.475914-.9771004-.1726685-1.8868027-.3958969-2.7206993-.661232-.379055-.1179123-.7454643-.244278-1.0908241-.3832474-.2948189-.1137161-.576992-.2358475-.8423233-.3621902-.0210533-.0084305-.0421066-.02108-.0631599-.0294876-.7960052-.3790588-1.4572334-.8044357-1.9584198-1.2677002-.7159843-.648613-1.1118774-1.368782-1.1118774-2.1226807 0-.0252686 0-.0505371.0042152-.0715942 0-.1137238.0126457-.2231979.033699-.3369217.1095085-.5769958.4548378-1.1329346.9981575-1.6467361.214798-.206398.4674835-.4043274.7454643-.5938568.3790321-.2653351.8128433-.5138092 1.2971649-.7454681.7201996-.3453293 1.5498772-.6527939 2.4680099-.9139175.9055138-.261116 1.8994522-.475914 2.9607925-.6401749 1.482502-.227417 3.0955391-.3537598 4.7801895-.3537598 1.6846542 0 3.2935028.1263428 4.7760048.3537598 1.0613403.1642609 2.059494.3790588 2.9691963.6401749.2190132.0631866.4295921.1263428.6359596.1937485.6654434.2189865 1.2803268.459053 1.8320503.7243881.4843483.2316284.9181595.475914 1.2971878.7412491.2779846.1895294.5264549.3916779.7454681.5938568.1095085.1094742.2105827.2147675.3074417.3242722.3664093.4253845.6022606.8718109.6864967 1.3393021v.0084305c.0084343.0210495.0126495.0421066.0126495.063179.0168384.1052931.0252689.2105863.0252689.3200681z" fill="#fcd462"/><ellipse cx="50.001" cy="76.251" fill="#efb250" rx="10.367" ry="4.137"/><path d="m63.2876129 72.0350952v3.4222183c0 .1347504-.0126495.2695236-.0379181.4000854v.0084305c-.0042152.0210495-.0084305.0421066-.012619.063179-.1642609.7370377-.7033615 1.4277267-1.5414734 2.0510635-.5348854.3958969-1.1960907.7623062-1.9626083 1.086586-.4759178.2063904-.9981537.3958969-1.5540924.5685883-.446434.1431808-.9139442.2695465-1.4067001.3832474-1.1539803.2737656-2.4216881.4801331-3.769413.6022568-.5727768.0547562-1.1581993.0926666-1.7562447.1137238-.4127312.0168381-.825489.0252686-1.2466545.0252686-1.0360451 0-2.0468445-.0463257-3.0155144-.1389923-1.3435135-.1221237-2.6112175-.3284912-3.7652016-.6022568-.4927521-.1179123-.9602661-.2442627-1.4108849-.3832474-.5475349-.1726913-1.0655556-.3621979-1.5372581-.5643692-.1684761-.0758133-.3327103-.1473999-.4885368-.2232056-.560154-.2695541-1.0529099-.5601578-1.4740715-.8718109-.7454681-.5433197-1.255085-1.1539841-1.4740715-1.798378-.0379181-.1095047-.0674019-.2231979-.08424-.3369217-.0252686-.1263428-.0379143-.2526932-.0379143-.3832474v-3.3861694h.0042152l.2948189-.0042191 2.6280556-.0252686h.2021484c.3706284-.1768799.7749519-.3411407 1.2003326-.4969711.7370338-.2695465 1.5540924-.5095901 2.4300957-.703331 1.2887573-.2948227 2.7122917-.5011902 4.2284927-.6064758.1052933-.0084305.214798-.0168381.3242798-.0210571.3706245-.0210495.7496834-.0379105 1.1329308-.0463486.1095047-.0041885.2190132-.0084.3285179-.0084.1347771-.0042191.2737656-.0042191.4127312-.0042191h.3243065c.3832474.0042191.7623024.012619 1.137146.0294876.1095047.0042114.2189865.0084305.3284912.012619 1.7436218.0884552 3.377739.3116837 4.84338.6443939.6527977.1473923 1.2719193.3158722 1.8489113.5011826.1979332.0673752.3916779.1347733.576992.2063675.2695503.0926437.5306702.197937.7791405.3032227l.6022873-.0041885 2.7712364-.02948z" fill="#f7be56"/><path d="m63.2894135 72.1423645c0 2.9300232-5.950325 5.3032074-13.2894096 5.3032074-4.109745 0-7.7842674-.7437744-10.2195587-1.9131317-1.9170036-.9187775-3.0698471-2.1000671-3.0698471-3.3900757 0-2.9286957 5.9503212-5.3032074 13.2894058-5.3032074 3.1761703 0 6.0932045.4454727 8.3789635 1.1892471 2.9967688.9704819 4.9104461 2.4527283 4.9104461 4.1139603z" fill="#fcd462"/><ellipse cx="50.001" cy="72.143" fill="#efb250" rx="10.367" ry="4.137"/><path d="m59.737381 67.3421173c-.4234657-.1817322-.8751183-.3528748-1.3584251-.5093842-2.285759-.7437744-5.2027931-1.1892395-8.3789597-1.1892395-4.0749092 0-7.7196617.7327423-10.157486 1.8852005l-3.1319237.0293884v3.3886185c0 1.2900085 1.1528473 2.4713058 3.0698509 3.3900833 2.4352913 1.1693497 6.1098099 1.9131241 10.2195587 1.9131241 7.3390846 0 13.2894058-2.3731918 13.2894058-5.3032074v-3.2289886z" fill="#f7be56"/><path d="m63.2894135 67.6310196c0 2.9300156-5.950325 5.3031998-13.2894096 5.3031998-4.109745 0-7.7842674-.7437668-10.2195587-1.9131241-1.9170036-.9187851-3.0698471-2.1000748-3.0698471-3.3900757 0-2.9287033 5.9503212-5.3032112 13.2894058-5.3032112 3.1761703 0 6.0932045.4454689 8.3789635 1.1892395 2.9967688.9704933 4.9104461 2.4527321 4.9104461 4.1139717z" fill="#fcd462"/><ellipse cx="50.001" cy="67.632" fill="#efb250" rx="10.367" ry="4.137"/><path d="m54.7843246 67.8889923c-.2063904-.1052856-.463295-.1979294-.7749519-.2695465-.2316322-.0547562-.4927521-.0968628-.7791405-.1305618.4716988-.0968552.8338928-.214798 1.0907974-.3579788.0294838-.016861.0547523-.033699.0800209-.0505371.2569046-.1642609.3874664-.3453598.3874664-.5348816 0-.2021561-.1473999-.400116-.4380035-.5854263-.0168343-.0084076-.033699-.0210571-.0505371-.0294876-.2863884-.1726608-.673851-.2990036-1.1581993-.3874588-.3874626-.0673752-.8718109-.1095047-1.4530182-.1263428v-.5517273h-1.4656372v.5432968h-.7370376v-.5432968h-1.4614487v.5432968h-2.253212v.5222321h1.149765v3.394577h-1.149765v.5264511h2.253212v.5475388h1.4614487v-.5475388h.7370377v.5475388h1.4656372v-.5517273c.4843483-.0084305.909729-.033699 1.2761383-.0716171.4843216-.0463181.8928642-.1221237 1.2171669-.2189865.3200645-.0968857.5938301-.2358475.8128433-.4127579.2147713-.1684494.324276-.3537598.3327103-.5517197v-.0294876c-.0000001-.2569047-.181099-.4801026-.5432931-.6738511zm-6.3890647-1.9542007h2.2237549c.8001938 0 1.364563.0210495 1.6930847.0631866.328495.0378876.5811806.1137161.7580872.227417.1768837.1137238.2695503.244278.2695503.3916779 0 .1474228-.0884514.2695541-.2569275.3706284-.0084076.0042114-.0210533.0126419-.0294838.016861-.1895027.1010742-.4717026.1768799-.8465157.2189865-.2316628.0294876-.5938568.0463486-1.0739899.0463486-.193718.0041885-.4127312.0041885-.6570129.0041885h-2.0805473zm0 3.3903579v-1.5246048h2.5733261c.7075539 0 1.250843.0252686 1.6299019.0716095.227417.0336761.4211617.0758057.5896111.1305618.1137238.0378876.2105827.0800247.2948189.1305618.0758095.0463181.1389923.0926437.1895294.1431808.0884552.0884552.1305618.1810989.1305618.2863846 0 .1432114-.0758095.2653351-.2232285.3748474-.1431847.1095047-.3327103.1895218-.5601311.248497-.2316589.0547485-.5096169.0968552-.8507576.1221237-.1347733.0084305-.3327103.0126495-.6022606.0126495-.1853142.0041885-.4253769.0041885-.7244148.0041885h-2.4469566z" fill="#cc903a"/><path d="m54.9990959 68.5207367c-.0168381-.2400665-.2021484-.4464264-.5390739-.6317444-.2063675-.1052856-.4674873-.1979294-.7749519-.2695465-.231636-.0547562-.4927559-.0968628-.7791405-.1305618.5096169-.1010742.8886452-.231636 1.149765-.3958969.0084305-.0042114.0126495-.0084.02108-.012619.2569046-.1642609.3832474-.3453598.3832474-.5348816 0-.2021561-.1432076-.400116-.4338112-.5854263-.0463219-.0294876-.096859-.0589447-.1473961-.0842133-.2779579-.1432037-.6275291-.2527161-1.0613403-.3327332-.3874626-.0673752-.8718109-.1095047-1.4572067-.1263428v-.5517273h-1.4614525v.5432968h-.7412491v-.5432968h-1.4572105v.5432968h-2.2574272v.5222321h1.1539841v3.394577h-1.1539841v.5264511h2.2574272v.5475388h1.4572105v-.5475388h.7412491v.5475388h1.4614525v-.5517273c.4885368-.0084305.9139137-.033699 1.2761078-.0716171.4885674-.0463181.8970833-.1221237 1.2171707-.2189865.3243027-.0968857.5980453-.2358475.8170586-.4127579.2190132-.1768799.3327065-.3706207.3327065-.5812073-.0000001-.012619-.0000001-.0294571-.0042154-.0421066zm-6.928112-2.5859451h2.2237282c.8002205 0 1.364563.0210495 1.6888657.0631866.3327103.0378876.5854263.1137161.7623062.227417.1768799.1137238.2653351.244278.2653351.3916779 0 .1347733-.0673752.248497-.2105827.3411407-.0210533.016861-.0463219.033699-.0715904.0463486-.1937447.1010742-.4716988.1768799-.8465424.2189865-.1768799.0252686-.4295921.0379181-.7496834.0463486-.193718.0041885-.4127312.0041885-.6570129.0041885h-2.4048233v-1.3392944zm2.7712326 3.3903579h-2.7712326v-1.5246048h2.5732994c.70755 0 1.250843.0252686 1.6298981.0716095.2232323.0336761.4169502.0758057.5896416.1305618.109478.0378876.2063637.0800247.2947922.1305618.0463486.02948.0884552.0547485.1263695.0884247.1263428.1011047.193718.214798.193718.3411407 0 .1432114-.0800209.2653351-.2232018.3748474-.1474228.1095047-.332737.1895218-.5643692.248497-.2274208.0547485-.509594.0968552-.8465424.1221237-.0715904.0042191-.1642342.0084305-.2779579.0126495-.1853143.0041887-.425377.0041887-.7244149.0041887z" fill="#fcd462"/><path d="m31.5770245 84.5754776v3.3145828c0 .1558228-.0168629.3116531-.0505371.4674835-.0126476.0463181-.0210781.0926437-.0379162.1431808-.1937447.678093-.707552 1.3182449-1.4867191 1.8994522-.5348587.3958893-1.1960888.7665176-1.9626083 1.0950394-.4674854.2021484-.9771023.3916779-1.5246086.5601273-2.1647854.6865005-4.877079 1.103447-7.8294373 1.137146-.1305599.0042191-.2611179.0042191-.3958931.0042191-3.1081877 0-5.9678764-.4253845-8.2295218-1.137146-.5432911-.1726685-1.0486917-.3621979-1.5161772-.5643463-.1642599-.0716171-.3200884-.1432114-.4717007-.214798-.5685859-.2737656-1.073987-.5685883-1.4951501-.8802414-.6822824-.5095901-1.1623888-1.0655289-1.4024549-1.6509552-.0547532-.1305618-.0968851-.2653351-.1221541-.4001083-.0336742-.1516113-.0505371-.3032303-.0505371-.459053v-3.2834245l.1221538-.1027451 2.8049359-.0294876h.2021503c.214797-.1010742.4380255-.2021484.6738758-.2948151.5348606-.2189865 1.1160679-.4169464 1.7394066-.5938339.1726656-.0547485.3537626-.1010742.5348597-.1473923 2.0763321-.5391006 4.548584-.8507614 7.2103138-.8507614 2.6112156 0 5.0539589.3032303 7.1092358.8254929.0379162.0084.0716171.0168381.1052914.0252686.1769066.0505371.3537884.0968552.5222378.1431808.2190132.0631866.4338112.1305542.6443939.1979599.3832455.1263428.7496815.2569046 1.0992298.4042969.0884533.033699.1726913.0674057.2569027.1052933l.6022854-.0042191 2.8976059-.0294571z" fill="#f7be56"/><path d="m31.5770245 84.5754776c0 .7538986-.395895 1.4740753-1.1076603 2.1268997-.513834.4674835-1.1961155.9054871-2.0173893 1.2929688-.2695255.1263504-.5517235.2484741-.8507328.3664169-.345356.1347427-.70755.261116-1.0908241.3790283-.8296795.261116-1.7394066.4843445-2.716507.661232-1.4066715.256897-2.9439278.4169464-4.5653954.4590759-.3074665.012619-.6233387.0168381-.9392109.0168381-1.9626102 0-3.8241444-.1684723-5.500392-.475914-.9771013-.1726685-1.8868027-.3958969-2.7206984-.661232-.3790569-.1179123-.7454672-.2442856-1.0908241-.3832474-.2948189-.1137238-.5769911-.2358475-.8423262-.3621979-.0210533-.0084305-.0421057-.0210724-.063159-.02948-.7960048-.3790588-1.4572339-.8044357-1.9584193-1.2677078-.7159829-.6486053-1.111877-1.368782-1.111877-2.1226807 0-.0252686 0-.0505371.0042157-.0715866 0-.1137238.0126472-.2232056.0337-.3369293.1095066-.5769882.4548378-1.1329269.9981551-1.6467361.214797-.2063904.467485-.4043274.7454672-.5938492.3790312-.2653351.8128419-.5138092 1.297164-.7454681.7201986-.3453369 1.5498781-.6528015 2.4680109-.9139175.9055109-.2611237 1.8994503-.4759216 2.9607897-.6401749 1.4825029-.2274246 3.0955391-.3537674 4.7801933-.3537674 1.6846523 0 3.293499.1263428 4.776001.3537674 1.0613403.1642532 2.0594959.3790512 2.9691963.6401749.2190132.063179.429594.1263428.6359615.1937408.6654434.2189865 1.2803268.459053 1.8320484.7243881.4843483.231636.9181595.4759216 1.2971897.7412567.2779827.1895218.5264549.3916779.7454681.5938492.1095066.1094818.2105808.2147751.3074398.3242798.3664112.4253769.6022606.8718109.6864986 1.3392944v.0084305c.0084324.0210571.0126476.0421066.0126476.0631866.0168384.1052933.0252689.210579.0252689.3200608z" fill="#fcd462"/><ellipse cx="18.291" cy="84.577" fill="#efb250" rx="10.367" ry="4.137"/><path d="m31.5770245 80.3615036v3.4222107c0 .1347504-.0126476.2695312-.0379162.4000854v.0084305c-.0042152.0210571-.0084305.0421066-.0126209.0631866-.1642609.7370377-.7033615 1.4277267-1.5414715 2.0510635-.5348854.3958969-1.1960907.7623062-1.9626102 1.086586-.4759159.2063904-.9981537.3958893-1.5540924.5685806-.4464321.1431808-.9139442.2695541-1.4066963.3832474-1.1539841.2737656-2.42169.4801331-3.7694168.6022644-.5727768.0547485-1.1581993.0926666-1.7562447.1137238-.4127312.0168304-.825489.0252686-1.2466507.0252686-1.036047 0-2.0468483-.0463257-3.0155182-.1389923-1.3435116-.1221313-2.6112175-.3284988-3.7652006-.6022644-.492754-.1179123-.9602642-.2442551-1.4108868-.3832474-.547533-.1726913-1.0655556-.3621902-1.5372562-.5643692-.1684752-.0758057-.3327093-.1473923-.4885378-.2232056-.5601544-.2695465-1.0529079-.5601501-1.4740715-.8718109-.7454672-.5433121-1.2550836-1.1539764-1.474071-1.7983704-.0379162-.1095047-.0674005-.2232056-.0842381-.3369293-.0252686-.1263428-.0379157-.2526855-.0379157-.3832474v-3.3861694h.0042157l.2948194-.0042114 2.6280546-.0252686h.2021503c.3706255-.1768799.774951-.3411407 1.2003298-.4969711.7370358-.2695541 1.5540943-.5095901 2.4300947-.7033386 1.2887583-.2948151 2.7122927-.5011826 4.2284956-.6064758.1052914-.0084305.214798-.0168304.3242779-.0210495.3706264-.0210495.7496834-.0379181 1.1329308-.0463486.1095066-.0041885.2190132-.0084076.3285198-.0084076.1347752-.0042114.2737656-.0042114.4127312-.0042114h.3243046c.3832474.0042114.7623043.012619 1.137146.02948.1095066.0042191.2189865.0084381.3284931.0126266 1.7436218.0884476 3.377737.3116837 4.8433781.6443863.6527977.1473999 1.2719212.3158722 1.8489132.5011902.1979332.0673752.3916779.1347733.5769901.2063675.2695503.0926437.5306702.1979294.7791424.3032227l.6022854-.0041885 2.7712364-.0294876z" fill="#f7be56"/><path d="m31.578825 80.4687729c0 2.9300156-5.9503231 5.3032074-13.2894077 5.3032074-4.1097479 0-7.7842684-.7437744-10.2195578-1.9131317-1.9170036-.9187775-3.06985-2.1000748-3.06985-3.3900757 0-2.9287033 5.9503231-5.3032074 13.2894077-5.3032074 3.1761684 0 6.0932026.4454651 8.3789616 1.1892395 2.996769.9704895 4.9104462 2.4527359 4.9104462 4.1139679z" fill="#fcd462"/><ellipse cx="18.291" cy="80.469" fill="#efb250" rx="10.367" ry="4.137"/><path d="m28.0267944 75.6685257c-.4234657-.1817322-.8751183-.3528824-1.3584251-.5093842-2.285759-.7437744-5.2027931-1.1892471-8.3789616-1.1892471-4.0749102 0-7.7196627.7327499-10.1574869 1.8852081l-3.1319208.0293808v3.3886261c0 1.2900009 1.1528463 2.4712982 3.06985 3.3900757 2.4352894 1.1693573 6.1098099 1.9131317 10.2195578 1.9131317 7.3390846 0 13.2894077-2.3731995 13.2894077-5.3032074v-3.2289886z" fill="#f7be56"/><path d="m31.578825 75.9574203c0 2.9300232-5.9503231 5.3032074-13.2894077 5.3032074-4.1097479 0-7.7842684-.7437744-10.2195578-1.9131317-1.9170036-.9187775-3.06985-2.1000748-3.06985-3.3900757 0-2.9286957 5.9503231-5.3032074 13.2894077-5.3032074 3.1761684 0 6.0932026.4454727 8.3789616 1.1892395 2.996769.9704896 4.9104462 2.452736 4.9104462 4.1139679z" fill="#fcd462"/><ellipse cx="18.291" cy="75.958" fill="#efb250" rx="10.367" ry="4.137"/><path d="m23.0737381 76.2154007c-.2063923-.1052933-.463295-.197937-.7749519-.2695541-.2316341-.0547485-.492754-.0968552-.7791424-.1305542.4717007-.0968628.8338947-.214798 1.0907993-.3579788.0294838-.0168686.0547523-.033699.0800209-.0505371.2569046-.1642609.3874645-.3453598.3874645-.5348892 0-.2021484-.147398-.4001083-.4380016-.5854187-.0168362-.0084076-.033699-.0210571-.0505371-.0294876-.2863884-.1726685-.673851-.2990112-1.1581993-.3874664-.3874626-.0673752-.8718109-.1095047-1.4530182-.1263428v-.5517198h-1.4656391v.5432892h-.7370358v-.5432892h-1.4614506v.5432892h-2.2532129v.5222397h1.1497679v3.394577h-1.1497679v.5264511h2.2532129v.5475311h1.4614506v-.5475311h.7370358v.5475311h1.4656391v-.5517197c.4843483-.0084305.9097271-.033699 1.2761364-.0716171.4843235-.0463257.8928642-.1221313 1.2171688-.2189865.3200626-.0968857.5938282-.2358551.8128414-.4127579.2147713-.1684494.3242779-.3537598.3327103-.5517197v-.0294876c0-.2569045-.181097-.4801101-.5432911-.6738509zm-6.3890648-1.9542007h2.223753c.8001957 0 1.3645649.0210495 1.6930847.063179.328495.0378952.5811825.1137238.7580891.2274246.1768818.1137161.2695503.244278.2695503.3916779 0 .1474228-.0884533.2695465-.2569294.3706207-.0084057.0042191-.0210514.0126495-.0294838.0168686-.1895027.1010742-.4717007.1768799-.8465157.2189865-.2316608.02948-.5938549.0463486-1.073988.0463486-.193718.0041885-.4127312.0041885-.6570129.0041885h-2.0805473zm0 3.3903579v-1.5246124h2.5733261c.707552 0 1.250843.0252686 1.6299.0716171.2274189.0336761.4211636.0758057.589613.1305618.1137218.0378876.2105827.0800171.2948189.1305542.0758076.0463257.1389923.0926437.1895294.1431808.0884533.0884552.1305599.1810989.1305599.2863922 0 .1432037-.0758076.2653351-.2232285.3748398-.1431828.1095047-.3327103.1895294-.5601292.248497-.2316608.0547562-.5096169.0968628-.8507576.1221313-.1347752.0084305-.3327103.0126419-.6022606.0126419-.1853123.0041962-.4253788.0041962-.7244148.0041962h-2.4469566z" fill="#cc903a"/><path d="m23.2885094 76.8471451c-.0168381-.2400665-.2021503-.446434-.5390759-.6317444-.2063656-.1052933-.4674854-.197937-.7749519-.2695541-.2316341-.0547485-.492754-.0968552-.7791405-.1305542.5096169-.1010742.8886471-.231636 1.1497669-.3958969.0084305-.0042191.0126476-.0084076.0210781-.012619.2569046-.1642609.3832474-.3453598.3832474-.5348892 0-.2021484-.1432056-.4001083-.4338093-.5854187-.0463219-.0294876-.0968609-.0589447-.147398-.0842133-.277956-.1432114-.6275291-.2527161-1.0613384-.3327408-.3874645-.0673752-.8718128-.1095047-1.4572086-.1263428v-.5517197h-1.4614506v.5432892h-.741251v-.5432892h-1.4572086v.5432892h-2.2574291v.5222397h1.1539831v3.394577h-1.1539831v.5264511h2.2574291v.5475311h1.4572086v-.5475311h.741251v.5475311h1.4614506v-.5517197c.4885368-.0084305.9139156-.033699 1.2761116-.0716171.4885635-.0463257.8970795-.1221313 1.2171669-.2189865.3243046-.0968857.5980453-.2358551.8170586-.4127579.2190132-.1768799.3327084-.3706284.3327084-.5812073-.0000001-.0126189-.0000001-.029457-.0042153-.0421065zm-6.928114-2.5859451h2.2237282c.8002205 0 1.3645649.0210495 1.6888676.063179.3327103.0378952.5854244.1137238.7623043.2274246.1768818.1137161.2653351.244278.2653351.3916779 0 .1347733-.0673733.248497-.2105808.3411407-.0210533.016861-.0463219.033699-.0715904.0463486-.1937447.1010742-.4717007.1768799-.8465424.2189865-.1768818.0252686-.429594.0379105-.7496834.0463486-.193718.0041885-.4127312.0041885-.6570129.0041885h-2.4048252v-1.3392944zm2.7712345 3.3903579h-2.7712345v-1.5246124h2.5733013c.70755 0 1.2508411.0252686 1.6298981.0716171.2232304.0336761.4169483.0758057.5896397.1305618.1094799.0378876.2063656.0800171.2947941.1305542.0463467.0294876.0884533.0547562.1263695.0884323.1263428.1010971.193718.214798.193718.3411407 0 .1432037-.0800209.2653351-.2232037.3748398-.1474209.1095047-.3327351.1895294-.5643692.248497-.2274189.0547562-.5095901.0968628-.8465424.1221313-.0715904.0042114-.1642342.0084305-.277956.0126419-.1853123.0041963-.4253788.0041963-.7244149.0041963z" fill="#fcd462"/></svg>