<svg id="_x33_0" enable-background="new 0 0 64 64" height="512" viewBox="0 0 64 64" width="512" xmlns="http://www.w3.org/2000/svg"><g><g><g><path d="m6 54 4 4c0 2.21-1.79 4-4 4s-4-1.79-4-4 1.79-4 4-4z" fill="#b27946"/></g><g><path d="m58 54c2.21 0 4 1.79 4 4s-1.79 4-4 4-4-1.79-4-4z" fill="#b27946"/></g><g><path d="m12 48-3 3-3 3 4 4 3-3 3-3z" fill="#fcd770"/></g><g><path d="m55 51-3-3-4 4 3 3 3 3 4-4z" fill="#fcd770"/></g><g><path d="m21.38 51.38c.4.4.62.94.62 1.5 0 .58-.24 1.12-.62 1.5s-.92.62-1.5.62c-.56 0-1.1-.22-1.5-.62l-2.38-2.38-4-4-2.38-2.38c-.4-.4-.62-.94-.62-1.5 0-.58.24-1.12.62-1.5s.92-.62 1.5-.62c.56 0 1.1.22 1.5.62l2.38 2.38 4 4z" fill="#cf9e76"/></g><g><path d="m54.38 42.62c.38.38.62.92.62 1.5 0 .56-.22 1.1-.62 1.5l-2.38 2.38-4 4-2.38 2.38c-.4.4-.94.62-1.5.62-.58 0-1.12-.24-1.5-.62s-.62-.92-.62-1.5c0-.56.22-1.1.62-1.5l2.38-2.38 4-4 2.38-2.38c.4-.4.94-.62 1.5-.62.58 0 1.12.24 1.5.62z" fill="#cf9e76"/></g><g><path d="m10 2 11.3 12.49c-1.6.34-3.25.51-4.9.51h-.4v1l-14-14z" fill="#ccd1d9"/></g><g><path d="m62 2-14 14v-1h-.4c-1.65 0-3.3-.17-4.9-.51l11.3-12.49z" fill="#ccd1d9"/></g><g><path d="m62 2v8l-14 12.67v-6.67z" fill="#e6e9ed"/></g><g><path d="m45.42 41.15 3.58 3.85-4 4-3.07-2.88c1.38-1.5 2.55-3.17 3.49-4.97z" fill="#e6e9ed"/></g><g><path d="m48 30v.55c0 1.17-.09 2.32-.26 3.45h-10.08c.22-.63.34-1.3.34-2s-.12-1.37-.34-2z" fill="#ffeaa7"/></g><g><path d="m48 22.67v7.33h-10.34c-.6-1.7-1.96-3.06-3.66-3.66v-15.63c2.63 1.85 5.59 3.12 8.7 3.78 1.6.34 3.25.51 4.9.51h.4v1z" fill="#b4dd7f"/></g><g><path d="m45.42 41.15c-.94 1.8-2.11 3.47-3.49 4.97-1.62 1.76-3.51 3.27-5.65 4.47l-2.28 1.28v-14.21c1.7-.6 3.06-1.96 3.66-3.66h10.08c-.38 2.52-1.17 4.93-2.32 7.15z" fill="#b4dd7f"/></g><g><circle cx="40" cy="24" fill="#ff826e" r="2"/></g><g><circle cx="40" cy="40" fill="#ff826e" r="2"/></g><g><path d="m37.66 30c.22.63.34 1.3.34 2s-.12 1.37-.34 2c-.6 1.7-1.96 3.06-3.66 3.66-.63.22-1.3.34-2 .34s-1.37-.12-2-.34c-1.7-.6-3.06-1.96-3.66-3.66-.22-.63-.34-1.3-.34-2s.12-1.37.34-2c.6-1.7 1.96-3.06 3.66-3.66.63-.22 1.3-.34 2-.34s1.37.12 2 .34c1.7.6 3.06 1.96 3.66 3.66z" fill="#fcd770"/></g><g><path d="m34 37.66v14.21l-2 1.13-2-1.12v-.01-14.21c.63.22 1.3.34 2 .34s1.37-.12 2-.34z" fill="#ffeaa7"/></g><g><path d="m34 10.71v15.63c-.63-.22-1.3-.34-2-.34s-1.37.12-2 .34v-15.63c.06-.04.13-.09.19-.13.53-.38 1.16-.58 1.81-.58s1.28.2 1.81.58c.06.04.13.09.19.13z" fill="#ffeaa7"/></g><g><circle cx="32" cy="32" fill="#ffc729" r="2"/></g><g><path d="m18.58 41.15c-1.15-2.22-1.94-4.63-2.32-7.15h10.08c.6 1.7 1.96 3.06 3.66 3.66v14.21l-2.28-1.28c-2.14-1.2-4.03-2.71-5.65-4.47-1.38-1.5-2.55-3.17-3.49-4.97z" fill="#b4dd7f"/></g><g><path d="m30 10.71v15.63c-1.7.6-3.06 1.96-3.66 3.66h-10.34v-7.33-6.67-1h.4c1.65 0 3.3-.17 4.9-.51.79-.17 1.57-.37 2.34-.62 2.25-.73 4.4-1.78 6.36-3.16z" fill="#b4dd7f"/></g><g><path d="m16 30h10.34c-.22.63-.34 1.3-.34 2s.12 1.37.34 2h-10.08c-.17-1.13-.26-2.28-.26-3.45z" fill="#ffeaa7"/></g><g><circle cx="24" cy="24" fill="#ff826e" r="2"/></g><g><circle cx="24" cy="40" fill="#ff826e" r="2"/></g><g><path d="m22.07 46.12-3.07 2.88-4-4 3.58-3.85c.94 1.8 2.11 3.47 3.49 4.97z" fill="#e6e9ed"/></g><g><path d="m16 16v6.67l-14-12.67v-8z" fill="#e6e9ed"/></g></g><g><path d="m32 29c-1.654 0-3 1.346-3 3s1.346 3 3 3 3-1.346 3-3-1.346-3-3-3zm0 4c-.552 0-1-.448-1-1s.448-1 1-1 1 .448 1 1-.448 1-1 1z"/><path d="m49 23.11 14-12.667v-9.443h-9.443l-11.21 12.389c-2.84-.672-5.531-1.893-7.953-3.622-1.406-1.004-3.383-1.004-4.789 0-2.422 1.729-5.113 2.949-7.953 3.622l-11.209-12.389h-9.443v9.443l14 12.667v7.438c0 3.666.848 7.213 2.39 10.411l-2.417 2.6-1.646-1.646c-.58-.58-1.384-.913-2.206-.913-1.721 0-3.121 1.4-3.121 3.121 0 .822.333 1.626.914 2.207l1.672 1.672-5.047 5.047c-2.538.236-4.539 2.354-4.539 4.953 0 2.757 2.243 5 5 5 2.599 0 4.717-2.001 4.953-4.539l5.047-5.047 1.672 1.672c.581.581 1.385.914 2.207.914 1.721 0 3.121-1.4 3.121-3.121 0-.822-.333-1.626-.914-2.207l-1.648-1.648 1.604-1.501c1.524 1.525 3.263 2.858 5.191 3.943l4.767 2.681 4.767-2.681c1.928-1.085 3.667-2.418 5.191-3.943l1.604 1.501-1.648 1.648c-.581.581-.914 1.385-.914 2.207 0 1.721 1.4 3.121 3.121 3.121.822 0 1.626-.333 2.207-.914l1.672-1.672 5.047 5.047c.236 2.538 2.354 4.539 4.953 4.539 2.757 0 5-2.243 5-5 0-2.599-2.001-4.717-4.539-4.953l-5.047-5.047 1.672-1.672c.581-.581.914-1.385.914-2.207 0-1.721-1.4-3.121-3.121-3.121-.822 0-1.626.333-2.207.914l-1.646 1.646-2.417-2.6c1.543-3.199 2.391-6.745 2.391-10.411zm0-2.696v-4l12-12v5.143zm-10.08 10.586h8.065c-.014.672-.059 1.339-.133 2h-7.932c.047-.328.08-.66.08-1s-.033-.672-.08-1zm-.605-2c-.692-1.45-1.865-2.623-3.315-3.315v-13.146c3.64 2.164 7.738 3.352 12 3.454v13.007zm-6.315 8c-2.757 0-5-2.243-5-5s2.243-5 5-5 5 2.243 5 5-2.243 5-5 5zm-6.92-4h-7.932c-.074-.661-.119-1.328-.133-2h8.065c-.047.328-.08.66-.08 1s.033.672.08 1zm.605-4h-8.685v-13.007c4.262-.102 8.36-1.29 12-3.454v13.146c-1.45.692-2.623 1.865-3.315 3.315zm28.758-26h5.143l-11 11h-.983c-.987 0-1.963-.078-2.928-.202zm-21.443 8.28v13.8c-.328-.047-.66-.08-1-.08s-.672.033-1 .08v-13.8c.623-.332 1.377-.332 2 0zm-13.674 2.518c-.966.124-1.941.202-2.929.202h-.983l-11-11h5.143zm-16.326-4.241v-5.143l12 12v4zm6 42.857 2.586 2.586-1.586 1.586-2.586-2.586zm-3 8.586c-1.654 0-3-1.346-3-3 0-1.522 1.14-2.783 2.611-2.975l3.363 3.363c-.191 1.472-1.452 2.612-2.974 2.612zm7-7.414-2.586-2.586 1.586-1.586 2.586 2.586zm8-.707c0 .618-.503 1.121-1.121 1.121-.295 0-.584-.119-.793-.328l-8.758-8.758c-.209-.209-.328-.498-.328-.793 0-.618.503-1.121 1.121-1.121.295 0 .584.119.793.328l8.758 8.758c.209.209.328.498.328.793zm-1.977-5.27-2.634-2.634 1.999-2.151c.676 1.135 1.45 2.21 2.306 3.222zm-1.565-12.609h8.227c.692 1.45 1.865 2.623 3.315 3.315v11.85l-.786-.442c-5.599-3.149-9.48-8.564-10.756-14.723zm13.542 16.29v-12.37c.328.047.66.08 1 .08s.672-.033 1-.08v12.37l-1 .563zm4.786-1.567-.786.442v-11.85c1.45-.692 2.623-1.865 3.315-3.315h8.227c-1.276 6.159-5.157 11.574-10.756 14.723zm16.628 5.277 2.586-2.586 1.586 1.586-2.586 2.586zm8.586 3c0 1.654-1.346 3-3 3-1.522 0-2.783-1.14-2.975-2.611l3.363-3.363c1.472.191 2.612 1.452 2.612 2.974zm-7.414-7-2.586 2.586-1.586-1.586 2.586-2.586zm-1.5-7.672c.209-.209.498-.328.793-.328.618 0 1.121.503 1.121 1.121 0 .295-.119.584-.328.793l-8.758 8.758c-.209.209-.498.328-.793.328-.618 0-1.121-.503-1.121-1.121 0-.295.119-.584.328-.793zm-4.475 1.647-2.634 2.634-1.671-1.563c.856-1.012 1.63-2.087 2.306-3.222z"/><path d="m40 21c-1.654 0-3 1.346-3 3s1.346 3 3 3 3-1.346 3-3-1.346-3-3-3zm0 4c-.552 0-1-.448-1-1s.448-1 1-1 1 .448 1 1-.448 1-1 1z"/><path d="m24 21c-1.654 0-3 1.346-3 3s1.346 3 3 3 3-1.346 3-3-1.346-3-3-3zm0 4c-.552 0-1-.448-1-1s.448-1 1-1 1 .448 1 1-.448 1-1 1z"/><path d="m24 37c-1.654 0-3 1.346-3 3s1.346 3 3 3 3-1.346 3-3-1.346-3-3-3zm0 4c-.552 0-1-.448-1-1s.448-1 1-1 1 .448 1 1-.448 1-1 1z"/><path d="m40 37c-1.654 0-3 1.346-3 3s1.346 3 3 3 3-1.346 3-3-1.346-3-3-3zm0 4c-.552 0-1-.448-1-1s.448-1 1-1 1 .448 1 1-.448 1-1 1z"/><circle cx="6" cy="58" r="1"/><circle cx="58" cy="58" r="1"/></g></g></svg>