<svg height="466pt" viewBox="0 -86 466 466" width="466pt" xmlns="http://www.w3.org/2000/svg" xmlns:xlink="http://www.w3.org/1999/xlink"><linearGradient id="a"><stop offset="0" stop-color="#00efd1"/><stop offset="1" stop-color="#00acea"/></linearGradient><linearGradient id="b" gradientUnits="userSpaceOnUse" x1="233" x2="233" xlink:href="#a" y1="-93.12447" y2="416.14953"/><linearGradient id="c" gradientUnits="userSpaceOnUse" x1="103.299" x2="103.299" xlink:href="#a" y1="-93.12447" y2="416.14953"/><linearGradient id="d" gradientUnits="userSpaceOnUse" x1="92" x2="92" xlink:href="#a" y1="-93.12447" y2="416.14953"/><linearGradient id="e" gradientUnits="userSpaceOnUse" x1="84" x2="84" xlink:href="#a" y1="-93.12447" y2="416.14953"/><linearGradient id="f" gradientUnits="userSpaceOnUse" x1="75" x2="75" xlink:href="#a" y1="-93.12447" y2="416.14953"/><path d="m458 59.789062c-4.417969 0-8 3.582032-8 8v4.085938h-23v-16.832031c0-4.417969-3.582031-8-8-8s-8 3.582031-8 8v16.832031h-22v-29.574219c0-4.417969-3.582031-8-8-8s-8 3.582031-8 8v29.574219h-22v-42.316406c0-4.417969-3.582031-8-8-8s-8 3.582031-8 8v42.316406h-25v-14.664062c-.058594-19.796876-14.515625-36.605469-34.082031-39.625l-99.535157-14.789063c-30.40625-4.5-61.371093-3.566406-91.453124 2.757813l-78.414063 16.167968c-3.742187.757813-6.4570312 4.019532-6.515625 7.835938v86.652344c.105469 9.730468 6.917969 18.097656 16.429688 20.164062 1.21875.253906 2.292968.976562 2.984374 2.015625.679688 1.023437.917969 2.28125.667969 3.484375l-14.359375 66.199219c-4.535156 20.898437.628906 42.730469 14.054688 59.378906 13.421875 16.648437 33.660156 26.324219 55.046875 26.324219 39.027343 0 73.679687-27.992188 82.386719-66.554688 0-.023437.011718-.050781.019531-.074218l15.828125-73.332032.542968-.09375c1.082032-.1875 2.1875-.378906 3.378907-.554687l98.964843-14.769531c19.554688-3.035157 33.996094-19.839844 34.054688-39.628907v-10.894531h25v38.53125c0 4.417969 3.582031 8 8 8s8-3.582031 8-8v-38.53125h22v25.785156c0 4.417969 3.582031 8 8 8s8-3.582031 8-8v-25.785156h22v13.042969c0 4.417969 3.582031 8 8 8s8-3.582031 8-8v-13.042969h23v.300781c0 4.417969 3.582031 8 8 8s8-3.582031 8-8v-20.386719c0-4.417968-3.582031-8-8-8zm-164 38.980469c-.019531 11.875-8.679688 21.972657-20.417969 23.800781l-99.007812 14.769532c-1.320313.199218-2.523438.40625-3.722657.613281-1.792968.308594-3.46875.601563-5.300781.800781-3.433593.367188-6.242187 2.894532-6.96875 6.269532l-16.984375 78.710937c-7.089844 31.316406-35.164062 54.042969-66.773437 54.042969-16.542969 0-32.195313-7.488282-42.578125-20.367188-10.382813-12.882812-14.378906-29.769531-10.867188-45.933594l14.375-66.210937c1.175782-5.351563.164063-10.949219-2.816406-15.546875-3.015625-4.621094-7.738281-7.855469-13.136719-8.988281-2.15625-.453125-3.726562-2.316407-3.800781-4.519531v-80.136719l72.0625-14.855469c28.273438-5.9375 57.375-6.816406 85.953125-2.59375l99.515625 14.785156c11.75 1.8125 20.433594 11.910156 20.46875 23.800782zm0 0" fill="url(#b)"/><path d="m103.300781 47.082031c-19.8125 0-35.875 16.0625-35.875 35.875s16.0625 35.875 35.875 35.875 35.875-16.0625 35.875-35.875c-.023437-19.804687-16.070312-35.851562-35.875-35.875zm0 55.75c-10.976562 0-19.875-8.898437-19.875-19.875 0-10.976562 8.898438-19.875 19.875-19.875 10.976563 0 19.875 8.898438 19.875 19.875-.015625 10.972657-8.90625 19.863281-19.875 19.875zm0 0" fill="url(#c)"/><path d="m119 166.875h-54c-4.417969 0-8 3.582031-8 8s3.582031 8 8 8h54c4.417969 0 8-3.582031 8-8s-3.582031-8-8-8zm0 0" fill="url(#d)"/><path d="m107 191.875h-46c-4.417969 0-8 3.582031-8 8s3.582031 8 8 8h46c4.417969 0 8-3.582031 8-8s-3.582031-8-8-8zm0 0" fill="url(#e)"/><path d="m94 217.875h-38c-4.417969 0-8 3.582031-8 8s3.582031 8 8 8h38c4.417969 0 8-3.582031 8-8s-3.582031-8-8-8zm0 0" fill="url(#f)"/></svg>