<?xml version="1.0" encoding="iso-8859-1"?>
<!-- Generator: Adobe Illustrator 19.0.0, SVG Export Plug-In . SVG Version: 6.00 Build 0)  -->
<svg version="1.1" id="Capa_1" xmlns="http://www.w3.org/2000/svg" xmlns:xlink="http://www.w3.org/1999/xlink" x="0px" y="0px"
	 viewBox="0 0 496 496" style="enable-background:new 0 0 496 496;" xml:space="preserve">
<path style="fill:#AFB8C9;" d="M461.488,45.488c-24-24-56.56-37.488-90.504-37.488H312l-8,16h-16l-8-16h-48v80h48l8-16h16l8,16
	c13.256,0,24,10.744,24,24v64h48V92.832C384,76.912,396.912,64,412.832,64c2.104,0,4.2,0.232,6.256,0.688L488,80v-8L461.488,45.488z
	"/>
<rect x="336" y="144" style="fill:#8C95A4;" width="48" height="32"/>
<path style="fill:#EABD8C;" d="M368,488h-16c-17.672,0-32-14.328-32-32V168h80v288C400,473.672,385.672,488,368,488z"/>
<rect x="24" y="136" style="fill:#8C95A4;" width="232" height="48"/>
<path style="fill:#D3A06C;" d="M368,168c-8.84,0-16,7.16-16,16v112c0,8.84,7.16,16,16,16h32V168H368z"/>
<path style="fill:#EABD8C;" d="M168,416.184V232h-48v184.184c-9.664,7.304-16,18.776-16,31.816c0,22.088,17.912,40,40,40
	s40-17.912,40-40C184,434.96,177.664,423.48,168,416.184z"/>
<rect x="120" y="232" style="fill:#D3A06C;" width="48" height="32"/>
<path style="fill:#AFB8C9;" d="M32,200L32,200c-13.256,0-24-10.744-24-24v-32c0-13.256,10.744-24,24-24l0,0
	c13.256,0,24,10.744,24,24v32C56,189.256,45.256,200,32,200z"/>
<rect x="104" y="200" style="fill:#8C95A4;" width="80" height="40"/>
<g>
	<path style="fill:#AFB8C9;" d="M256,200L256,200c13.256,0,24-10.744,24-24v-32c0-13.256-10.744-24-24-24l0,0
		c-13.256,0-24,10.744-24,24v32C232,189.256,242.744,200,256,200z"/>
	<path style="fill:#AFB8C9;" d="M184,208h-80c-8.84,0-16-7.16-16-16v-64c0-8.84,7.16-16,16-16h80c8.84,0,16,7.16,16,16v64
		C200,200.84,192.84,208,184,208z"/>
</g>
<rect x="288" y="24" style="fill:#8C95A4;" width="16" height="48"/>
<g>
	<rect x="352" y="200" style="fill:#B27946;" width="48" height="16"/>
	<rect x="352" y="232" style="fill:#B27946;" width="48" height="16"/>
	<rect x="352" y="264" style="fill:#B27946;" width="48" height="16"/>
</g>
<path d="M467.152,39.832C441.464,14.152,407.312,0,370.984,0h-63.928l-8,16h-6.112l-8-16H224v96h60.944l8-16h6.112l8,16H312
	c8.824,0,16,7.176,16,16v48h-16v296c0,22.056,17.944,40,40,40h16c22.056,0,40-17.944,40-40V160h-16V92.832
	C392,81.344,401.344,72,412.832,72c1.512,0,3.032,0.168,4.52,0.496L496,89.976V68.688L467.152,39.832z M368,480h-16
	c-13.232,0-24-10.768-24-24v-8h24v-16h-24v-16h24v-16h-24V176h17.472c-0.896,2.512-1.472,5.184-1.472,8v112
	c0,13.232,10.768,24,24,24h24v136C392,469.232,381.232,480,368,480z M392,176v32h-32v-24c0-4.408,3.592-8,8-8h8H392z M360,272h32v32
	h-24c-4.408,0-8-3.584-8-8V272z M360,256v-32h32v32H360z M420.832,56.88c-2.624-0.584-5.312-0.88-8-0.88
	C392.52,56,376,72.52,376,92.832V160h-8h-24v-48c0-15.888-11.648-29.112-26.848-31.584L308.944,64h-25.888l-8,16H240V16h35.056l8,16
	h25.888l8-16h54.032c32.056,0,62.184,12.488,84.856,35.152L473.2,68.52L420.832,56.88z"/>
<path d="M256,112c-11.792,0-22,6.48-27.552,16H208c0-13.232-10.768-24-24-24h-80c-13.232,0-24,10.768-24,24H59.552
	C54,118.48,43.792,112,32,112c-17.648,0-32,14.352-32,32v32c0,17.648,14.352,32,32,32c11.792,0,22-6.48,27.552-16H80
	c0,10.416,6.712,19.216,16,22.528V248h16v164.408c-10.216,9.136-16,21.888-16,35.592c0,26.472,21.528,48,48,48s48-21.528,48-48
	c0-13.704-5.784-26.464-16-35.592V248h16v-33.472c9.288-3.312,16-12.112,16-22.528h20.448c5.552,9.52,15.76,16,27.552,16
	c17.648,0,32-14.352,32-32v-32C288,126.352,273.648,112,256,112z M48,176c0,8.824-7.176,16-16,16s-16-7.176-16-16v-32
	c0-8.824,7.176-16,16-16s16,7.176,16,16V176z M64,176v-32h16v32H64z M163.176,422.56C171.328,428.72,176,437.992,176,448
	c0,17.648-14.352,32-32,32s-32-14.352-32-32c0-10.008,4.672-19.28,12.824-25.44l3.176-2.4V248h32v172.168L163.176,422.56z M192,192
	c0,4.408-3.592,8-8,8h-24v16h16v16h-64v-16h32v-16h-40c-4.408,0-8-3.592-8-8v-64c0-4.408,3.592-8,8-8h80c4.408,0,8,3.592,8,8V192z
	 M208,176v-32h16v32H208z M272,176c0,8.824-7.176,16-16,16c-8.824,0-16-7.176-16-16v-32c0-8.824,7.176-16,16-16
	c8.824,0,16,7.176,16,16V176z"/>
<g>
</g>
<g>
</g>
<g>
</g>
<g>
</g>
<g>
</g>
<g>
</g>
<g>
</g>
<g>
</g>
<g>
</g>
<g>
</g>
<g>
</g>
<g>
</g>
<g>
</g>
<g>
</g>
<g>
</g>
</svg>
