<svg height="512" viewBox="0 0 38 60" width="512" xmlns="http://www.w3.org/2000/svg"><g id="Page-1" fill="none" fill-rule="evenodd"><g id="072---Helmet-On-Podium" fill-rule="nonzero" transform="translate(-1 -1)"><path id="Shape" d="m23 21c.0010661 1.1436097-.6481486 2.1883505-1.6739808 2.6938331-1.0258322.5054825-2.2498212.3837696-3.1560192-.3138331h-.01c-.511691-.3992258-.8801189-.9536221-1.05-1.58-.1085869-.4573376-.5101821-.7851704-.98-.8h-5.13c-.5522847 0-1-.4477153-1-1v-3c0-.5522847.4477153-1 1-1h3c7 0 9 3 9 5z" fill="#ced7db"/><path id="Shape" d="m14 16h-3c7 0 9 3 9 5-.0011639 1.0709501-.5763384 2.05909-1.507 2.589.9266258.5433826 2.0733859.5485165 3.0048398.0134524.931454-.5350642 1.5047349-1.5282581 1.5021602-2.6024524 0-2-2-5-9-5z" fill="#9d9d9d"/><path id="Shape" d="m27 20c-.0002195 1.1690898-.2383869 2.325903-.7 3.4-.0999451.2197997-.1705504.4517887-.21.69-.0650374.2920722-.0952479.5908203-.09.89v8.02h-4c0-2.209139-1.790861-4-4-4s-4 1.790861-4 4h-4.00004501l.00004501-6.02c-.00501385-.5312726.409433-.9721735.94-1 4.2-.18 6.25-1.52 7.22-2.6h.01c.906198.6976027 2.130187.8193156 3.1560192.3138331 1.0258322-.5054826 1.6750469-1.5502234 1.6739808-2.6938331 0-2-2-5-9-5h-1.93c.5873671-1.0262329 1.3972022-1.9078255 2.37-2.58 2.4481645-1.6914602 5.632344-1.8859781 8.2681945-.5050947 2.6358505 1.3808835 4.2886756 4.1094373 4.2918055 7.0850947z" fill="#7f8d93"/><path id="Shape" d="m19 12c-.4932439.0046051-.9850048.054819-1.469.15 3.7564474.7324274 6.4679781 4.0228149 6.469 7.85-.0002195 1.1690898-.2383869 2.325903-.7 3.4-.0999451.2197997-.1705504.4517887-.21.69-.0650374.2920722-.0952479.5908203-.09.89v8.02h3v-8.02c-.0052479-.2991797.0249626-.5979278.09-.89.0394496-.2382113.1100549-.4702003.21-.69.4616131-1.074097.6997805-2.2309102.7-3.4 0-4.418278-3.581722-8-8-8z" fill="#545c60"/><path id="Shape" d="m36.99 19.42c-.1094032 2.9615713-1.0144323 5.8390111-2.62 8.33-.4256488.687435-1.1427415 1.1420149-1.9460755 1.2336574-.803334.0916424-1.6043848-.1897511-2.1739245-.7636574l-4.16-4.13c.0394496-.2382113.1100549-.4702003.21-.69.4616131-1.074097.6997805-2.2309102.7-3.4-.0031299-2.9756574-1.655955-5.7042112-4.2918055-7.0850947-2.6358505-1.3808834-5.82003-1.1863655-8.2681945.5050947l-.01-.01-5.72-5.7c-.19421215-.20403053-.29658388-.47858141-.28336491-.75995674.01321898-.28137533.14087973-.54511932.35336491-.73004326 1.4748579-1.28688247 3.1592012-2.31169375 4.98-3.03.1876197-.07397907.4013709-.02647881.54.12l1.85 1.84c.1428502.14005986.3554356.18148777.5404242.10531598.1849887-.07617178.3067658-.2552784.3095758-.45531598v-2.11c.0025502-.24561024.1785164-.45509377.42-.5 1.2374838-.18605377 2.4915908-.23635217 3.74-.15 1.8556556.12190751 3.6776618.55459173 5.39 1.28.2140916.09306618.3376627.3196133.3.55l-.66 4c-.0286245.19500491.0599799.38863168.226261.49444694.1662812.10581525.3792108.10407382.543739-.00444694l3.45-2.31c.189769-.12317074.4379404-.1068972.61.04 2.6117936 2.22346123 4.49349 5.1819061 5.4 8.49v.01l-3.55 2.74c-.1577177.119498-.2301259.3207656-.1846841.5133524s.2001838.3402573.3946841.3766476l3.51.7c.2365616.0482368.4048679.2586196.4.5z" fill="#f34335"/><path id="Shape" d="m23.55 3.32c.2140916.09306618.3376627.3196133.3.55l-.66 4c-.0286245.19500491.0599799.38863168.226261.49444694.1662812.10581525.3792108.10407382.543739-.00444694l2.416-1.618.474-2.872c.0376627-.2303867-.0859084-.45693382-.3-.55-1.7123382-.72540827-3.5343444-1.15809249-5.39-1.28-.8697827-.05326666-1.7423815-.03922484-2.61.042 1.7208008.15076812 3.4076539.56843295 5 1.238z" fill="#c71e1e"/><path id="Shape" d="m36.59 18.92-3.51-.7c-.1945003-.0363903-.3492423-.1840608-.3946841-.3766476s.0269664-.3938544.1846841-.5133524l3.55-2.74v-.01c-.90651-3.3080939-2.7882064-6.26653877-5.4-8.49-.1720596-.1468972-.420231-.16317074-.61-.04l-1.41.95c2.1092828 2.09787553 3.6330594 4.7110489 4.42 7.58v.01l-3.55 2.74c-.1577177.119498-.2301259.3207656-.1846841.5133524s.2001838.3402573.3946841.3766476l3.51.7c.2365616.0482368.4048679.2586196.4.5-.1094032 2.9615713-1.0144323 5.8390111-2.62 8.33-.1880008.306469-.4388512.5695892-.736.772.5916151.4135531 1.3274632.5651317 2.0343562.4190607.7068931-.146071 1.3223956-.5768903 1.7016438-1.1910607 1.6055677-2.4909889 2.5105968-5.3684287 2.62-8.33.0048679-.2413804-.1634384-.4517632-.4-.5z" fill="#c71e1e"/><rect id="Rectangle-path" fill="#ffdb00" height="4" rx="2" width="36" x="2" y="33"/><path id="Shape" d="m36 33h-3c1.1045695 0 2 .8954305 2 2s-.8954305 2-2 2h3c1.1045695 0 2-.8954305 2-2s-.8954305-2-2-2z" fill="#fdc008"/><path id="Shape" d="m4 37h32c0 2.209139-1.790861 4-4 4h-24c-2.209139 0-4-1.790861-4-4z" fill="#ff9701"/><path id="Shape" d="m8 41h24v18c0 .5522847-.4477153 1-1 1h-22c-.55228475 0-1-.4477153-1-1z" fill="#ffdb00"/><path id="Shape" d="m29 41v18c0 .5522847-.4477153 1-1 1h3c.5522847 0 1-.4477153 1-1v-18z" fill="#fdc008"/><path id="Shape" d="m9 26.979v5.021h-5c-1.47723913-.0052813-2.73708164 1.0687037-2.96566811 2.5281596s.64255581 2.8672051 2.05066811 3.3138404c.34507548 2.0296863 1.89899334 3.6403629 3.915 4.058v17.1c0 1.1045695.8954305 2 2 2h22c1.1045695 0 2-.8954305 2-2v-17.1c2.0157102-.4175 3.5695511-2.0276999 3.915-4.057 1.4097979-.4454291 2.2826212-1.8540864 2.0538806-3.3147763s-1.490405-2.5350914-2.9688806-2.5282237h-9v-5.594l2.542 2.526c.6851862.684624 1.6143982 1.0688278 2.583 1.068.1504031-.0000536.3006695-.0090696.45-.027 1.0988425-.1274224 2.0774257-.7547193 2.652-1.7 1.6896226-2.63644 2.6432486-5.6768566 2.762-8.806.0332232-.735067-.4775591-1.3833348-1.2-1.523l-2.438-.486 2.684-2.07c.3208684-.2523508.4601723-.6718365.354-1.066-.5148146-1.8803167-1.332889-3.6640701-2.422-5.281v-.006c-.9210822-1.37624287-2.0271176-2.61922878-3.287-3.694-.5150365-.43969763-1.2578499-.48851341-1.826-.12l-2.489 1.667.472-2.854c.1183722-.68901823-.2549415-1.36844919-.9-1.638-1.5667123-.65551153-3.2196912-1.08189118-4.908-1.266-.017 0-.031-.015-.05-.018s-.048.006-.072.005c-.226-.023-.451-.058-.677-.072-1.3213148-.096299-2.6492586-.04430828-3.959.155-.7320103.11945334-1.269912.75130807-1.271 1.493v.9l-.99-.99c-.4224077-.42365442-1.0555277-.55710811-1.613-.34-1.9318775.75593688-3.71699508 1.84325116-5.275 3.213-.42570566.3715042-.67901863.90237582-.7 1.467-.0201895.55199955.19159025 1.08725111.584 1.476l4.951 4.942c-.5369968.487186-1.0131185 1.0375129-1.418 1.639h-.539c-1.1045695 0-2 .8954305-2 2v3c0 1.1045695.8954305 2 2 2h5.13l.013.062c.1243857.4492235.3275381.8727962.6 1.251-1.031.782-2.8 1.54-5.842 1.668-1.0684031.0452229-1.90896002.9286699-1.901 1.998zm17 32.021v-14c0-.5522847-.4477153-1-1-1s-1 .4477153-1 1v14h-3v-14c0-.5522847-.4477153-1-1-1s-1 .4477153-1 1v14h-4v-14c0-.5522847-.4477153-1-1-1s-1 .4477153-1 1v14h-4v-17h22v17zm6-19h-24c-1.27098879-.0015506-2.40364643-.8022983-2.829-2h29.658c-.4253536 1.1977017-1.5580112 1.9984494-2.829 2zm5-5c0 .5522847-.4477153 1-1 1h-32c-.55228475 0-1-.4477153-1-1s.44771525-1 1-1h32c.5522847 0 1 .4477153 1 1zm-21.816-3c.4174114-1.1981296 1.5472421-2.0009455 2.816-2.0009455s2.3985886.8028159 2.816 2.0009455zm-5.745-25.025c1.3026883-1.1450039 2.7843545-2.06859612 4.386-2.734l1.614 1.614c.4282361.42851821 1.0722027.55736921 1.632352.32661658s.9265031-.77580359.928648-1.38161658v-1.679c.8958768-.10575326 1.7990694-.13585968 2.7-.09l-.4 2.831c-.0772331.54673953.3032837 1.05260293.85 1.13.0470276.00677826.0944866.01012044.142.01.4973781-.00107028.9183681-.36751898.988-.86l.41-2.9c1.0632501.17805557 2.1053898.46489532 3.11.856l-.6 3.602c-.0973527.5899167.1649264 1.18131222.6675244 1.50515561.502598.32384338 1.14952.31828145 1.6464756-.01415561l3.132-2.1c.7860103.70103704 1.5014292 1.47741389 2.136 2.318l-2.382 1.791c-.2858125.2143594-.4355547.5649147-.3928203.9196152.0427344.3547006.2714531.6596589.6.8.3285469.1403412.7070078.0947442.9928203-.1196152l2.288-1.716c.5719506.991267 1.0352978 2.0413418 1.382 3.132l-3.008 2.321c-.4665265.3528747-.6816433.9472867-.549 1.517.1289481.580555.5886987 1.0301063 1.172 1.146l3.1.617c-.0658528 1.3429861-.3356046 2.6681422-.8 3.93l-2.67-1.606c-.3063227-.1981775-.6962632-.2138027-1.0174605-.0407704s-.5226697.5072578-.525696.8720848.1928738.7023487.5111565.8806856l2.917 1.759c-.292.6-.595 1.142-.884 1.618-.2570109.4216852-.6943434.7010613-1.185.757-.5093102.0643877-1.0197916-.1102021-1.383-.473l-3.734-3.714c.5201116-1.19927.7876688-2.4928039.786-3.8.0048151-3.196511-1.6889897-6.1548954-4.4480681-7.7689563-2.7590784-1.6140608-6.1679347-1.6407332-8.9519319-.0700437zm6.691 13.025h-5.13v-3h3c6.315 0 8 2.515 8 4 .0014239 1.0021284-.7390346 1.8506064-1.7321354 1.9848229s-1.9322231-.4872681-2.1968646-1.4538229c-.2227317-.8928836-1.0207956-1.5223714-1.941-1.531zm2.186 4.614c1.2355925.588417 2.6869858.4998472 3.8418613-.2344456 1.1548756-.7342928 1.8508059-2.0110339 1.8421387-3.3795544 0-2.754-2.6-5.966-9.9-6 2.0129411-1.973077 5.0129316-2.5463438 7.6115494-1.4544876 2.5986179 1.0918562 4.2888533 3.6358063 4.2884506 6.4544876-.0010259 1.0316021-.2116181 2.0522427-.619 3-.2631529.6277737-.3928989 1.3034064-.381 1.984v7.016h-2.1c-.4731925-2.330324-2.5221184-4.0050126-4.9-4.0050126s-4.4268075 1.6746886-4.9 4.0050126h-2.1l-.013-5.02c3.854-.161 6.066-1.28 7.329-2.365z" fill="#000"/></g></g></svg>