<svg id="Layer_2" enable-background="new 0 0 64 64" height="512" viewBox="0 0 64 64" width="512" xmlns="http://www.w3.org/2000/svg"><g fill="#6e83b7"><path d="m5 39h8v17h-8z"/><path d="m20 30h8v26h-8z"/><path d="m36 34h8v22h-8z"/><path d="m51 25h8v31h-8z"/><path d="m2 58h60v2h-60z"/></g><path d="m61 9-10.978 2.054 2.333 2.721-12.704 10.89-15.905-6.959-15.929 11.681 2.366 3.226 14.071-10.319 16.095 7.041 14.609-12.522 2.333 2.721z" fill="#80d6fb"/><circle cx="10" cy="12" fill="#ffe352" r="8"/><path d="m11 11h-2c-.551 0-1-.449-1-1s.449-1 1-1h2c.551 0 1 .449 1 1h2c0-1.654-1.346-3-3-3v-1h-2v1c-1.654 0-3 1.346-3 3s1.346 3 3 3h2c.551 0 1 .449 1 1s-.449 1-1 1h-2c-.551 0-1-.449-1-1h-2c0 1.654 1.346 3 3 3v1h2v-1c1.654 0 3-1.346 3-3s-1.346-3-3-3z" fill="#6e83b7"/></svg>