<svg xmlns="http://www.w3.org/2000/svg" viewBox="0 0 512 512" width="240" height="240">
	<style>
		tspan { white-space:pre }
		.shp0 { fill: #3e92cc } 
		.shp1 { fill: #112e50 } 
	</style>
	<g id="Layer">
		<g id="Layer">
			<path id="Layer" fill-rule="evenodd" class="shp0" d="M335.88 306.21C341.69 338.23 335.16 370.77 317.51 398.42C299.62 426.26 271.96 445.81 239.75 453.76C233.04 455.51 220.69 446.98 230.24 436C234.81 430.74 239.76 426.19 243.27 420.72C252.03 407.09 256.23 391.49 255.6 375.63C253.91 375.49 252.21 375 250.7 374.02L151 309.96C149.49 308.99 148.33 307.65 147.5 306.17C132.82 312.18 120.37 322.49 111.61 336.12C108.1 341.59 105.79 347.95 103.13 354.32C98.03 366.5 84.54 361.04 83.02 353.05C76.73 320.48 83.16 287.17 101.05 259.32C118.78 231.73 145.7 212.41 177.29 204.31C218.06 126.25 292.02 67.75 380.74 48.45C386.13 47.28 391.93 51.01 393.1 56.4C412.41 145.11 389.88 236.78 335.88 306.21ZM300.6 102.51L377.24 151.75C380.23 125.27 379.61 98.12 374.77 71.24C348.31 78.01 323.41 88.64 300.6 102.51ZM149.23 283.5C151.48 272.23 164.85 231.26 165.2 230.53C146.2 239.01 130.09 252.79 118.63 270.62C110.15 283.83 104.71 298.4 102.58 313.55C114.87 299.23 130.93 288.86 149.23 283.5ZM373.79 174.14L281.58 114.89C222.52 157.41 180.59 222.11 168.02 296.06L256.19 352.71C318.22 310.56 359.65 245.53 373.79 174.14ZM267.55 419.56C280.37 411.28 291.44 400.33 299.93 387.12C311.45 369.2 317.29 348.82 317.05 328.11C316.64 328.56 288.44 355.25 275.5 364.65C278.15 383.46 275.39 402.37 267.55 419.56Z" />
			<path id="Layer" class="shp1" d="M155.98 333.85C151.1 330.71 144.69 332.18 141.61 336.97L113.34 380.97C110.2 385.85 111.67 392.26 116.47 395.34C121.26 398.43 127.76 397.01 130.84 392.22L159.11 348.22C162.25 343.34 160.78 336.93 155.98 333.85Z" />
			<path id="Layer" class="shp1" d="M191.4 356.6C188.96 355.04 186.13 354.64 183.5 355.21C183.5 355.21 183.5 355.21 183.36 355.24C181.7 355.6 180.08 356.46 178.69 357.71C178.03 358.36 177.38 359.01 176.84 359.85L120.35 447.76C119.91 448.43 119.57 449.16 119.3 449.94C117.74 454.41 119.35 459.48 123.47 462.13C127.6 464.78 132.88 464.14 136.29 460.86C136.9 460.3 137.41 459.68 137.84 459.01L194.44 370.92C194.98 370.08 195.39 369.27 195.62 368.35C197.07 364.05 195.44 359.2 191.4 356.6L191.4 356.6Z" />
			<path id="Layer" class="shp1" d="M226.82 379.36C221.94 376.23 215.53 377.7 212.45 382.49L184.18 426.49C181.04 431.37 182.51 437.78 187.3 440.86C192.1 443.94 198.59 442.53 201.67 437.73L229.95 393.74C233.17 388.91 231.7 382.5 226.82 379.36Z" />
		</g>
	</g>
	<g id="Layer copy 8">
		<g id="Layer">
			<path id="Layer" fill-rule="evenodd" class="shp1" d="M335.88 306.21C341.69 338.23 335.16 370.77 317.51 398.42C299.62 426.26 271.96 445.81 239.75 453.76C233.04 455.51 220.69 446.98 230.24 436C234.81 430.74 239.76 426.19 243.27 420.72C252.03 407.09 256.23 391.49 255.6 375.63C253.91 375.49 252.21 375 250.7 374.02L151 309.96C149.49 308.99 148.33 307.65 147.5 306.17C132.82 312.18 120.37 322.49 111.61 336.12C108.1 341.59 105.79 347.95 103.13 354.32C98.03 366.5 84.54 361.04 83.02 353.05C76.73 320.48 83.16 287.17 101.05 259.32C118.78 231.73 145.7 212.41 177.29 204.31C218.06 126.25 292.02 67.75 380.74 48.45C386.13 47.28 391.93 51.01 393.1 56.4C412.41 145.11 389.88 236.78 335.88 306.21ZM300.6 102.51L377.24 151.75C380.23 125.27 379.61 98.12 374.77 71.24C348.31 78.01 323.41 88.64 300.6 102.51ZM149.23 283.5C151.48 272.23 164.85 231.26 165.2 230.53C146.2 239.01 130.09 252.79 118.63 270.62C110.15 283.83 104.71 298.4 102.58 313.55C114.87 299.23 130.93 288.86 149.23 283.5ZM373.79 174.14L281.58 114.89C222.52 157.41 180.59 222.11 168.02 296.06L256.19 352.71C318.22 310.56 359.65 245.53 373.79 174.14ZM267.55 419.56C280.37 411.28 291.44 400.33 299.93 387.12C311.45 369.2 317.29 348.82 317.05 328.11C316.64 328.56 288.44 355.25 275.5 364.65C278.15 383.46 275.39 402.37 267.55 419.56Z" />
			<path id="Layer" class="shp0" d="M155.98 333.85C151.1 330.71 144.69 332.18 141.61 336.97L113.34 380.97C110.2 385.85 111.67 392.26 116.47 395.34C121.26 398.43 127.76 397.01 130.84 392.22L159.11 348.22C162.25 343.34 160.78 336.93 155.98 333.85Z" />
			<path id="Layer" class="shp0" d="M191.4 356.6C188.96 355.04 186.13 354.64 183.5 355.21C183.5 355.21 183.5 355.21 183.36 355.24C181.7 355.6 180.08 356.46 178.69 357.71C178.03 358.36 177.38 359.01 176.84 359.85L120.35 447.76C119.91 448.43 119.57 449.16 119.3 449.94C117.74 454.41 119.35 459.48 123.47 462.13C127.6 464.78 132.88 464.14 136.29 460.86C136.9 460.3 137.41 459.68 137.84 459.01L194.44 370.92C194.98 370.08 195.39 369.27 195.62 368.35C197.07 364.05 195.44 359.2 191.4 356.6L191.4 356.6Z" />
			<path id="Layer" class="shp0" d="M226.82 379.36C221.94 376.23 215.53 377.7 212.45 382.49L184.18 426.49C181.04 431.37 182.51 437.78 187.3 440.86C192.1 443.94 198.59 442.53 201.67 437.73L229.95 393.74C233.17 388.91 231.7 382.5 226.82 379.36Z" />
		</g>
	</g>
</svg>