<svg xmlns="http://www.w3.org/2000/svg" viewBox="0 0 420 420" width="80" height="80">
	<style>
		tspan { white-space:pre }
		.shp0 { fill: #3e92cc } 
		.shp1 { fill: #112e50 } 
	</style>
	<g id="Layer">
		<g id="Layer">
			<path id="Layer" fill-rule="evenodd" class="shp0" d="M305.88 260.21C311.69 292.23 305.16 324.77 287.51 352.42C269.62 380.26 241.96 399.81 209.75 407.76C203.04 409.51 190.69 400.98 200.24 390C204.81 384.74 209.76 380.19 213.27 374.72C222.03 361.09 226.23 345.49 225.6 329.63C223.91 329.49 222.21 329 220.7 328.02L121 263.96C119.49 262.99 118.33 261.65 117.5 260.17C102.82 266.18 90.37 276.49 81.61 290.12C78.1 295.59 75.79 301.95 73.13 308.32C68.03 320.5 54.54 315.04 53.02 307.05C46.73 274.48 53.16 241.17 71.05 213.32C88.78 185.73 115.7 166.41 147.29 158.31C188.06 80.25 262.02 21.75 350.74 2.45C356.13 1.28 361.93 5.01 363.1 10.4C382.41 99.11 359.88 190.78 305.88 260.21ZM270.6 56.51L347.24 105.75C350.23 79.27 349.61 52.12 344.77 25.24C318.31 32.01 293.41 42.64 270.6 56.51ZM119.23 237.5C121.48 226.23 134.85 185.26 135.2 184.53C116.2 193.01 100.09 206.79 88.63 224.62C80.15 237.83 74.71 252.4 72.58 267.55C84.87 253.23 100.93 242.86 119.23 237.5ZM343.79 128.14L251.58 68.89C192.52 111.41 150.59 176.11 138.02 250.06L226.19 306.71C288.22 264.56 329.65 199.53 343.79 128.14ZM237.55 373.56C250.37 365.28 261.44 354.33 269.93 341.12C281.45 323.2 287.29 302.82 287.05 282.11C286.64 282.56 258.44 309.25 245.5 318.65C248.15 337.46 245.39 356.37 237.55 373.56Z" />
			<path id="Layer" class="shp1" d="M125.98 287.85C121.1 284.71 114.69 286.18 111.61 290.97L83.34 334.97C80.2 339.85 81.67 346.26 86.47 349.34C91.26 352.43 97.76 351.01 100.84 346.22L129.11 302.22C132.25 297.34 130.78 290.93 125.98 287.85Z" />
			<path id="Layer" class="shp1" d="M161.4 310.6C158.96 309.04 156.13 308.64 153.5 309.21C153.5 309.21 153.5 309.21 153.36 309.24C151.7 309.6 150.08 310.46 148.69 311.71C148.03 312.36 147.38 313.01 146.84 313.85L90.35 401.76C89.91 402.43 89.57 403.16 89.3 403.94C87.74 408.41 89.35 413.48 93.47 416.13C97.6 418.78 102.88 418.14 106.29 414.86C106.9 414.3 107.41 413.68 107.84 413.01L164.44 324.92C164.98 324.08 165.39 323.27 165.62 322.35C167.07 318.05 165.44 313.2 161.4 310.6L161.4 310.6Z" />
			<path id="Layer" class="shp1" d="M196.82 333.36C191.94 330.23 185.53 331.7 182.45 336.49L154.18 380.49C151.04 385.37 152.51 391.78 157.3 394.86C162.1 397.94 168.59 396.53 171.67 391.73L199.95 347.74C203.17 342.91 201.7 336.5 196.82 333.36Z" />
		</g>
	</g>
	<g id="Layer copy 8">
		<g id="Layer">
			<path id="Layer" fill-rule="evenodd" class="shp1" d="M305.88 260.21C311.69 292.23 305.16 324.77 287.51 352.42C269.62 380.26 241.96 399.81 209.75 407.76C203.04 409.51 190.69 400.98 200.24 390C204.81 384.74 209.76 380.19 213.27 374.72C222.03 361.09 226.23 345.49 225.6 329.63C223.91 329.49 222.21 329 220.7 328.02L121 263.96C119.49 262.99 118.33 261.65 117.5 260.17C102.82 266.18 90.37 276.49 81.61 290.12C78.1 295.59 75.79 301.95 73.13 308.32C68.03 320.5 54.54 315.04 53.02 307.05C46.73 274.48 53.16 241.17 71.05 213.32C88.78 185.73 115.7 166.41 147.29 158.31C188.06 80.25 262.02 21.75 350.74 2.45C356.13 1.28 361.93 5.01 363.1 10.4C382.41 99.11 359.88 190.78 305.88 260.21ZM270.6 56.51L347.24 105.75C350.23 79.27 349.61 52.12 344.77 25.24C318.31 32.01 293.41 42.64 270.6 56.51ZM119.23 237.5C121.48 226.23 134.85 185.26 135.2 184.53C116.2 193.01 100.09 206.79 88.63 224.62C80.15 237.83 74.71 252.4 72.58 267.55C84.87 253.23 100.93 242.86 119.23 237.5ZM343.79 128.14L251.58 68.89C192.52 111.41 150.59 176.11 138.02 250.06L226.19 306.71C288.22 264.56 329.65 199.53 343.79 128.14ZM237.55 373.56C250.37 365.28 261.44 354.33 269.93 341.12C281.45 323.2 287.29 302.82 287.05 282.11C286.64 282.56 258.44 309.25 245.5 318.65C248.15 337.46 245.39 356.37 237.55 373.56Z" />
			<path id="Layer" class="shp0" d="M125.98 287.85C121.1 284.71 114.69 286.18 111.61 290.97L83.34 334.97C80.2 339.85 81.67 346.26 86.47 349.34C91.26 352.43 97.76 351.01 100.84 346.22L129.11 302.22C132.25 297.34 130.78 290.93 125.98 287.85Z" />
			<path id="Layer" class="shp0" d="M161.4 310.6C158.96 309.04 156.13 308.64 153.5 309.21C153.5 309.21 153.5 309.21 153.36 309.24C151.7 309.6 150.08 310.46 148.69 311.71C148.03 312.36 147.38 313.01 146.84 313.85L90.35 401.76C89.91 402.43 89.57 403.16 89.3 403.94C87.74 408.41 89.35 413.48 93.47 416.13C97.6 418.78 102.88 418.14 106.29 414.86C106.9 414.3 107.41 413.68 107.84 413.01L164.44 324.92C164.98 324.08 165.39 323.27 165.62 322.35C167.07 318.05 165.44 313.2 161.4 310.6L161.4 310.6Z" />
			<path id="Layer" class="shp0" d="M196.82 333.36C191.94 330.23 185.53 331.7 182.45 336.49L154.18 380.49C151.04 385.37 152.51 391.78 157.3 394.86C162.1 397.94 168.59 396.53 171.67 391.73L199.95 347.74C203.17 342.91 201.7 336.5 196.82 333.36Z" />
		</g>
	</g>
</svg>