<svg id="Capa_1" enable-background="new 0 0 512 512" height="512" viewBox="0 0 512 512" width="512" xmlns="http://www.w3.org/2000/svg"><g><path d="m256 346.109s-58.109-53.326-118.058-43.965c-59.949 9.36-99.036 77.862-99.036 77.862s58.109 53.326 118.058 43.966c59.949-9.361 99.036-77.863 99.036-77.863z" fill="#8e1e2c"/><path d="m256 346.109s58.109-53.326 118.058-43.965c59.949 9.36 99.036 77.862 99.036 77.862s-58.109 53.326-118.058 43.966c-59.949-9.361-99.036-77.863-99.036-77.863z" fill="#6b1222"/><path d="m123.55 26.346s-60.072 108.745-23.496 197.046l179.443-74.328c-36.576-88.3-155.947-122.718-155.947-122.718z" fill="#8e1e2c"/><path d="m388.45 26.346s60.072 108.745 23.496 197.046l-179.443-74.328c36.576-88.3 155.947-122.718 155.947-122.718z" fill="#ff5b5b"/><g><path d="m165.748 128.196c-67.85-36.566-154.484-26.823-154.484-26.823s-13.884 123.456 53.698 191.038 191.038 53.698 191.038 53.698l37.711-217.913z" fill="#ff5b5b"/><path d="m500.736 101.373s-86.634-9.743-154.484 26.823h-90.252v217.913s123.456 13.884 191.038-53.698 53.698-191.038 53.698-191.038z" fill="#ca2e43"/></g><g><path d="m158.886 173.055c0 95.575 97.114 173.055 97.114 173.055l25.598-173.055-25.598-173.055s-97.114 77.479-97.114 173.055z" fill="#ca2e43"/><path d="m256 0v346.109s97.114-77.479 97.114-173.055-97.114-173.054-97.114-173.054z" fill="#8e1e2c"/></g><g><path d="m209.453 429.055c0 45.809 46.547 82.945 46.547 82.945l18.363-82.945-18.363-82.946s-46.547 37.136-46.547 82.946z" fill="#ff5b5b"/></g><path d="m256 346.109v165.891s46.547-37.136 46.547-82.945c0-45.81-46.547-82.946-46.547-82.946z" fill="#ca2e43"/></g></svg>