<svg height="512pt" viewBox="-4 0 512 512" width="512pt" xmlns="http://www.w3.org/2000/svg"><path d="m0 384h35.308594v26.484375c0 4.875-3.949219 8.824219-8.824219 8.824219h-17.65625c-4.875 0-8.828125-3.949219-8.828125-8.824219zm0 0" fill="#bdc3c7"/><path d="m70.621094 384h35.308594v26.484375c0 4.875-3.949219 8.824219-8.828126 8.824219h-17.652343c-4.875 0-8.828125-3.949219-8.828125-8.824219zm0 0" fill="#bdc3c7"/><path d="m70.621094 388.414062c0-9.75-7.90625-17.65625-17.65625-17.65625s-17.65625 7.90625-17.65625 17.65625h-35.308594c-.015625-16.695312 7.875-32.410156 21.273438-42.371093 18.769531-14.125 44.617187-14.125 63.382812 0 13.398438 9.960937 21.289062 25.675781 21.273438 42.371093zm0 0" fill="#df4d60"/><g fill="#5e5f62"><path d="m441.378906 445.792969c-2.339844 0-4.585937-.929688-6.242187-2.585938l-17.652344-17.65625c-2.972656-2.972656-3.433594-7.632812-1.105469-11.132812l20.570313-30.894531c1.703125-2.726563 4.753906-4.3125 7.964843-4.140626 3.210938.175782 6.070313 2.082032 7.472657 4.976563 1.398437 2.894531 1.109375 6.320313-.75 8.945313l-16.558594 24.875 12.542969 12.542968c2.523437 2.527344 3.277344 6.324219 1.910156 9.621094-1.363281 3.296875-4.582031 5.449219-8.152344 5.449219zm0 0"/><path d="m476.691406 445.792969c-3.570312 0-6.789062-2.152344-8.15625-5.449219-1.367187-3.296875-.609375-7.09375 1.914063-9.621094l12.542969-12.542968-16.558594-24.875c-1.945313-2.617188-2.285156-6.09375-.890625-9.039063 1.398437-2.945313 4.300781-4.882813 7.558593-5.039063 3.253907-.15625 6.332032 1.496094 8 4.296876l20.570313 30.894531c2.328125 3.5 1.867187 8.160156-1.105469 11.132812l-17.652344 17.65625c-1.652343 1.652344-3.890624 2.582031-6.222656 2.585938zm0 0"/><path d="m441.378906 445.792969c-2.339844 0-4.585937-.929688-6.242187-2.585938l-17.652344-17.65625c-2.972656-2.972656-3.433594-7.632812-1.105469-11.132812l20.570313-30.894531c1.703125-2.726563 4.753906-4.3125 7.964843-4.140626 3.210938.175782 6.070313 2.082032 7.472657 4.976563 1.398437 2.894531 1.109375 6.320313-.75 8.945313l-16.558594 24.875 12.542969 12.542968c2.523437 2.527344 3.277344 6.324219 1.910156 9.621094-1.363281 3.296875-4.582031 5.449219-8.152344 5.449219zm0 0"/><path d="m476.691406 445.792969c-3.570312 0-6.789062-2.152344-8.15625-5.449219-1.367187-3.296875-.609375-7.09375 1.914063-9.621094l12.542969-12.542968-16.558594-24.875c-1.945313-2.617188-2.285156-6.09375-.890625-9.039063 1.398437-2.945313 4.300781-4.882813 7.558593-5.039063 3.253907-.15625 6.332032 1.496094 8 4.296876l20.570313 30.894531c2.328125 3.5 1.867187 8.160156-1.105469 11.132812l-17.652344 17.65625c-1.652343 1.652344-3.890624 2.582031-6.222656 2.585938zm0 0"/></g><path d="m485.515625 366.34375c0 14.628906-11.855469 26.484375-26.480469 26.484375s-26.484375-11.855469-26.484375-26.484375c0-14.625 11.859375-26.480469 26.484375-26.480469s26.480469 11.855469 26.480469 26.480469zm0 0" fill="#2fa8cc"/><path d="m492.136719 366.34375c0 18.285156-14.820313 33.105469-33.101563 33.105469s-33.105468-14.820313-33.105468-33.105469c0-18.28125 14.824218-33.101562 33.105468-33.101562s33.101563 14.820312 33.101563 33.101562zm0 0" fill="#3b97d3"/><path d="m166.664062 357.515625c-8.867187 10.90625-10.421874 26.027344-3.964843 38.511719 6.460937 12.480468 19.707031 19.941406 33.730469 19 14.023437-.945313 26.152343-10.113282 30.878906-23.347656zm0 0" fill="#285680"/><path d="m345.335938 357.515625c8.867187 10.90625 10.421874 26.027344 3.964843 38.511719-6.460937 12.480468-19.707031 19.941406-33.730469 19-14.023437-.945313-26.152343-10.113282-30.878906-23.347656zm0 0" fill="#285680"/><path d="m344.277344 291.308594c16.683594 11.300781 16.683594 19.421875 16.683594 38.402344 0 34.164062-78.476563 67.53125-104.960938 67.53125s-104.960938-33.367188-104.960938-67.53125c0-18.980469 0-27.101563 16.683594-38.402344zm0 0" fill="#4482c3"/><path d="m145.039062 205.59375 34.335938 102.929688c3.582031 10.808593 13.6875 18.101562 25.070312 18.097656h103.109376c11.382812.003906 21.488281-7.289063 25.070312-18.097656l34.335938-102.929688zm0 0" fill="#285680"/><path d="m92.601562 220.691406-18.625 53.316406-36.8125-.351562 25.335938-75.652344.441406.175782zm0 0" fill="#4482c3"/><path d="m449.058594 198.179688.441406-.175782 25.335938 75.652344-36.8125.351562-18.625-53.316406zm0 0" fill="#4482c3"/><path d="m122.703125 197.121094c-3.191406 12.890625-14.222656 22.324218-27.453125 23.480468-.851562.074219-1.707031.101563-2.558594.089844-9.617187.015625-18.675781-4.496094-24.453125-12.183594h-.089843c-5.898438-7.6875-7.828126-17.710937-5.203126-27.039062 2.621094-9.332031 9.492188-16.878906 18.535157-20.367188.085937 0 .085937-.085937.175781-.085937zm0 0" fill="#285680"/><path d="m389.296875 197.121094c3.191406 12.890625 14.222656 22.324218 27.453125 23.480468.851562.074219 1.707031.101563 2.558594.089844 9.617187.015625 18.675781-4.496094 24.453125-12.183594h.089843c5.898438-7.6875 7.828126-17.710937 5.207032-27.039062-2.625-9.332031-9.496094-16.878906-18.539063-20.367188-.085937 0-.085937-.085937-.175781-.085937zm0 0" fill="#285680"/><path d="m370.757812 97.457031c37.960938 12.886719 61.792969 31.691407 61.792969 52.613281 0 39.015626-74.152343 70.621094-176.550781 70.621094s-176.550781-31.605468-176.550781-70.621094c0-20.921874 23.832031-39.726562 61.792969-52.613281zm0 0" fill="#4482c3"/><path d="m370.757812 102.816406c0 30.972656-46.503906 56.082032-114.757812 56.082032s-114.757812-25.109376-114.757812-56.082032c0-30.976562 8.828124-102.816406 114.757812-102.816406s114.757812 71.839844 114.757812 102.816406zm0 0" fill="#3b97d3"/><path d="m256 123.585938c-9.75 0-17.65625-7.902344-17.65625-17.65625v-26.480469h35.3125v26.480469c0 9.753906-7.90625 17.65625-17.65625 17.65625zm0 0" fill="#90bae1"/><path d="m35.308594 269.242188h35.3125c9.75 0 17.65625 7.902343 17.65625 17.65625v35.308593c0 9.75-7.90625 17.65625-17.65625 17.65625h-35.3125c-9.75 0-17.652344-7.90625-17.652344-17.65625v-35.308593c0-9.753907 7.902344-17.65625 17.652344-17.65625zm0 0" fill="#285680"/><path d="m441.378906 269.242188h35.3125c9.75 0 17.652344 7.902343 17.652344 17.65625v35.308593c0 9.75-7.902344 17.65625-17.652344 17.65625h-35.3125c-9.75 0-17.65625-7.90625-17.65625-17.65625v-35.308593c0-9.753907 7.90625-17.65625 17.65625-17.65625zm0 0" fill="#285680"/><path d="m247.171875 256h17.65625c9.75 0 17.65625 7.90625 17.65625 17.65625s-7.90625 17.652344-17.65625 17.652344h-17.65625c-9.75 0-17.65625-7.902344-17.65625-17.652344s7.90625-17.65625 17.65625-17.65625zm0 0" fill="#df4d60"/><path d="m185.378906 397.242188c14.625 0 26.484375 11.855468 26.484375 26.480468v40.554688h-52.964843v-40.554688c0-14.625 11.855468-26.480468 26.480468-26.480468zm0 0" fill="#4482c3"/><path d="m326.621094 397.242188c14.625 0 26.480468 11.855468 26.480468 26.480468v40.554688h-52.964843v-40.554688c0-14.625 11.859375-26.480468 26.484375-26.480468zm0 0" fill="#4482c3"/><path d="m220.691406 476.953125c.628906.199219 1.25.433594 1.851563.707031l10.945312 5.386719c3 1.507813 4.878907 4.585937 4.855469 7.945313v12.179687c0 4.875-3.949219 8.828125-8.828125 8.828125h-88.273437c-4.875 0-8.828126-3.953125-8.828126-8.828125v-12.179687c-.023437-3.359376 1.859376-6.4375 4.855469-7.945313l10.945313-5.386719c.601562-.273437 1.222656-.507812 1.855468-.707031v-17.917969c0-4.875 3.949219-8.828125 8.828126-8.828125h52.964843c4.875 0 8.828125 3.953125 8.828125 8.828125zm0 0" fill="#285680"/><path d="m361.929688 476.953125c.632812.199219 1.253906.433594 1.855468.707031l10.945313 5.386719c2.996093 1.507813 4.878906 4.585937 4.855469 7.945313v12.179687c0 4.875-3.953126 8.828125-8.828126 8.828125h-88.273437c-4.875 0-8.828125-3.953125-8.828125-8.828125v-12.179687c-.023438-3.359376 1.855469-6.4375 4.855469-7.945313l10.945312-5.386719c.601563-.273437 1.222657-.507812 1.851563-.707031v-17.917969c0-4.875 3.953125-8.828125 8.828125-8.828125h52.964843c4.878907 0 8.828126 3.953125 8.828126 8.828125zm0 0" fill="#285680"/><path d="m326.621094 66.207031c0-12.1875-31.617188-22.070312-70.621094-22.070312s-70.621094 9.882812-70.621094 22.070312 31.617188 22.070313 70.621094 22.070313 70.621094-9.882813 70.621094-22.070313zm0 0" fill="#b0d3f0"/></svg>