<?xml version="1.0" encoding="iso-8859-1"?>
<!-- Generator: Adobe Illustrator 19.0.0, SVG Export Plug-In . SVG Version: 6.00 Build 0)  -->
<svg version="1.1" id="Capa_1" xmlns="http://www.w3.org/2000/svg" xmlns:xlink="http://www.w3.org/1999/xlink" x="0px" y="0px"
	 viewBox="0 0 504.526 504.526" style="enable-background:new 0 0 504.526 504.526;" xml:space="preserve">
<polygon style="fill:#FFFFFF;" points="416.698,425.555 456.083,496.448 496.255,425.555 "/>
<path style="fill:#183651;" d="M456.083,504.325c-3.151,0-5.514-1.575-7.089-3.938l-39.385-70.892c-1.575-2.363-1.575-5.514,0-7.877
	c1.575-2.363,3.938-3.938,7.089-3.938h79.557c3.151,0,5.514,1.575,7.089,3.938c1.575,2.363,1.575,5.514,0,7.877l-39.385,70.892
	C461.597,502.749,459.234,504.325,456.083,504.325z M430.089,433.432l25.994,47.262l25.994-47.262H430.089z"/>
<rect x="416.698" y="82.909" style="fill:#FCBD5E;" width="79.557" height="342.646"/>
<path style="fill:#183651;" d="M496.255,433.432h-79.557c-4.726,0-7.877-3.151-7.877-7.877V82.909c0-4.726,3.151-7.877,7.877-7.877
	h79.557c4.726,0,7.877,3.151,7.877,7.877v342.646C504.132,430.282,500.982,433.432,496.255,433.432z M424.575,417.678h63.803V90.786
	h-63.803V417.678z"/>
<rect x="440.329" y="106.54" style="fill:#FFFFFF;" width="32.295" height="295.385"/>
<path style="fill:#4EBD9E;" d="M416.698,47.463v35.446h79.557V47.463c0-22.055-18.117-39.385-39.385-39.385
	C434.815,8.078,416.698,26.195,416.698,47.463z"/>
<g>
	<path style="fill:#183651;" d="M496.255,90.786h-79.557c-4.726,0-7.877-3.151-7.877-7.877V47.463
		c0-25.994,21.268-47.262,47.262-47.262s47.262,21.268,47.262,47.262v35.446C504.132,87.635,500.982,90.786,496.255,90.786z
		 M424.575,75.032h63.803V47.463c0-17.329-14.178-31.508-31.508-31.508c-17.329,0-31.508,14.178-31.508,31.508v27.569H424.575z"/>
	<rect x="348.957" y="15.955" style="fill:#183651;" width="15.754" height="15.754"/>
	<rect x="348.957" y="175.857" style="fill:#183651;" width="15.754" height="15.754"/>
	<rect x="348.957" y="56.128" style="fill:#183651;" width="15.754" height="15.754"/>
	<rect x="348.957" y="215.242" style="fill:#183651;" width="15.754" height="15.754"/>
	<rect x="348.957" y="95.512" style="fill:#183651;" width="15.754" height="15.754"/>
	<rect x="348.957" y="255.414" style="fill:#183651;" width="15.754" height="15.754"/>
	<rect x="348.957" y="135.685" style="fill:#183651;" width="15.754" height="15.754"/>
	<rect x="348.957" y="295.586" style="fill:#183651;" width="15.754" height="15.754"/>
	<rect x="36.243" y="15.955" style="fill:#183651;" width="15.754" height="15.754"/>
	<rect x="36.243" y="175.857" style="fill:#183651;" width="15.754" height="15.754"/>
	<rect x="36.243" y="56.128" style="fill:#183651;" width="15.754" height="15.754"/>
	<rect x="36.243" y="215.242" style="fill:#183651;" width="15.754" height="15.754"/>
	<rect x="36.243" y="95.512" style="fill:#183651;" width="15.754" height="15.754"/>
	<rect x="36.243" y="255.414" style="fill:#183651;" width="15.754" height="15.754"/>
	<rect x="36.243" y="135.685" style="fill:#183651;" width="15.754" height="15.754"/>
	<rect x="35.455" y="295.586" style="fill:#183651;" width="15.754" height="15.754"/>
</g>
<path style="fill:#FFFFFF;" d="M388.342,453.912L251.283,258.565V104.177c0-18.117,14.966-33.083,33.083-33.083H116.588
	c18.117,0,33.083,14.966,33.083,33.083v154.388L12.612,453.912c-12.603,18.117,0,42.535,22.055,42.535h331.618
	C387.554,496.448,400.945,472.029,388.342,453.912z"/>
<path style="fill:#183651;" d="M366.286,504.325H34.668c-12.603,0-24.418-7.089-30.72-18.905
	c-6.302-11.815-4.726-25.206,2.363-36.234l135.483-192.985V104.177c0-14.178-11.028-25.206-25.206-25.206
	c-4.726,0-7.877-3.151-7.877-7.877s3.151-7.877,7.877-7.877h166.991c4.726,0,7.877,3.151,7.877,7.877s-3.151,7.877-7.877,7.877
	c-14.178,0-25.206,11.028-25.206,25.206v152.025l135.483,193.772c7.089,10.24,8.665,24.418,2.363,36.234
	C390.705,497.235,378.889,504.325,366.286,504.325z M148.883,78.971c5.514,7.089,8.665,15.754,8.665,25.206v154.388
	c0,1.575-0.788,3.151-1.575,4.726L18.914,458.638c-3.938,5.514-4.726,13.391-1.575,19.692c3.938,6.302,10.24,10.24,17.329,10.24
	h331.618c7.089,0,13.391-3.938,16.542-10.24c3.151-6.302,3.151-13.391-1.575-19.692L244.982,263.291
	c-0.788-1.575-1.575-3.151-1.575-4.726V104.177c0-9.452,3.151-18.117,8.665-25.206H148.883z"/>
<g>
	<polygon style="fill:#F05F50;" points="256.009,320.005 144.945,320.005 44.12,464.94 356.834,464.94 	"/>
	<circle style="fill:#F05F50;" cx="187.48" cy="126.232" r="15.754"/>
	<circle style="fill:#F05F50;" cx="187.48" cy="236.509" r="15.754"/>
	<circle style="fill:#F05F50;" cx="213.474" cy="181.371" r="15.754"/>
</g>
<circle style="fill:#FFFFFF;" cx="200.083" cy="26.983" r="18.905"/>
<path style="fill:#183651;" d="M200.083,53.765c-14.966,0-26.782-11.815-26.782-26.782s11.815-26.782,26.782-26.782
	c14.966,0,26.782,11.815,26.782,26.782C226.865,41.162,215.049,53.765,200.083,53.765z M200.083,15.955
	c-6.302,0-11.028,4.726-11.028,11.028s4.726,11.028,11.028,11.028s11.028-4.726,11.028-11.028S206.385,15.955,200.083,15.955z"/>
<circle style="fill:#FFFFFF;" cx="96.108" cy="143.562" r="18.905"/>
<path style="fill:#183651;" d="M96.108,170.343c-14.966,0-26.782-11.815-26.782-26.782c0-14.966,11.815-26.782,26.782-26.782
	s26.782,11.815,26.782,26.782C122.889,158.528,111.074,170.343,96.108,170.343z M96.108,132.534
	c-6.302,0-11.028,4.726-11.028,11.028c0,6.302,4.726,11.028,11.028,11.028c6.302,0,11.028-4.726,11.028-11.028
	C107.135,137.26,102.409,132.534,96.108,132.534z"/>
<g>
</g>
<g>
</g>
<g>
</g>
<g>
</g>
<g>
</g>
<g>
</g>
<g>
</g>
<g>
</g>
<g>
</g>
<g>
</g>
<g>
</g>
<g>
</g>
<g>
</g>
<g>
</g>
<g>
</g>
</svg>
