<svg height="512" viewBox="0 0 64 64" width="512" xmlns="http://www.w3.org/2000/svg"><g id="Fill_Outline" data-name="Fill Outline"><g id="Color"><g><path d="m21 3h15a7 7 0 0 1 7 7 7 7 0 0 1 -7 7h-8a7 7 0 0 1 -7-7v-7a0 0 0 0 1 0 0z" fill="#c4f236"/><path d="m41 10.5a2.5 2.5 0 0 0 -2.5-2.5 20.27 20.27 0 0 1 -13.194-4.881l-.139-.119h-4.167v7a7 7 0 0 0 7 7h8a7 7 0 0 0 6.436-4.246 2.494 2.494 0 0 1 -1.436-2.254z" fill="#a1d51c"/><path d="m50 36-.506-5.552a5 5 0 0 0 -4.969-4.448h-25.05a5 5 0 0 0 -4.969 4.448l-.506 5.552-5 1 1 5h6.059a4 4 0 0 0 3.818-2.807l1.716-5.493 1.407 18.3h18l1.407-18.3 1.716 5.489a4 4 0 0 0 3.818 2.811h6.059l1-5z" fill="#aae1f9"/><path d="m50.607 39.273a4.067 4.067 0 0 1 -3.436-2.759l-1.244-3.732a4.067 4.067 0 0 0 -3.859-2.782 4.064 4.064 0 0 1 -4.061-4h-18.532a5 5 0 0 0 -4.969 4.448l-.506 5.552-5 1 1 5h6.059a4 4 0 0 0 3.818-2.807l1.716-5.493 1.407 18.3h18l1.407-18.3 1.716 5.489a4 4 0 0 0 3.818 2.811h6.059l.465-2.323z" fill="#57b7eb"/><path d="m37.093 45h-.175c-7.923-.114-11.8-9.779-6.357-15.535l.439-.465v-3h-11.525a5 5 0 0 0 -4.969 4.448l-.506 5.552-5 1 1 5h6.059a4 4 0 0 0 3.818-2.807l1.716-5.493 1.407 18.3h18l.538-7z" fill="#4891d3"/><path d="m24.809 52.548.34.07a4.015 4.015 0 0 0 1.837-.055l1.986-.532 1.553 5.8-1.986.532a4 4 0 0 0 -1.618.871l-.26.231a4.006 4.006 0 0 1 -1.619.871l-1.986.532a4 4 0 0 1 -4.9-2.829 4 4 0 0 1 2.828-4.9l1.986-.532a4.015 4.015 0 0 1 1.839-.059z" fill="#fcbc04"/><path d="m26.987 52.563a4.02 4.02 0 0 1 -1.838.055l-.34-.07a4.015 4.015 0 0 0 -1.837.055l-1.986.532a3.988 3.988 0 0 0 -2.939 3.593l9 2.412a3.982 3.982 0 0 1 1.49-.782l1.986-.532-1.553-5.8z" fill="#e59730"/><path d="m33.306 47.564h22a0 0 0 0 1 0 0v8a0 0 0 0 1 0 0h-22a4 4 0 0 1 -4-4 4 4 0 0 1 4-4z" fill="#a1d51c" transform="matrix(-.966 .259 -.259 -.966 96.515 90.421)"/><path d="m51.511 49.722a8 8 0 0 1 -8.18-2.574l-14.618 3.917 2.071 7.727 21.25-5.692a3.989 3.989 0 0 0 2.926-4.3z" fill="#7ab92d"/><path d="m6 42h4l-1-5-3 1-1.293-1.293a1 1 0 0 0 -1.707.707v1.586a3 3 0 0 0 3 3z" fill="#fcbc04"/><path d="m13.694 47.564h22a0 0 0 0 1 0 0v8a0 0 0 0 1 0 0h-22a4 4 0 0 1 -4-4 4 4 0 0 1 4-4z" fill="#c4f236" transform="matrix(.966 .259 -.259 .966 14.119 -4.117)"/><path d="m58 42h-4l1-5 3 1 1.293-1.293a1 1 0 0 1 1.707.707v1.586a3 3 0 0 1 -3 3z" fill="#f9e109"/><path d="m28 21h8a0 0 0 0 1 0 0v4a4 4 0 0 1 -4 4 4 4 0 0 1 -4-4v-4a0 0 0 0 1 0 0z" fill="#fcbc04"/><path d="m40.191 52.548-.34.07a4.015 4.015 0 0 1 -1.837-.055l-1.986-.532-1.553 5.8 1.986.532a4 4 0 0 1 1.618.871l.26.231a4.006 4.006 0 0 0 1.619.871l1.986.532a4 4 0 0 0 4.9-2.829 4 4 0 0 0 -2.828-4.9l-1.988-.539a4.015 4.015 0 0 0 -1.837-.052z" fill="#f9e109"/><path d="m15.966 49.1a3.986 3.986 0 0 1 -2.944-3.724 3.987 3.987 0 0 0 -.056 7.724l21.25 5.694 1.2-4.482z" fill="#a1d51c"/><path d="m43.943 57.863-1.985-.532a4.006 4.006 0 0 1 -1.619-.871l-.26-.231a4 4 0 0 0 -1.618-.871 2.055 2.055 0 0 1 -1.454-2.517l.137-.511-1.116-.3-1.553 5.8 1.986.532a4 4 0 0 1 1.618.871l.26.231a4.006 4.006 0 0 0 1.619.871l1.985.532a4 4 0 0 0 4.9-2.829 3.867 3.867 0 0 0 .09-.55 3.98 3.98 0 0 1 -2.99.375z" fill="#fcbc04"/><path d="m60 40h-.341a2.99 2.99 0 0 1 -2.93-2.424l-1.729-.576-1 5h4a2.99 2.99 0 0 0 2.86-2.14 2.983 2.983 0 0 1 -.86.14z" fill="#fcbc04"/><path d="m4 40h.341a2.99 2.99 0 0 0 2.93-2.424l1.729-.576 1 5h-4a2.99 2.99 0 0 1 -2.86-2.14 2.983 2.983 0 0 0 .86.14z" fill="#e59730"/><path d="m34 27a3.978 3.978 0 0 1 -2.761-1.116 7.01 7.01 0 0 0 4.761-3.284v-1.6h-8v4a3.995 3.995 0 0 0 7.64 1.64 3.961 3.961 0 0 1 -1.64.36z" fill="#e59730"/><path d="m32 24a7 7 0 0 1 -7-7v-9a27.969 27.969 0 0 0 10.386 2h3.614v7a7 7 0 0 1 -7 7z" fill="#f9e109"/><path d="m35.386 10a27.969 27.969 0 0 1 -10.386-2v9a6.99 6.99 0 0 0 8.5 6.835 7 7 0 0 1 -5.5-6.835v-5a27.963 27.963 0 0 0 7.386 1h3.614v-3z" fill="#fcbc04"/><circle cx="32" cy="39" fill="#f89c8d" r="5"/><path d="m32 44a4.9 4.9 0 0 0 .771-.078 9.29 9.29 0 0 1 -4.726-7.949 4.976 4.976 0 0 0 3.955 8.027z" fill="#f8664f"/></g></g><g id="Outline_copy" data-name="Outline copy"><g fill="#39519d"><path d="m60.765 35.566a1.993 1.993 0 0 0 -2.179.434l-.856.856-2.414-.8a.813.813 0 0 0 -.12-.031l-4.268-.854-.44-4.829a5.993 5.993 0 0 0 -5.963-5.342h-4.667a1 1 0 0 0 0 2h4.667a3.991 3.991 0 0 1 3.975 3.539l.5 5.552a1 1 0 0 0 .8.889l4.019.8-.639 3.22h-5.239a2.986 2.986 0 0 1 -2.863-2.1l-1.716-5.49a1 1 0 0 0 -1.952.222l-.754 9.807a1 1 0 0 0 .92 1.073q.039 0 .078 0a1 1 0 0 0 1-.923l.355-4.619.163.523a4.979 4.979 0 0 0 4.769 3.507h10.059a4 4 0 0 0 4-4v-1.586a2 2 0 0 0 -1.235-1.848zm-.765 3.434a2 2 0 0 1 -2 2h-2.78l.538-2.693 1.926.642a1 1 0 0 0 1.023-.242l1.293-1.293z"/><path d="m30.768 15.207a1 1 0 1 0 -1.415-1.414.5.5 0 0 1 -.706 0 1 1 0 1 0 -1.415 1.414 2.5 2.5 0 0 0 3.536 0z"/><path d="m35 15.939a2.484 2.484 0 0 0 1.768-.732 1 1 0 1 0 -1.415-1.414.5.5 0 0 1 -.706 0 1 1 0 1 0 -1.415 1.414 2.484 2.484 0 0 0 1.768.732z"/><path d="m29.106 18.553a1 1 0 0 0 .448 1.342 5.5 5.5 0 0 0 4.893 0 1 1 0 1 0 -.894-1.79 3.484 3.484 0 0 1 -3.106 0 1 1 0 0 0 -1.341.448z"/><path d="m29.171 34.757a1 1 0 0 0 -1.414 0 6 6 0 1 0 4.243-1.757 1 1 0 0 0 0 2 4 4 0 1 1 -2.829 1.171 1 1 0 0 0 0-1.414z"/><circle cx="32" cy="39" r="1"/><path d="m52.051 26.316a1 1 0 0 0 1.265.633l6-2a1 1 0 1 0 -.632-1.9l-6 2a1 1 0 0 0 -.633 1.267z"/><path d="m48.293 22.707a1 1 0 0 0 1.414 0l7-7a1 1 0 0 0 -1.414-1.415l-7 7a1 1 0 0 0 0 1.415z"/><path d="m44.594 19.914a1 1 0 0 0 1.32-.508l4-9a1 1 0 0 0 -1.828-.812l-4 9a1 1 0 0 0 .508 1.32z"/><path d="m4.684 24.949 6 2a1 1 0 0 0 .632-1.9l-6-2a1 1 0 0 0 -.632 1.9z"/><path d="m14.293 22.707a1 1 0 0 0 1.414-1.414l-7-7a1 1 0 0 0 -1.414 1.415z"/><path d="m18.086 19.406a1 1 0 0 0 1.828-.812l-4-9a1 1 0 1 0 -1.828.812z"/><path d="m49.705 44.405-17.2 4.61-2.521-.675a1 1 0 0 0 -.517 1.931l5.6 1.5-1.553 5.8-20.289-5.439a3 3 0 0 1 1.552-5.8l10.821 2.9a1 1 0 0 0 .518-1.932l-2.526-.677-1-13a1 1 0 0 0 -1.952-.222l-1.716 5.499a2.986 2.986 0 0 1 -2.863 2.1h-5.239l-.643-3.216 4.019-.8a1 1 0 0 0 .8-.889l.5-5.533a4 4 0 0 1 3.979-3.562h7.949a5 5 0 0 0 9.576-2v-1.765a7.984 7.984 0 0 0 3-6.235v-.1a7.98 7.98 0 0 0 -4-14.9h-15a1 1 0 0 0 -1 1v7a8.027 8.027 0 0 0 4 6.9v.1a7.984 7.984 0 0 0 3 6.235v1.765h-7.525a6 6 0 0 0 -5.965 5.357l-.438 4.809-4.272.854a1 1 0 0 0 -.78 1.18l.76 3.8h-2.78a2 2 0 0 1 -2-2v-1.586l1.293 1.293a1 1 0 1 0 1.414-1.414l-1.293-1.293a2 2 0 0 0 -3.414 1.414v1.586a4 4 0 0 0 4 4h10.059a4.979 4.979 0 0 0 4.773-3.509l.168-.522.547 7.11-6.247-1.674a5 5 0 1 0 -2.588 9.659l4.632 1.241a4.918 4.918 0 0 0 -.147 2.988 5 5 0 0 0 6.123 3.536l1.98-.529a5.012 5.012 0 0 0 2.023-1.088l.26-.23a3.017 3.017 0 0 1 1.214-.654l1.77-.474 3.389.908a1.013 1.013 0 0 0 .259.034 1 1 0 0 0 .966-.741l1.02.273a3.027 3.027 0 0 1 1.214.653l.26.231a5.012 5.012 0 0 0 2.025 1.088l1.986.533a5.035 5.035 0 0 0 1.3.172 5 5 0 0 0 1.286-9.832l-1.986-.532a5.042 5.042 0 0 0 -2.3-.069l-.342.07a3.04 3.04 0 0 1 -1.378-.041l-1.02-.273a1 1 0 0 0 -.707-1.225l-.182-.049 13.86-3.714a3 3 0 0 1 1.552 5.8l-2.283.612a1 1 0 0 0 .258 1.966 1.015 1.015 0 0 0 .26-.034l2.283-.612a5 5 0 1 0 -2.588-9.659zm-23.705-27.405v-7.562a28.827 28.827 0 0 0 9.386 1.562h3.614a1 1 0 0 0 0-2h-3.614a26.834 26.834 0 0 1 -10.014-1.929 1 1 0 0 0 -1.372.929v6.458a6.02 6.02 0 0 1 -2-4.458v-6h14a5.99 5.99 0 0 1 4 10.458v-.458a1 1 0 0 0 -2 0v3a6 6 0 0 1 -12 0zm6 8a7.945 7.945 0 0 0 3-.589v.589a3 3 0 0 1 -6 0v-.589a7.945 7.945 0 0 0 3 .589zm-5.743 33.481-.26.23a3.01 3.01 0 0 1 -1.214.654l-1.983.535a3 3 0 0 1 -3.674-2.122 2.941 2.941 0 0 1 .154-1.95l7.781 2.085a4.966 4.966 0 0 0 -.804.568zm13.793-4.881.341-.07a3.026 3.026 0 0 1 1.378.041l1.985.532a3 3 0 0 1 -1.554 5.797l-1.985-.532a3.02 3.02 0 0 1 -1.215-.656l-.26-.232a5.019 5.019 0 0 0 -2.024-1.087l-1.016-.274 1.035-3.864 1.019.273a5.005 5.005 0 0 0 2.296.072z"/></g></g></g></svg>