<svg height="512pt" viewBox="0 -18 512 512" width="512pt" xmlns="http://www.w3.org/2000/svg"><path d="m504.242188 100.847656h-496.484376c-4.285156 0-7.757812-3.472656-7.757812-7.757812s3.472656-7.757813 7.757812-7.757813h496.484376c4.285156 0 7.757812 3.472657 7.757812 7.757813s-3.472656 7.757812-7.757812 7.757812zm0 0" fill="#b3b3b3"/><path d="m178.425781 183.597656c-21.390625 0-38.789062-17.402344-38.789062-38.789062v-51.71875c0-4.285156-3.472657-7.757813-7.757813-7.757813s-7.757812 3.472657-7.757812 7.757813v51.71875c0 29.941406 24.359375 54.300781 54.304687 54.300781h77.574219v-15.511719zm0 0" fill="#ffd9d4"/><path d="m380.121094 85.332031c-4.285156 0-7.757813 3.472657-7.757813 7.757813v51.71875c0 21.386718-17.398437 38.789062-38.789062 38.789062h-77.574219v15.511719h77.574219c29.945312 0 54.304687-24.359375 54.304687-54.300781v-51.71875c0-4.285156-3.472656-7.757813-7.757812-7.757813zm0 0" fill="#ffb4a9"/><path d="m38.789062 31.03125c-8.570312 0-15.515624 6.945312-15.515624 15.515625v93.089844c0 8.566406 6.945312 15.515625 15.515624 15.515625 8.566407 0 15.515626-6.949219 15.515626-15.515625v-93.089844c0-8.570313-6.949219-15.515625-15.515626-15.515625zm0 0" fill="#4f4f4f"/><path d="m473.210938 31.03125c-8.566407 0-15.515626 6.945312-15.515626 15.515625v93.089844c0 8.566406 6.949219 15.515625 15.515626 15.515625 8.570312 0 15.515624-6.949219 15.515624-15.515625v-93.089844c0-8.570313-6.945312-15.515625-15.515624-15.515625zm0 0" fill="#4f4f4f"/><path d="m279.273438 23.273438c0 12.851562-10.421876 23.273437-23.273438 23.273437s-23.273438-10.421875-23.273438-23.273437c0-12.855469 10.421876-23.273438 23.273438-23.273438s23.273438 10.417969 23.273438 23.273438zm0 0" fill="#a45e43"/><path d="m256 46.546875v93.089844c25.707031 0 46.546875-20.839844 46.546875-46.546875zm0 0" fill="#ffb4a9"/><path d="m256 46.546875-46.546875 46.542969c0 25.707031 20.839844 46.546875 46.546875 46.546875 8.570312 0 15.515625-20.839844 15.515625-46.546875 0-25.707032-6.945313-46.542969-15.515625-46.542969zm0 0" fill="#ffd9d4"/><path d="m256 46.546875c-25.707031 0-46.546875 20.835937-46.546875 46.542969 25.707031 0 46.546875-20.835938 46.546875-46.542969zm0 0" fill="#a45e43"/><path d="m302.546875 93.089844c0-25.707032-20.839844-46.542969-46.546875-46.542969 0 25.707031 20.839844 46.542969 46.546875 46.542969zm0 0" fill="#85453d"/><path d="m69.816406 77.574219c-8.566406 0-15.511718 6.949219-15.511718 15.515625v364.089844l31.027343-20.6875v-343.402344c0-8.566406-6.945312-15.515625-15.515625-15.515625zm0 0" fill="#999"/><path d="m442.183594 77.574219c-8.570313 0-15.515625 6.949219-15.515625 15.515625v343.402344l31.027343 20.6875v-364.089844c0-8.566406-6.945312-15.515625-15.511718-15.515625zm0 0" fill="#999"/><path d="m496.484375 436.492188h-69.816406v31.03125h85.332031v-15.515626c0-8.566406-6.945312-15.515624-15.515625-15.515624zm0 0" fill="#ccc"/><path d="m15.515625 436.492188h69.816406v31.03125h-85.332031v-15.515626c0-8.566406 6.945312-15.515624 15.515625-15.515624zm0 0" fill="#ccc"/><path d="m240.484375 343.402344h31.03125v124.121094h-31.03125zm0 0" fill="#ebebeb"/><path d="m256 263.757812 15.515625 98.261719h31.03125v-67.230469zm0 0" fill="#999"/><path d="m209.453125 294.789062v67.230469h62.0625v-98.261719zm0 0" fill="#b3b3b3"/><path d="m297.375 170.667969h-31.03125l5.171875 124.121093h31.03125v-46.546874c8.300781-6.238282 14.074219-15.65625 15.515625-26.449219v-30.4375c0-11.425781-9.265625-20.6875-20.6875-20.6875zm0 0" fill="#ff4996"/><path d="m287.03125 221.792969v-30.4375c0-11.425781-9.261719-20.6875-20.6875-20.6875h-51.71875c-11.425781 0-20.6875 9.261719-20.6875 20.6875v30.4375c1.441406 10.792969 7.214844 20.210937 15.515625 26.449219v46.546874h62.0625v-46.546874c8.304687-6.238282 14.074219-15.65625 15.515625-26.449219zm0 0" fill="#ff6b8a"/><path d="m364.605469 356.847656c0-8.566406-6.945313-15.515625-15.515625-15.515625h-186.179688c-8.570312 0-15.515625 6.949219-15.515625 15.515625 0 8.570313 6.945313 15.515625 15.515625 15.515625h186.179688c8.570312 0 15.515625-6.945312 15.515625-15.515625zm0 0" fill="#4f4f4f"/><path d="m287.03125 475.28125h-62.0625c-4.285156 0-7.757812-3.472656-7.757812-7.757812 0-4.285157 3.472656-7.757813 7.757812-7.757813h62.0625c4.285156 0 7.757812 3.472656 7.757812 7.757813 0 4.285156-3.472656 7.757812-7.757812 7.757812zm0 0" fill="#ccc"/><path d="m178.425781 318.0625c-4.285156 0-7.757812 3.46875-7.757812 7.753906v110.914063l-13.660157 27.320312c-1.917968 3.832031-.363281 8.492188 3.46875 10.410157 3.832032 1.917968 8.492188.363281 10.40625-3.46875l14.476563-28.964844c.519531-1.046875.824219-2.21875.824219-3.46875v-112.742188c0-4.285156-3.472656-7.753906-7.757813-7.753906zm0 0" fill="#ffd9d4"/><path d="m333.574219 318.0625c4.285156 0 7.757812 3.46875 7.757812 7.753906v110.914063l13.660157 27.320312c1.917968 3.832031.363281 8.492188-3.46875 10.410157-3.832032 1.917968-8.492188.363281-10.40625-3.46875l-14.476563-28.964844c-.519531-1.046875-.824219-2.21875-.824219-3.46875v-112.742188c0-4.285156 3.472656-7.753906 7.757813-7.753906zm0 0" fill="#ffb4a9"/></svg>