<svg id="Layer_1_1_" enable-background="new 0 0 64 64" height="512" viewBox="0 0 64 64" width="512" xmlns="http://www.w3.org/2000/svg"><path d="m61 61-8-2-13 2-15-2-11 2h-11l1-17-1-12 1-12-1-17 8 1 2 4 1-4 15-1 16 1 16-1-1 16 1 23z" fill="#ded8d0"/><path d="m25 59 15 2 13-2 8 2v-19l-.71814-16.51654-20.28186 10.51654-7 9-14 9-15.68195 1.59314-.31805 5.40686h11z" fill="#c9c4bd"/><path d="m33 8h19v8h-19z" fill="#f09d3a"/><path d="m28 21h19v8h-19z" fill="#f09d3a"/><path d="m52 16v8l-5 5v-8z" fill="#f09d3a"/><path d="m33 16-5 5h19l5-5z" fill="#223b5a"/><path d="m52 16c2.20914 0 4-1.79086 4-4s-1.79086-4-4-4z" fill="#f5a947"/><path d="m25.1894 15.63081c.47129-1.6619 1.77951-2.97012 3.44141-3.44141.19899-.05643.19899-.32236 0-.37879-1.6619-.47129-2.97012-1.77951-3.44141-3.44141-.05643-.19899-.32236-.19899-.37879 0-.47129 1.6619-1.77951 2.97012-3.44141 3.44141-.19899.05643-.19899.32236 0 .37879 1.6619.47129 2.97012 1.77951 3.44141 3.44141.05642.19898.32236.19898.37879 0z" fill="#f5a947"/><path d="m39 47 3-9 4 4 5-10 6 16h-18z" fill="#e34e4b"/><path d="m48 48 2-5 2 5z" fill="#284163"/><path d="m8 20 3-7 3 7z" fill="#50b6cf"/><path d="m14 18 3-7 3 7z" fill="#50b6cf"/><path d="m12 38 10 10 12-11-10-10z" fill="#50b6cf"/><path d="m33 21c0-1.65685 1.34315-3 3-3s3 1.34315 3 3z" fill="#f5a947"/><path d="m40 21c0-1.65685 1.34315-3 3-3s3 1.34315 3 3z" fill="#f5a947"/><path d="m14.69678 40.66699-1.41406-1.41406c.70654-.70654 1.40088-.80518 1.86084-.87061.34912-.04932.49365-.06982.72852-.30469.23535-.23535.25586-.38037.30566-.72998.06592-.45996.16504-1.15479.87158-1.86133s1.40137-.80518 1.86133-.87061c.34912-.04932.49365-.06982.72803-.3042.23584-.23584.25635-.38086.30664-.73096.06543-.46045.16504-1.15527.87256-1.86279.70703-.70703 1.40234-.80713 1.8623-.87354.35156-.05078.49658-.07178.73389-.30859.2373-.2373.25781-.38232.30859-.7334.06592-.45996.16602-1.15527.87305-1.86279l1.41504 1.41406c-.2373.23682-.2583.38232-.30859.7334-.06592.45996-.16602 1.15527-.87402 1.86328-.70752.70703-1.40283.80713-1.86279.87354-.35107.05078-.49609.07129-.73291.30859-.23682.23633-.25732.38086-.30762.73145-.06543.45947-.16504 1.1543-.87158 1.86182-.70703.70654-1.40186.80518-1.86182.87061-.34912.04932-.49365.06982-.72803.3042-.23486.23535-.25537.37988-.30566.72949-.06543.45996-.16455 1.15527-.87158 1.8623-.70654.70654-1.40137.80518-1.86133.87061-.34914.04932-.49367.06983-.72804.3042z" fill="#3cadc9"/><path d="m18.03955 44.01074-1.41406-1.41504c.70654-.70605 1.40137-.80469 1.86133-.87012.34912-.04932.49365-.06982.72852-.30469.23535-.23535.25586-.38037.30566-.72998.06543-.45996.16455-1.15479.87158-1.86182.70654-.70654 1.40137-.80518 1.86133-.87012.34863-.04932.49316-.06982.72754-.3042.23584-.23633.25684-.38135.30713-.73145.06543-.45996.16504-1.15479.87158-1.8623.70801-.70752 1.40332-.80762 1.86328-.87354.35107-.05078.49658-.07129.73389-.30859.23682-.23682.25732-.38232.30811-.7334.06592-.45996.16602-1.15527.87402-1.86328l1.41406 1.41504c-.2373.23682-.25781.38184-.30859.73291-.06592.45996-.16602 1.15527-.87305 1.86279-.70801.70801-1.40381.80811-1.86377.87402-.35107.05078-.49658.07129-.7334.30859-.23584.23535-.25635.38037-.30664.73096-.06543.45996-.16504 1.15479-.87256 1.8623-.70654.70654-1.40137.80518-1.86133.87012-.34863.04932-.49316.06982-.72754.3042-.23535.23535-.25586.38037-.30566.72998-.06543.45996-.16455 1.15479-.87158 1.86182-.70654.70703-1.40186.80566-1.86133.87109-.34961.04934-.49414.06985-.72852.30471z" fill="#3cadc9"/><path d="m21.38281 47.35352-1.41406-1.41406c.70654-.70703 1.40186-.80566 1.86133-.87109.34961-.04932.49414-.06982.72852-.30469.23486-.23486.25537-.37939.30566-.72949.06543-.45996.16455-1.15479.87158-1.86182.70654-.70654 1.40137-.80518 1.86084-.87061.34912-.04932.49365-.06982.72803-.3042.23584-.23633.25684-.38086.30713-.73145.06543-.45947.16504-1.1543.87158-1.86182.70801-.70801 1.40332-.80762 1.86377-.87402.35107-.05029.49609-.07129.7334-.30811.23682-.23682.25781-.38232.30811-.7334.06592-.45996.16602-1.15576.87402-1.86328l1.41406 1.41406c-.2373.2373-.25781.38281-.30859.73389-.06592.45996-.16602 1.15527-.87305 1.86279-.70801.70801-1.40332.80762-1.86377.87402-.35107.05029-.49609.07129-.7334.30811-.23584.23584-.25635.38086-.30664.73096-.06543.46045-.16504 1.15527-.87256 1.86279-.70654.70605-1.40137.80469-1.86084.87012-.34912.04932-.49365.06982-.72803.3042-.23535.23535-.25586.38037-.30566.72998-.06592.45996-.16455 1.15479-.87109 1.86182-.70703.70654-1.40186.80518-1.86182.87061-.34912.04931-.49365.06982-.72852.30469z" fill="#3cadc9"/><g fill="#0d0f23"><path d="m61.00146 19.00928.99659-15.94678c.01807-.28662-.08789-.56689-.29102-.76953-.20264-.20264-.47949-.31055-.76953-.29102l-15.9375.9961-15.9375-.9961c-.04248-.00342-.08545-.00244-.12891.00049l-15 1c-.43311.02881-.79834.33398-.90381.75488l-.34424 1.37744-.79102-1.58203c-.14941-.29883-.43896-.50342-.77051-.54492l-8-1c-.2954-.03857-.5913.05957-.8076.26221-.2168.20312-.33203.49219-.31445.78857l.99561 16.9292-.99414 11.9292c-.00439.05518-.00439.11084 0 .16602l.99414 11.9292-.99561 16.9292c-.0166.2749.08154.54443.27051.74463s.45214.31396.72753.31396h11c.06006 0 .11963-.00537.17871-.01611l10.84521-1.97168 14.84375 1.979c.09521.01367.19141.01172.28418-.00293l12.80127-1.96924 7.8042 1.95117c.08008.02002.16163.02979.24268.02979.2207 0 .43799-.07324.61523-.21191.24268-.18946.38477-.47998.38477-.78809l-.00098-19.04346zm-1.00146 40.70996-6.75732-1.68945c-.12891-.03271-.26367-.03906-.39453-.01807l-12.8584 1.97803-14.85742-1.98096c-.10303-.0127-.20801-.01074-.31104.00732l-10.91162 1.98389h-9.84912l.9375-15.94141c.00293-.04688.00244-.09473-.00146-.1416l-.99317-11.91699.99316-11.91699c.00391-.04688.00439-.09473.00146-.1416l-.92919-15.79981 6.27588.78418 1.76074 3.52148c.1875.37402.58691.59082 1.00342.54688.41602-.0459.75977-.3457.86133-.75146l.82324-3.29346 14.2085-.94727 15.93554.9961c.04199.00293.08301.00293.125 0l14.86865-.9292-.9292 14.86865c-.00244.03516-.00244.0708-.00098.10596l.99903 22.95654z"/><path d="m27.29327 20.29266c-.18115.18097-.29327.43103-.29327.70734v8c0 .55225.44775 1 1 1h19c.27631 0 .52637-.11212.70734-.29327l4.99969-4.99969c.1875-.18751.29297-.4419.29297-.70704v-7.10107c2.2793-.46466 4-2.4845 4-4.89893 0-2.75684-2.24316-5-5-5h-19c-.55225 0-1 .44775-1 1v7.58594zm19.50013-.50012c-.51563-1.61322-2.01136-2.79254-3.7934-2.79254-1.51593 0-2.82172.8576-3.5 2.10382-.67828-1.24622-1.98407-2.10382-3.5-2.10382-1.85828 0-3.41071 1.27972-3.85797 3h-1.72797l3-3h2.58594 7 6.58594zm-2.07154.20746h-3.44373c.34687-.59491.98475-1 1.72187-1s1.375.40509 1.72186 1zm-7 0h-3.44373c.34687-.59491.98475-1 1.72187-1s1.375.40509 1.72186 1zm8.27814 8h-17v-6h17zm2-1.41406v-5.17188l3-3v5.17188zm7-14.58594c0 1.30194-.8385 2.40161-2 2.81573v-5.63146c1.1615.41412 2 1.51379 2 2.81573zm-21-3h17v6h-17z"/><path d="m24 17h2c0-2.20557 1.79443-4 4-4v-2c-2.20557 0-4-1.79443-4-4h-2c0 2.20557-1.79443 4-4 4v2c2.20557 0 4 1.79443 4 4zm1-6.69043c.44495.67004 1.02039 1.24548 1.69043 1.69043-.67004.44495-1.24548 1.02039-1.69043 1.69043-.44495-.67004-1.02039-1.24548-1.69043-1.69043.67004-.44495 1.24548-1.02039 1.69043-1.69043z"/><path d="m13.29297 49.29297-2.29297 2.29297-2.29297-2.29297-1.41406 1.41406 2.29297 2.29297-2.29297 2.29297 1.41406 1.41406 2.29297-2.29297 2.29297 2.29297 1.41406-1.41406-2.29297-2.29297 2.29297-2.29297z"/><path d="m21.31738 52.0625-.31592-.00049v2l.31104.00049c.83545 0 1.74365-.00439 2.70508-.01514l-.02246-2c-.95362.01075-1.85401.01514-2.67774.01514z"/><path d="m15.97021 53.99951s1.14746.03418 3.02197.05176l.01855-2c-1.84473-.01758-2.97559-.05078-2.98145-.05078z"/><path d="m45.61377 50.03809.55469 1.92188c1.2749-.36865 2.2627-.77637 3.02002-1.24707l-1.05566-1.69873c-.59083.36767-1.43848.7119-2.51905 1.02392z"/><path d="m30.96777 51.85498.0918 1.99805c1.00195-.04639 2.0127-.10205 3.01953-.16797l-.13184-1.99609c-.99316.06591-1.99121.1206-2.97949.16601z"/><path d="m40.84521 51.00195.28418 1.97949c1.09961-.1582 2.1167-.33496 3.02295-.52539l-.41113-1.95703c-.86475.18164-1.83935.35108-2.896.50293z"/><path d="m25.98975 52.0166.04004 2c.97461-.02002 1.98535-.04688 3.01758-.08203l-.06837-1.99902c-1.02246.03515-2.02441.06201-2.98925.08105z"/><path d="m35.92822 51.54199.16504 1.99316c1.02734-.08496 2.03955-.18262 3.02148-.29541l-.22852-1.9873c-.96142.11084-1.95214.20654-2.958.28955z"/><path d="m51.93652 31.64893c-.13965-.37256-.48682-.62646-.88428-.64746-.40771-.02734-.76904.19629-.94678.55127l-4.37939 8.75928-3.01904-3.01904c-.24463-.24561-.60107-.3457-.93701-.26611-.33691.07959-.60889.32812-.71875.65674l-1.00647 3.01939c-.41711-.14001-.82587-.28009-1.25525-.42029l-.62012 1.90137c.42535.13861.82996.2774 1.24292.4162l-1.36108 4.08331c-.03418.10205-.05127.20899-.05127.31641v1c0 .55225.44775 1 1 1h18c.32812 0 .63525-.16064.82178-.43018.18701-.27002.22949-.61377.11475-.9209zm-2.45935 15.35107.52283-1.30762.52283 1.30762zm3.2002 0-1.74866-4.37158c-.15234-.3794-.52002-.62842-.92871-.62842s-.77637.24902-.92871.62842l-1.74866 4.37158h-7.26843l2.38281-7.14893 2.85596 2.85596c.22656.22656.5498.32861.86719.28027.31738-.05176.59033-.25244.73438-.54004l3.97412-7.94873 4.68847 12.50147z"/><path d="m11.11328 28.36279-1.17383-1.61914c-1.27734.92578-1.92969 2.0127-1.93994 3.23047l2 .0166c.00147-.2041.00684-.82519 1.11377-1.62793z"/><path d="m14.83984 24.62793c-1.12842.31348-2.12891.6626-2.97363 1.03711l.81055 1.82812c.75586-.33496 1.66406-.65088 2.69922-.93848z"/><path d="m29.347 37.227h2v3.004h-2z" transform="matrix(.287 -.958 .958 .287 -15.455 56.701)"/><path d="m17.76025 33.79688c-.99463-.34131-1.92871-.67822-2.78564-1.01123l-.72461 1.86425c.88037.3418 1.83984.68848 2.86084 1.03857z"/><path d="m13.16943 32.03857c-1.07324-.479-1.89941-.92578-2.45605-1.32812l-1.17188 1.62012c.67725.49023 1.59766.99219 2.81348 1.53418z"/><path d="m19.85742 23.58057c-1.06055.16455-2.07568.35156-3.01611.55566l.42383 1.9541c.90186-.19531 1.87744-.375 2.89893-.5332z"/><path d="m36.27197 41.57715.60059-1.90723c-.94238-.29688-1.90527-.59375-2.87842-.88965l-.58203 1.91309c.96728.29394 1.92334.58887 2.85986.88379z"/><path d="m22.11914 25.28662c1.72021-.21094 2.93115-.2876 2.94336-.28857l-.125-1.99609c-.05127.00342-1.27734.08105-3.06152.29932z"/><path d="m27.27637 36.77148c-.96924-.28809-1.92969-.5752-2.87207-.86084l-.58008 1.91406c.94629.28662 1.90967.57471 2.88184.86377z"/><path d="m22.49414 35.32666c-.97949-.30273-1.93262-.60303-2.84912-.90137l-.61914 1.90137c.92529.30127 1.88818.60547 2.87744.91113z"/><path d="m8 21h2v2h2v-2h2c.33594 0 .6499-.16895.83496-.44971.18506-.28027.2168-.63525.08398-.94434l-.2597-.60595h1.34076v2h2v-2h2c.33594 0 .6499-.16895.83496-.44971.18506-.28027.2168-.63525.08398-.94434l-3-7c-.15722-.36767-.51904-.60595-.91894-.60595s-.76172.23828-.91895.60596l-2.50964 5.85577-1.65247-3.85577c-.15722-.36768-.51904-.60596-.91894-.60596s-.76172.23828-.91895.60596l-3 7c-.13281.30908-.10107.66406.08398.94434.18507.28075.49903.4497.83497.4497zm9-7.46143 1.4834 3.46143h-2.9668zm-6 2 1.4834 3.46143h-2.9668z"/></g></svg>